<svg width="32" height="35" viewBox="0 0 32 35" fill="none" xmlns="http://www.w3.org/2000/svg">
<path fill-rule="evenodd" clip-rule="evenodd" d="M16.3975 0.0646281C15.9785 -0.0215427 15.5463 -0.0215427 15.1274 0.0646282C14.643 0.164237 14.2102 0.406697 13.866 0.599455L13.7722 0.651857L2.10845 7.13172C2.07621 7.14964 2.04298 7.16794 2.00893 7.18669C1.64463 7.38735 1.18657 7.63965 0.834801 8.02136C0.530674 8.35138 0.30052 8.74254 0.159728 9.16866C-0.00311917 9.66154 -0.00121391 10.1845 0.000301276 10.6004C0.000442915 10.6393 0.00058107 10.6772 0.00058107 10.7141V23.5081C0.00058107 23.545 0.000442915 23.5829 0.000301276 23.6218C-0.00121391 24.0377 -0.00311917 24.5607 0.159728 25.0535C0.300521 25.4797 0.530676 25.8708 0.834802 26.2008C1.18657 26.5826 1.64463 26.8349 2.00894 27.0355C2.04298 27.0543 2.07621 27.0726 2.10846 27.0905L13.7722 33.5703L13.866 33.6228C14.2102 33.8155 14.6431 34.058 15.1274 34.1576C15.5463 34.2437 15.9785 34.2437 16.3975 34.1576C16.8818 34.058 17.3147 33.8155 17.6588 33.6227L17.7526 33.5703L29.4164 27.0905C29.4306 27.0826 29.4451 27.0746 29.4597 27.0665C29.4781 27.0563 29.4969 27.046 29.5159 27.0355C29.8802 26.8349 30.3383 26.5826 30.69 26.2008C30.9942 25.8708 31.2243 25.4797 31.3651 25.0535C31.5279 24.5607 31.526 24.0377 31.5245 23.6218C31.5244 23.5829 31.5242 23.545 31.5242 23.5081V10.7141C31.5242 10.6772 31.5244 10.6393 31.5245 10.6004C31.526 10.1845 31.5279 9.66154 31.3651 9.16866C31.2243 8.74254 30.9942 8.35138 30.69 8.02136C30.3383 7.63964 29.8802 7.38734 29.5159 7.18668L29.5146 7.18598C29.481 7.16747 29.4482 7.1494 29.4164 7.13172L17.7526 0.651856L17.6588 0.59945C17.3147 0.406694 16.8818 0.164236 16.3975 0.0646281ZM15.3031 3.40752C15.542 3.27482 15.6639 3.20777 15.7549 3.1639L15.7624 3.16029L15.7699 3.1639C15.8609 3.20777 15.9828 3.27482 16.2217 3.40752L26.7024 9.23015L15.7624 15.308L4.82234 9.23018L15.3031 3.40752ZM3.15295 11.9089L14.1862 18.0385L14.1862 30.1942L3.63938 24.3348C3.38727 24.1948 3.25855 24.1225 3.16824 24.065L3.16061 24.0601L3.16004 24.051C3.1536 23.9441 3.15295 23.7965 3.15295 23.5081V11.9089Z" fill="white"/>
</svg>
