<svg width="140" height="63" viewBox="0 0 140 63" fill="none" xmlns="http://www.w3.org/2000/svg">
<g clip-path="url(#clip0_801_14561)">
<path d="M73.7832 20.428C73.7832 22.0025 72.5148 23.2709 70.9398 23.2709C69.3655 23.2709 68.0972 22.0025 68.0972 20.428C68.0972 18.8535 69.3218 17.5852 70.9398 17.5852C72.5582 17.6289 73.7832 18.8973 73.7832 20.428ZM62.0616 26.1574C62.0616 26.4199 62.0616 26.8572 62.0616 26.8572C62.0616 26.8572 60.7058 25.1078 57.8192 25.1078C53.0519 25.1078 49.3343 28.7379 49.3343 33.7676C49.3343 38.7535 53.0081 42.4274 57.8192 42.4274C60.7495 42.4274 62.0616 40.6342 62.0616 40.6342V41.3778C62.0616 41.7276 62.324 41.99 62.6739 41.99H66.2165V25.5452C66.2165 25.5452 62.9801 25.5452 62.6739 25.5452C62.324 25.5452 62.0616 25.8513 62.0616 26.1574ZM62.0616 36.6979C61.4056 37.6601 60.0935 38.4911 58.519 38.4911C55.7198 38.4911 53.5768 36.7417 53.5768 33.7676C53.5768 30.7935 55.7198 29.0441 58.519 29.0441C60.0497 29.0441 61.4493 29.9188 62.0616 30.8373V36.6979ZM68.8408 25.5452H73.0391V41.99H68.8408V25.5452ZM131.558 25.1078C128.672 25.1078 127.316 26.8572 127.316 26.8572V17.6289H123.118V41.99C123.118 41.99 126.354 41.99 126.66 41.99C127.01 41.99 127.272 41.6839 127.272 41.3778V40.6342C127.272 40.6342 128.628 42.4274 131.515 42.4274C136.282 42.4274 140 38.7535 140 33.7676C140 28.7817 136.282 25.1078 131.558 25.1078ZM130.859 38.4474C129.241 38.4474 127.972 37.6164 127.316 36.6542V30.7935C127.972 29.9188 129.372 29.0004 130.859 29.0004C133.658 29.0004 135.801 30.7498 135.801 33.7239C135.801 36.6979 133.658 38.4474 130.859 38.4474ZM120.931 32.2368V42.0338H116.732V32.7179C116.732 30.0063 115.857 28.9129 113.496 28.9129C112.227 28.9129 110.915 29.5689 110.084 30.5311V41.99H105.885V25.5452H109.21C109.56 25.5452 109.821 25.8513 109.821 26.1574V26.8572C111.046 25.5889 112.665 25.1078 114.282 25.1078C116.12 25.1078 117.65 25.6327 118.875 26.6823C120.362 27.907 120.931 29.4815 120.931 32.2368ZM95.6946 25.1078C92.8085 25.1078 91.4526 26.8572 91.4526 26.8572V17.6289H87.254V41.99C87.254 41.99 90.4901 41.99 90.796 41.99C91.146 41.99 91.4085 41.6839 91.4085 41.3778V40.6342C91.4085 40.6342 92.7644 42.4274 95.6512 42.4274C100.418 42.4274 104.136 38.7535 104.136 33.7676C104.179 28.7817 100.462 25.1078 95.6946 25.1078ZM94.9953 38.4474C93.3769 38.4474 92.1085 37.6164 91.4526 36.6542V30.7935C92.1085 29.9188 93.5078 29.0004 94.9953 29.0004C97.7939 29.0004 99.9373 30.7498 99.9373 33.7239C99.9373 36.6979 97.7939 38.4474 94.9953 38.4474ZM83.6238 25.1078C84.8922 25.1078 85.5481 25.3265 85.5481 25.3265V29.219C85.5481 29.219 82.0488 28.0381 79.862 30.5311V42.0338H75.6634V25.5452C75.6634 25.5452 78.9002 25.5452 79.2061 25.5452C79.5561 25.5452 79.8186 25.8513 79.8186 26.1574V26.8572C80.6061 25.9388 82.3113 25.1078 83.6238 25.1078ZM40.0185 40.503C39.7998 39.9782 39.5811 39.4096 39.3624 38.9285C39.0126 38.1412 38.6626 37.3977 38.3565 36.6979L38.3128 36.6542C35.2949 30.0938 32.0585 23.4459 28.647 16.8854L28.5159 16.623C28.1659 15.9669 27.8161 15.2671 27.4661 14.5673C27.0288 13.7801 26.5914 12.9491 25.8916 12.1618C24.4921 10.4124 22.4802 9.4502 20.3371 9.4502C18.1503 9.4502 16.1822 10.4124 14.7389 12.0744C14.0828 12.8616 13.6017 13.6926 13.1644 14.4799C12.8145 15.1797 12.4646 15.8794 12.1147 16.5355L11.9835 16.7979C8.61583 23.3584 5.33557 30.0063 2.31776 36.5667L2.27402 36.6542C1.96787 37.354 1.61798 38.0975 1.26809 38.8848C1.04941 39.3659 0.83073 39.8907 0.612047 40.4593C0.0434747 42.0775 -0.131471 43.6083 0.0872114 45.1828C0.568311 48.463 2.75513 51.2184 5.77293 52.443C6.91008 52.9241 8.09097 53.1428 9.31555 53.1428C9.66548 53.1428 10.1028 53.099 10.4527 53.0553C11.896 52.8804 13.383 52.3993 14.8264 51.5683C16.6196 50.5624 18.3252 49.1191 20.2497 47.0197C22.1741 49.1191 23.9235 50.5624 25.6729 51.5683C27.1163 52.3993 28.6033 52.8804 30.0466 53.0553C30.3965 53.099 30.8338 53.1428 31.1838 53.1428C32.4083 53.1428 33.633 52.9241 34.7264 52.443C37.7879 51.2184 39.931 48.4193 40.4121 45.1828C40.762 43.652 40.5871 42.1212 40.0185 40.503ZM20.2934 42.7773C17.9316 39.8032 16.4009 37.0041 15.876 34.6424C15.6573 33.6364 15.6136 32.7617 15.7448 31.9744C15.8323 31.2747 16.0947 30.6623 16.4446 30.1375C17.2756 28.9566 18.6752 28.2131 20.2934 28.2131C21.9116 28.2131 23.355 28.9129 24.1422 30.1375C24.4921 30.6623 24.7545 31.2747 24.842 31.9744C24.9732 32.7617 24.9295 33.6801 24.7108 34.6424C24.1859 36.9603 22.6552 39.7595 20.2934 42.7773ZM37.7442 44.8329C37.4381 47.1072 35.9073 49.0753 33.7642 49.95C32.7145 50.3874 31.5774 50.5186 30.4402 50.3874C29.3468 50.2562 28.2534 49.9063 27.1163 49.2502C25.5418 48.3755 23.9673 47.0197 22.1303 45.0078C25.0169 41.4652 26.7664 38.2287 27.4225 35.3421C27.7286 33.9863 27.7723 32.7617 27.6411 31.6245C27.4661 30.5311 27.0725 29.5251 26.4602 28.6504C25.1044 26.6823 22.8301 25.5452 20.2934 25.5452C17.7567 25.5452 15.4824 26.7261 14.1266 28.6504C13.5143 29.5251 13.1206 30.5311 12.9457 31.6245C12.7707 32.7617 12.8145 34.03 13.1644 35.3421C13.8204 38.2287 15.6136 41.5089 18.4565 45.0516C16.6633 47.0634 15.045 48.4193 13.4705 49.294C12.3334 49.95 11.24 50.3 10.1466 50.4311C8.96569 50.5624 7.82854 50.3874 6.8226 49.9938C4.67953 49.1191 3.14875 47.1509 2.8426 44.8766C2.71139 43.7832 2.79886 42.6898 3.23622 41.4652C3.36744 41.0278 3.58612 40.5905 3.8048 40.0656C4.11095 39.3659 4.46085 38.6223 4.81073 37.8788L4.85447 37.7914C7.87229 31.2747 11.1087 24.6267 14.4764 18.1537L14.6077 17.8913C14.9575 17.2352 15.3075 16.5355 15.6573 15.8794C16.0073 15.1797 16.4009 14.5236 16.882 13.955C17.8005 12.9054 19.025 12.3368 20.3809 12.3368C21.7367 12.3368 22.9613 12.9054 23.8797 13.955C24.3609 14.5236 24.7545 15.1797 25.1044 15.8794C25.4543 16.5355 25.8042 17.2352 26.1541 17.8913L26.2853 18.1537C29.6093 24.6704 32.8457 31.3183 35.8635 37.8351V37.8788C36.2134 38.5786 36.5196 39.3659 36.8694 40.0656C37.0881 40.5905 37.3068 41.0278 37.438 41.4652C37.7879 42.6023 37.9192 43.6957 37.7442 44.8329Z" fill="black"/>
</g>
<defs>
<clipPath id="clip0_801_14561">
<rect width="140" height="63" fill="white"/>
</clipPath>
</defs>
</svg>
