<svg width="150" height="36" viewBox="0 0 150 36" fill="none" xmlns="http://www.w3.org/2000/svg">
<path d="M30.274 11.9807C24.8248 11.9807 20.5671 16.1172 20.5671 21.6549C20.5671 27.1925 24.7172 31.2937 30.274 31.2937C35.8307 31.2937 40.053 27.1217 40.053 21.6195C40.053 16.1526 35.9028 11.9807 30.274 11.9807ZM30.3107 27.3028C27.2076 27.3028 24.9338 24.8928 24.9338 21.6562C24.9338 18.3829 27.1708 15.9742 30.274 15.9742C33.4138 15.9742 35.6863 18.4197 35.6863 21.6562C35.6863 24.8928 33.4138 27.3028 30.3107 27.3028ZM41.243 16.1894H43.9499V30.9355H48.2798V12.3401H41.243V16.1894ZM9.67013 15.9729C11.944 15.9729 13.7482 17.3753 14.433 19.4613H19.0162C18.1856 15.0021 14.5052 11.9807 9.70687 11.9807C4.25774 11.9807 0 16.1172 0 21.6562C0 27.1952 4.15018 31.295 9.70687 31.295C14.3976 31.295 18.1502 28.2737 18.9808 23.7776H14.433C13.7836 25.8636 11.9794 27.3028 9.70552 27.3028C6.56566 27.3028 4.36531 24.8928 4.36531 21.6562C4.36667 18.3829 6.53162 15.9729 9.67013 15.9729ZM123.514 19.8575L120.339 19.3905C118.823 19.1754 117.741 18.6716 117.741 17.4843C117.741 16.1894 119.149 15.5426 121.061 15.5426C123.153 15.5426 124.489 16.4413 124.777 17.9159H128.963C128.494 14.1756 125.607 11.982 121.169 11.982C116.586 11.982 113.555 14.3199 113.555 17.6286C113.555 20.793 115.541 22.6284 119.545 23.2031L122.72 23.6701C124.273 23.8852 125.138 24.4979 125.138 25.6485C125.138 27.1231 123.623 27.7345 121.53 27.7345C118.968 27.7345 117.524 26.6915 117.308 25.1092H113.05C113.448 28.742 116.297 31.295 121.493 31.295C126.221 31.295 129.359 29.1369 129.359 25.432C129.359 22.1233 127.087 20.3968 123.514 19.8575ZM46.1149 4.67973C44.5273 4.67973 43.3358 5.83029 43.3358 7.41248C43.3358 8.99466 44.5258 10.1452 46.1149 10.1452C47.7025 10.1452 48.8939 8.99466 48.8939 7.41248C48.8939 5.83029 47.7025 4.67973 46.1149 4.67973ZM109.658 18.707C109.658 14.6794 107.205 11.982 102.009 11.982C97.1017 11.982 94.359 14.4642 93.8175 18.2767H98.112C98.3287 16.8021 99.483 15.5794 101.937 15.5794C104.138 15.5794 105.221 16.5503 105.221 17.7375C105.221 19.2843 103.236 19.6792 100.782 19.9311C97.4625 20.2906 93.3487 21.4411 93.3487 25.7574C93.3487 29.1028 95.8395 31.2596 99.8085 31.2596C102.911 31.2596 104.86 29.9648 105.835 27.9142C105.98 29.7483 107.35 30.9355 109.264 30.9355H111.789V27.0877H109.66V18.707H109.658ZM105.4 23.3827C105.4 25.865 103.236 27.6991 100.601 27.6991C98.9767 27.6991 97.6058 27.0155 97.6058 25.5777C97.6058 23.7436 99.807 23.2398 101.827 23.0246C103.776 22.8449 104.859 22.4133 105.4 21.5854V23.3827ZM82.4153 11.9807C79.9973 11.9807 77.9767 12.9883 76.533 14.678V4.5H72.2033V30.9355H76.461V28.4902C77.904 30.2521 79.962 31.295 82.4153 31.295C87.6113 31.295 91.545 27.1952 91.545 21.6562C91.545 16.1172 87.5393 11.9807 82.4153 11.9807ZM81.7658 27.3028C78.663 27.3028 76.389 24.8928 76.389 21.6562C76.389 18.4197 78.6982 15.9742 81.801 15.9742C84.9413 15.9742 87.1418 18.3843 87.1418 21.6562C87.1418 24.8928 84.8693 27.3028 81.7658 27.3028ZM61.8469 11.9807C59.0324 11.9807 57.1916 13.1312 56.1091 14.7502V12.3401H51.8146V30.9342H56.1445V20.8284C56.1445 17.9867 57.9486 15.9729 60.6187 15.9729C63.1091 15.9729 64.66 17.7348 64.66 20.2892V30.9355H68.9899V19.9665C68.9912 15.2893 66.5743 11.9807 61.8469 11.9807ZM150 21.0448C150 15.7223 146.103 11.982 140.87 11.982C135.313 11.982 131.236 16.1539 131.236 21.6562C131.236 27.4471 135.602 31.295 140.942 31.295C145.454 31.295 148.99 28.6331 149.891 24.8574H145.38C144.73 26.5117 143.143 27.4472 141.014 27.4472C138.234 27.4472 136.141 25.7206 135.673 22.6992H149.999V21.0448H150ZM135.926 19.6057C136.613 17.0159 138.561 15.7577 140.798 15.7577C143.252 15.7577 145.128 17.1602 145.561 19.6057H135.926Z" fill="black"/>
</svg>
