<svg width="120" height="52" viewBox="0 0 120 52" fill="none" xmlns="http://www.w3.org/2000/svg">
<g clip-path="url(#clip0_801_14572)">
<path d="M0 27.6753C0 18.8755 6.93066 12.6014 16.7872 12.6014C19.7126 12.6014 22.9055 13.1464 24.6967 13.9588V19.4542H24.4962L17.6434 14.5485C17.2898 14.4258 16.5521 14.3465 15.8527 14.3465C10.6685 14.3465 7.00812 19.1761 7.00812 25.8399C7.00812 33.2823 11.5694 39.0778 17.3654 39.0778C17.758 39.0713 18.1492 39.0304 18.5347 38.9557L18.4231 38.9095V26.5518L16.6655 24.4046V24.2045H26.9103V24.4046L25.1527 26.5518V40.9249H24.9526L20.5135 39.5565C18.8007 40.4131 16.1528 41.036 13.7723 41.036C5.60696 41.036 0 35.6181 0 27.6753ZM31.6495 23.9039L29.5803 21.8351V21.6774L36.9448 19.7322H37.334L37.6106 23.9039H37.8439C39.524 20.9448 41.0035 19.7322 42.8722 19.7322C43.651 19.7322 44.3186 19.9659 44.6635 20.2776V26.5849H44.4634L40.5272 23.9366C40.4102 23.912 40.2908 23.9007 40.1713 23.9029C39.3594 23.9029 38.1911 24.6817 37.8019 25.6162V38.3877L39.8592 40.2582V40.4583H29.8919V40.2582L31.6495 38.389V23.9039ZM46.3339 40.4463V40.2904L48.0914 38.377V23.9039L46.0226 21.8794V21.6774L53.8543 19.7304H54.2434V38.3881L56.0014 40.3015V40.4574H46.3339V40.4463ZM47.812 13.5471C47.812 11.6337 49.103 10.4653 51.1607 10.4653C53.2184 10.4653 54.5089 11.6337 54.5089 13.5471C54.5089 15.4162 53.23 16.5841 51.1607 16.5841C49.0915 16.5841 47.812 15.4162 47.812 13.5471ZM58.8604 40.4463V40.2462L60.618 38.377V22.5359H57.8479V22.3801L60.651 19.9659C61.5078 14.3147 64.9788 10.4653 69.2172 10.4653C70.2738 10.4653 71.5224 10.6991 72.0204 10.9771L71.3976 16.0834H71.1972L65.6244 13.625C64.4118 13.7472 63.3648 15.7274 63.3648 17.5186C63.3648 19.8212 65.1228 21.1006 68.1138 21.1006H73.2978C73.6098 15.1068 76.9578 10.4653 81.1296 10.4653C82.1088 10.4653 83.277 10.6991 83.8218 10.9771L83.1546 16.0391H82.9542L78.0054 13.7011C76.8708 13.8122 75.981 15.4918 75.981 17.3278C75.981 19.8175 77.6166 21.1084 80.7762 21.1084H92.691L92.3784 23.3372V38.46L94.1364 40.2955V40.4514H84.447V40.2955L86.238 38.3821V22.5359H79.4184V38.3881L81.7548 40.2582V40.4583H71.4732V40.2582L73.2642 38.3448V22.5359H66.759V38.3881L69.0948 40.2582V40.4583H58.8595L58.8604 40.4463ZM85.971 13.5471C85.971 11.6337 87.2502 10.4653 89.3196 10.4653C91.422 10.4653 92.7126 11.6337 92.7126 13.5471C92.7126 15.4162 91.4214 16.5841 89.3196 16.5841C87.2502 16.5841 85.971 15.4162 85.971 13.5471ZM104.927 38.3881L106.685 40.2582V40.4583H97.0176V40.2582L98.7756 38.389V23.9117L96.7062 21.8429V21.6424L104.071 19.729H104.46L104.737 23.3889H105.004C107.139 20.9305 109.442 19.729 112.012 19.729C115.483 19.729 117.896 21.9882 117.896 25.1801V38.3849L119.654 40.254V40.4541H109.954V40.254L111.745 38.2627V26.4046C111.745 24.4912 110.577 23.3234 108.707 23.3234C107.463 23.3234 106.218 23.8236 104.927 24.8361L104.927 38.3881Z" fill="black"/>
</g>
<defs>
<clipPath id="clip0_801_14572">
<rect width="120" height="52" fill="white"/>
</clipPath>
</defs>
</svg>
