<svg width="299" height="288" viewBox="0 0 299 288" fill="none" xmlns="http://www.w3.org/2000/svg">
<path d="M101.838 74.8569C45.8162 90.3904 12.9746 148.467 28.4842 204.575C43.9939 260.683 101.981 293.575 158.003 278.041C214.025 262.508 246.866 204.431 231.357 148.323C215.847 92.2155 157.86 59.3234 101.838 74.8569Z" fill="#1A1A1A"/>
<path d="M166.846 105.508L168.843 104.498C168.949 104.468 169.131 104.304 169.073 104.092L168.91 101.857C168.928 101.51 169.081 101.24 169.398 101.152C169.716 101.064 170.091 101.188 170.179 101.505L171.187 103.506C171.217 103.612 171.381 103.794 171.592 103.736L173.824 103.573C174.171 103.591 174.441 103.744 174.528 104.062C174.616 104.379 174.492 104.756 174.175 104.843L172.178 105.853C172.072 105.883 171.89 106.047 171.948 106.259L172.111 108.494C172.093 108.841 171.94 109.112 171.623 109.199C171.306 109.287 170.93 109.164 170.842 108.846L169.834 106.845C169.805 106.739 169.64 106.557 169.429 106.616L167.197 106.778C166.851 106.76 166.581 106.607 166.493 106.29C166.434 106.078 166.558 105.702 166.846 105.508Z" fill="#454850"/>
<path d="M70.9419 117.012L72.8462 116.05C72.947 116.022 73.1207 115.865 73.0649 115.663L72.91 113.532C72.927 113.201 73.0728 112.944 73.3752 112.86C73.6776 112.776 74.0358 112.894 74.1195 113.197L75.0808 115.104C75.1087 115.205 75.2653 115.379 75.4669 115.323L77.5944 115.168C77.9247 115.185 78.1821 115.331 78.2658 115.634C78.3495 115.937 78.2316 116.295 77.9292 116.379L76.025 117.342C75.9242 117.37 75.7505 117.527 75.8063 117.729L75.9612 119.86C75.9441 120.19 75.7984 120.448 75.496 120.532C75.1936 120.616 74.8354 120.498 74.7517 120.195L73.7904 118.288C73.7625 118.187 73.6059 118.013 73.4043 118.069L71.2768 118.224C70.9465 118.207 70.6891 118.061 70.6054 117.758C70.5217 117.455 70.6395 117.096 70.9419 117.012Z" fill="#454850"/>
<path d="M139.16 137.897L140.698 137.119C140.779 137.097 140.92 136.97 140.875 136.807L140.749 135.086C140.763 134.819 140.881 134.61 141.125 134.543C141.369 134.475 141.659 134.57 141.726 134.815L142.503 136.355C142.525 136.437 142.652 136.577 142.815 136.532L144.533 136.407C144.8 136.421 145.008 136.539 145.075 136.783C145.143 137.028 145.048 137.318 144.803 137.385L143.265 138.163C143.184 138.186 143.044 138.312 143.089 138.475L143.214 140.196C143.2 140.463 143.082 140.672 142.838 140.739C142.594 140.807 142.305 140.712 142.237 140.467L141.461 138.927C141.438 138.845 141.312 138.705 141.149 138.75L139.43 138.875C139.164 138.861 138.956 138.743 138.888 138.499C138.762 138.358 138.938 138.046 139.16 137.897Z" fill="#454850"/>
<path d="M78.567 246.384L81.3283 244.988C81.4745 244.947 81.7263 244.72 81.6454 244.427L81.4208 241.337C81.4455 240.858 81.6569 240.484 82.0954 240.362C82.5339 240.241 83.0533 240.412 83.1747 240.851L84.5686 243.617C84.609 243.763 84.8361 244.015 85.1284 243.934L88.2134 243.709C88.6924 243.734 89.0656 243.946 89.187 244.385C89.3084 244.824 89.1375 245.344 88.699 245.466L85.9377 246.862C85.7915 246.902 85.5397 247.13 85.6206 247.422L85.8453 250.512C85.8205 250.992 85.6091 251.366 85.1706 251.487C84.7322 251.609 84.2128 251.438 84.0914 250.998L82.6975 248.233C82.657 248.087 82.4299 247.834 82.1376 247.915L79.0526 248.14C78.5737 248.116 78.2004 247.904 78.079 247.465C77.9576 247.026 78.169 246.652 78.567 246.384Z" fill="#454850"/>
<path d="M91.278 212.993L94.0393 211.597C94.1854 211.557 94.4373 211.329 94.3563 211.036L94.1317 207.947C94.1565 207.467 94.3679 207.093 94.8063 206.972C95.2448 206.85 95.7642 207.021 95.8856 207.46L97.2795 210.226C97.32 210.372 97.547 210.625 97.8394 210.543L100.924 210.318C101.403 210.343 101.777 210.555 101.898 210.994C102.019 211.433 101.848 211.953 101.41 212.075L98.6486 213.471C98.5025 213.512 98.2506 213.739 98.3315 214.032L98.5562 217.122C98.5314 217.601 98.32 217.975 97.8816 218.097C97.4431 218.218 96.9237 218.047 96.8023 217.608L95.4084 214.842C95.3679 214.696 95.1408 214.444 94.8485 214.525L91.7635 214.75C91.2846 214.725 90.9114 214.513 90.79 214.074C90.6686 213.635 90.88 213.261 91.278 212.993Z" fill="#454850"/>
<path d="M218.663 173.204L220.109 171.031C220.2 170.94 220.29 170.668 220.109 170.487L218.663 168.314C218.482 167.952 218.482 167.59 218.753 167.318C219.024 167.046 219.476 166.956 219.748 167.227L221.918 168.676C222.008 168.767 222.279 168.857 222.46 168.676L224.63 167.227C224.992 167.046 225.353 167.046 225.625 167.318C225.896 167.59 225.986 168.042 225.715 168.314L224.268 170.487C224.178 170.578 224.088 170.85 224.268 171.031L225.715 173.204C225.896 173.566 225.896 173.928 225.625 174.2C225.353 174.472 224.901 174.562 224.63 174.291L222.46 172.842C222.37 172.751 222.098 172.661 221.918 172.842L219.748 174.291C219.386 174.472 219.024 174.472 218.753 174.2C218.482 173.928 218.391 173.476 218.663 173.204Z" fill="#454850"/>
<path d="M78.8209 157.701L80.6722 153.982C80.7969 153.821 80.8856 153.374 80.5641 153.125L77.8488 149.983C77.4914 149.447 77.4194 148.876 77.7935 148.393C78.1676 147.91 78.8631 147.677 79.3453 148.051L83.0582 149.906C83.2189 150.03 83.6651 150.119 83.9145 149.797L87.0514 147.078C87.5863 146.72 88.1571 146.648 88.6392 147.022C89.1213 147.397 89.354 148.094 88.9799 148.577L87.1286 152.295C87.0039 152.456 86.9152 152.903 87.2367 153.153L89.952 156.295C90.3094 156.83 90.3814 157.402 90.0073 157.885C89.6332 158.368 88.9377 158.601 88.4555 158.226L84.7426 156.372C84.5819 156.247 84.1357 156.158 83.8863 156.48L80.7494 159.2C80.2146 159.558 79.6438 159.63 79.1616 159.255C78.6795 158.88 78.4468 158.184 78.8209 157.701Z" fill="#808080"/>
<path d="M115.698 267.546L118.292 266.234C118.429 266.196 118.665 265.983 118.589 265.708L118.378 262.806C118.402 262.355 118.6 262.004 119.012 261.89C119.424 261.776 119.912 261.936 120.026 262.349L121.335 264.946C121.373 265.084 121.586 265.321 121.861 265.245L124.759 265.033C125.208 265.057 125.559 265.255 125.673 265.668C125.787 266.08 125.626 266.569 125.215 266.683L122.621 267.994C122.484 268.033 122.247 268.246 122.323 268.521L122.534 271.423C122.511 271.874 122.312 272.225 121.901 272.339C121.489 272.453 121.001 272.292 120.887 271.88L119.578 269.282C119.54 269.145 119.326 268.908 119.052 268.984L116.154 269.195C115.704 269.172 115.354 268.973 115.24 268.561C115.126 268.148 115.286 267.66 115.698 267.546Z" fill="#454850"/>
<path d="M65.8405 201.097L67.6446 197.893C67.7621 197.756 67.8607 197.365 67.5877 197.13L65.3284 194.229C65.0365 193.74 64.9985 193.231 65.351 192.821C65.7035 192.411 66.329 192.236 66.7384 192.589L69.9377 194.396C70.0742 194.514 70.4646 194.612 70.6996 194.339L73.5954 192.076C74.0844 191.784 74.5923 191.746 75.0017 192.099C75.4111 192.452 75.5856 193.078 75.2331 193.488L73.4289 196.693C73.3114 196.829 73.2129 197.22 73.4858 197.456L75.7452 200.356C76.0371 200.846 76.075 201.355 75.7225 201.765C75.37 202.175 74.7446 202.349 74.3352 201.996L71.1359 200.189C70.9994 200.072 70.609 199.973 70.374 200.246L67.4781 202.509C66.9892 202.801 66.4812 202.839 66.0718 202.486C65.6624 202.133 65.488 201.507 65.8405 201.097Z" fill="#808080"/>
<path d="M111.095 101.144L114.481 99.5062C114.805 99.4163 114.878 99.0468 114.833 98.8844L114.494 95.1336C114.521 94.6016 114.873 93.9798 115.359 93.845C115.846 93.7102 116.422 93.9001 116.763 94.5044L118.399 97.8958C118.488 98.2204 118.857 98.2929 119.019 98.2479L122.764 97.9085C123.296 97.936 123.916 98.2882 124.051 98.7752C124.186 99.2621 123.996 99.839 123.393 100.181L120.006 101.819C119.682 101.909 119.61 102.279 119.655 102.441L119.994 106.192C119.966 106.724 119.615 107.345 119.128 107.48C118.642 107.615 118.066 107.425 117.725 106.821L116.089 103.429C116 103.105 115.63 103.032 115.468 103.077L111.723 103.417C111.192 103.389 110.571 103.037 110.437 102.55C110.257 101.901 110.447 101.324 111.095 101.144Z" fill="#454850"/>
<path d="M190.204 137.701L191.905 136.878C192.068 136.833 192.104 136.648 192.081 136.566L191.911 134.682C191.925 134.415 192.102 134.102 192.346 134.035C192.59 133.967 192.879 134.062 193.051 134.366L193.872 136.069C193.917 136.232 194.103 136.269 194.184 136.246L196.065 136.076C196.332 136.09 196.644 136.266 196.712 136.511C196.779 136.756 196.684 137.045 196.381 137.217L194.68 138.04C194.517 138.085 194.481 138.271 194.503 138.352L194.674 140.236C194.66 140.504 194.483 140.816 194.239 140.884C193.995 140.951 193.705 140.856 193.534 140.552L192.712 138.849C192.667 138.686 192.482 138.649 192.401 138.672L190.519 138.843C190.253 138.829 189.941 138.652 189.873 138.407C189.806 138.163 189.982 137.85 190.204 137.701Z" fill="#454850"/>
<path d="M175.092 243.508L178.925 241.653C179.292 241.552 179.374 241.133 179.323 240.95L178.94 236.704C178.971 236.102 179.369 235.398 179.919 235.245C180.47 235.093 181.121 235.308 181.508 235.992L183.359 239.831C183.461 240.198 183.879 240.28 184.062 240.229L188.301 239.845C188.902 239.876 189.605 240.275 189.757 240.826C189.91 241.377 189.695 242.03 189.012 242.417L185.179 244.271C184.812 244.373 184.731 244.791 184.781 244.975L185.165 249.221C185.134 249.823 184.736 250.527 184.185 250.679C183.635 250.832 182.983 250.617 182.597 249.933L180.745 246.094C180.644 245.727 180.226 245.645 180.043 245.696L175.803 246.08C175.202 246.049 174.5 245.65 174.347 245.099C174.195 244.548 174.409 243.895 175.092 243.508Z" fill="#808080"/>
<path d="M122.969 190.09L126.802 188.236C127.169 188.134 127.251 187.716 127.2 187.532L126.817 183.286C126.848 182.684 127.246 181.981 127.796 181.828C128.346 181.675 128.998 181.89 129.385 182.574L131.236 186.413C131.338 186.781 131.756 186.863 131.939 186.812L136.178 186.428C136.779 186.459 137.482 186.857 137.634 187.408C137.787 187.96 137.572 188.613 136.889 189L133.056 190.854C132.689 190.956 132.608 191.374 132.658 191.558L133.042 195.803C133.011 196.406 132.613 197.109 132.062 197.262C131.512 197.415 130.86 197.2 130.474 196.516L128.622 192.677C128.521 192.309 128.103 192.227 127.92 192.278L123.68 192.662C123.079 192.631 122.376 192.233 122.224 191.681C122.072 191.13 122.286 190.477 122.969 190.09Z" fill="#808080"/>
<path d="M193.054 204.213L195.809 202.881C196.073 202.808 196.132 202.507 196.095 202.375L195.819 199.324C195.842 198.891 196.128 198.385 196.523 198.275C196.919 198.166 197.387 198.32 197.665 198.812L198.996 201.571C199.069 201.835 199.369 201.894 199.501 201.857L202.547 201.581C202.979 201.603 203.484 201.89 203.594 202.286C203.703 202.682 203.549 203.151 203.058 203.43L200.304 204.762C200.04 204.835 199.981 205.136 200.018 205.268L200.293 208.319C200.271 208.752 199.985 209.258 199.589 209.367C199.194 209.477 198.725 209.323 198.447 208.831L197.117 206.072C197.044 205.808 196.744 205.749 196.612 205.786L193.565 206.062C193.133 206.039 192.628 205.753 192.519 205.357C192.409 204.961 192.695 204.455 193.054 204.213Z" fill="#454850"/>
<path d="M39.8305 163.805L43.9154 163.435C44.2689 163.337 44.5436 163.642 44.5925 163.819L46.3763 167.518C46.6999 168 47.3771 168.384 47.9074 168.237C48.4377 168.09 48.8702 167.589 48.8512 166.832L48.4816 162.741C48.3838 162.387 48.6883 162.112 48.8651 162.063L52.5585 160.276C53.0399 159.952 53.4233 159.274 53.2765 158.743C53.1297 158.212 52.6293 157.778 51.8733 157.797L47.7884 158.168C47.4349 158.266 47.1602 157.961 47.1113 157.783L45.3275 154.084C45.0039 153.602 44.3267 153.218 43.7964 153.365C43.2661 153.512 42.8336 154.013 42.8526 154.771L43.2222 158.862C43.3201 159.216 43.0155 159.491 42.8387 159.54L39.1454 161.327C38.664 161.651 38.2805 162.329 38.4273 162.86C38.6231 163.568 39.3002 163.952 39.8305 163.805Z" fill="#454850"/>
<path d="M17.9924 245.226L23.768 244.703C24.2679 244.564 24.6562 244.996 24.7254 245.246L27.2476 250.476C27.7051 251.158 28.6626 251.701 29.4124 251.493C30.1623 251.285 30.7737 250.576 30.7468 249.506L30.2243 243.721C30.0859 243.221 30.5166 242.832 30.7665 242.762L35.9886 240.236C36.6692 239.778 37.2114 238.819 37.0039 238.068C36.7963 237.317 36.0888 236.705 35.0198 236.732L29.2442 237.255C28.7443 237.394 28.356 236.962 28.2868 236.712L25.7646 231.482C25.3071 230.8 24.3496 230.257 23.5998 230.465C22.85 230.673 22.2385 231.381 22.2654 232.452L22.7879 238.237C22.9263 238.737 22.4956 239.126 22.2457 239.196L17.0236 241.722C16.343 242.18 15.8008 243.139 16.0084 243.89C16.2852 244.891 17.2426 245.434 17.9924 245.226Z" fill="#808080"/>
<path d="M27.5842 98.3865L32.9095 97.9039C33.3704 97.7761 33.7284 98.1739 33.7922 98.4047L36.1177 103.227C36.5396 103.855 37.4224 104.356 38.1138 104.165C38.8051 103.973 39.3689 103.319 39.3441 102.332L38.8623 96.9989C38.7347 96.5372 39.1318 96.1786 39.3623 96.1147L44.1772 93.7857C44.8047 93.3632 45.3047 92.4791 45.1133 91.7866C44.9219 91.0942 44.2696 90.5295 43.2839 90.5543L37.9586 91.0369C37.4977 91.1647 37.1397 90.7669 37.0759 90.5361L34.7504 85.7139C34.3285 85.0853 33.4457 84.5846 32.7544 84.7763C32.063 84.968 31.4992 85.6213 31.524 86.6085L32.0058 91.9419C32.1334 92.4036 31.7363 92.7622 31.5058 92.8261L26.6909 95.1551C26.0634 95.5776 25.5634 96.4618 25.7548 97.1542C26.0101 98.0775 26.8928 98.5782 27.5842 98.3865Z" fill="#808080"/>
<path d="M253.103 207.333L260.362 209.923C261.042 210.035 261.27 210.772 261.215 211.113L261.348 218.829C261.521 219.907 262.374 221.096 263.394 221.264C264.415 221.432 265.546 220.918 266.109 219.611L268.696 212.341C268.808 211.66 269.544 211.431 269.884 211.487L277.589 211.353C278.665 211.18 279.852 210.326 280.019 209.304C280.187 208.282 279.674 207.149 278.369 206.585L271.111 203.994C270.43 203.882 270.202 203.145 270.258 202.804L270.124 195.088C269.951 194.01 269.098 192.821 268.078 192.653C267.058 192.486 265.926 192.999 265.363 194.306L262.776 201.576C262.664 202.257 261.928 202.486 261.588 202.43L253.883 202.564C252.807 202.737 251.62 203.591 251.453 204.613C251.23 205.976 252.083 207.165 253.103 207.333Z" fill="#808080"/>
<path d="M86.3078 124.899C85.6334 125.086 85.238 125.785 85.4247 126.461C85.6114 127.136 86.3095 127.532 86.9839 127.345C87.6584 127.158 88.0537 126.459 87.867 125.784C87.6803 125.108 86.9822 124.712 86.3078 124.899Z" fill="#454850"/>
<path d="M129.921 156.786C129.247 156.973 128.851 157.673 129.038 158.348C129.225 159.023 129.923 159.419 130.597 159.232C131.272 159.045 131.667 158.346 131.48 157.671C131.294 156.995 130.595 156.599 129.921 156.786Z" fill="#454850"/>
<path d="M158.25 105.345C157.893 105.948 158.091 106.726 158.693 107.084C159.295 107.442 160.072 107.243 160.429 106.641C160.787 106.038 160.588 105.259 159.987 104.902C159.385 104.544 158.608 104.742 158.25 105.345Z" fill="#454850"/>
<path d="M117.367 81.0236C117.01 81.6263 117.208 82.4048 117.81 82.7626C118.412 83.1204 119.189 82.9219 119.547 82.3192C119.904 81.7166 119.706 80.938 119.104 80.5802C118.502 80.2224 117.725 80.421 117.367 81.0236Z" fill="#454850"/>
<path d="M44.4358 136.892C44.0786 137.494 44.2768 138.273 44.8786 138.631C45.4803 138.989 46.2577 138.79 46.6149 138.187C46.9721 137.585 46.7739 136.806 46.1722 136.448C45.5705 136.091 44.7931 136.289 44.4358 136.892Z" fill="#454850"/>
<path d="M49.7444 186.795C49.3872 187.397 49.5854 188.176 50.1872 188.534C50.7889 188.891 51.5663 188.693 51.9235 188.09C52.2807 187.488 52.0825 186.709 51.4808 186.351C50.8791 185.993 50.1017 186.192 49.7444 186.795Z" fill="#454850"/>
<path d="M100.039 186.795C99.6821 187.397 99.8803 188.176 100.482 188.534C101.084 188.891 101.861 188.693 102.218 188.09C102.576 187.488 102.377 186.709 101.776 186.351C101.174 185.993 100.397 186.192 100.039 186.795Z" fill="#454850"/>
<path d="M63.5648 236.67C63.2075 237.273 63.4057 238.051 64.0075 238.409C64.6092 238.767 65.3866 238.568 65.7438 237.966C66.101 237.363 65.9028 236.584 65.3011 236.227C64.6994 235.869 63.922 236.067 63.5648 236.67Z" fill="#454850"/>
<path d="M96.9905 262.158C96.6333 262.761 96.8315 263.54 97.4332 263.897C98.035 264.255 98.8124 264.057 99.1696 263.454C99.5268 262.851 99.3286 262.073 98.7269 261.715C98.1251 261.357 97.3478 261.556 96.9905 262.158Z" fill="#454850"/>
<path d="M158.135 262.567C157.778 263.17 157.976 263.948 158.578 264.306C159.18 264.664 159.957 264.465 160.314 263.863C160.671 263.26 160.473 262.481 159.871 262.124C159.27 261.766 158.492 261.964 158.135 262.567Z" fill="#454850"/>
<path d="M200.68 224.551C200.323 225.153 200.521 225.932 201.123 226.29C201.724 226.647 202.502 226.449 202.859 225.846C203.216 225.244 203.018 224.465 202.416 224.107C201.815 223.75 201.037 223.948 200.68 224.551Z" fill="#454850"/>
<path d="M223.352 183.317C222.995 183.92 223.193 184.699 223.795 185.056C224.396 185.414 225.174 185.216 225.531 184.613C225.888 184.01 225.69 183.232 225.088 182.874C224.486 182.516 223.709 182.715 223.352 183.317Z" fill="#454850"/>
<path d="M197.75 120.006C197.393 120.608 197.591 121.387 198.193 121.745C198.795 122.103 199.572 121.904 199.929 121.301C200.287 120.699 200.088 119.92 199.487 119.562C198.885 119.205 198.108 119.403 197.75 120.006Z" fill="#454850"/>
<path d="M215.077 181.211L227.918 170.867L223.917 165.874L211.076 176.219L215.077 181.211Z" fill="#757575"/>
<path d="M297.069 138.976L271.322 106.534L211.166 155.635L236.913 188.077L297.069 138.976Z" fill="#535353" stroke="#757575" stroke-width="4.10715" stroke-miterlimit="10"/>
<path d="M254.434 177.3L225.375 138.851" stroke="#757575" stroke-width="4.10715" stroke-miterlimit="10"/>
<path d="M268.645 166.527L239.586 128.077" stroke="#757575" stroke-width="4.10715" stroke-miterlimit="10"/>
<path d="M282.854 155.754L253.795 117.305" stroke="#757575" stroke-width="4.10715" stroke-miterlimit="10"/>
<path d="M277.709 119.368L220.865 162.462" stroke="#757575" stroke-width="4.10715" stroke-miterlimit="10"/>
<path d="M287.412 132.205L230.568 175.299" stroke="#757575" stroke-width="4.10715" stroke-miterlimit="10"/>
<path d="M229.531 230.127C225.021 233.546 218.61 232.651 215.189 228.124L209.518 220.62C209.236 220.248 209.311 219.703 209.682 219.422L224.696 208.04C225.066 207.759 225.61 207.835 225.891 208.207L231.562 215.711C234.922 220.285 233.98 226.754 229.531 230.127Z" fill="#757575"/>
<path d="M194.025 153.058L165.047 175.027L204.886 227.739L204.933 227.802C204.933 227.802 204.933 227.802 204.98 227.864C206.635 229.925 214.389 226.681 222.359 220.639C230.329 214.596 235.49 208.05 234.02 205.848C234.02 205.848 234.02 205.848 233.973 205.786L233.926 205.724L194.087 153.011L194.025 153.058Z" fill="#535353"/>
<path d="M208.321 171.973L219.382 186.608L219.429 186.67L219.476 186.732C221.008 188.888 215.786 195.48 207.815 201.523C199.845 207.565 192.153 210.762 190.436 208.748L190.389 208.686L190.343 208.624L179.281 193.988C180.937 196.05 188.69 192.806 196.66 186.763C204.631 180.721 209.806 174.066 208.321 171.973Z" fill="#757575"/>
<path d="M196.367 127.626C203.171 136.113 196.31 152.981 181.021 165.293C165.732 177.605 147.756 180.739 140.953 172.252C140.912 172.201 140.87 172.149 140.829 172.098C140.788 172.046 140.706 171.944 140.664 171.892C138.536 168.443 148.814 156.103 163.845 143.998C178.876 131.894 193.153 124.543 196.014 127.318C196.055 127.369 196.138 127.472 196.179 127.524C196.243 127.472 196.285 127.523 196.367 127.626Z" fill="#757575"/>
<path d="M195.156 127.148L195.197 127.197C195.945 128.238 195.36 130.331 193.662 132.977C190.243 138.37 182.445 146.323 172.486 154.188C162.527 162.053 152.881 167.877 146.849 169.949C143.853 171.01 141.646 171.121 140.771 170.18L140.731 170.13C140.69 170.081 140.649 170.031 140.609 169.982C138.515 166.659 148.62 154.762 163.4 143.09C178.18 131.417 192.22 124.327 195.034 126.999C195.075 127.048 195.116 127.098 195.156 127.148Z" fill="#757575"/>
<path d="M193.732 133.574L193.772 133.623C190.37 138.953 182.61 146.816 172.699 154.592C162.789 162.368 153.189 168.126 147.186 170.175L147.145 170.126C147.105 170.077 147.065 170.028 147.065 170.028C145.281 167.235 153.938 157.055 166.563 147.15C179.251 137.194 191.236 131.177 193.651 133.476C193.651 133.476 193.691 133.525 193.732 133.574Z" fill="#535353"/>
<path d="M170.986 145.834C171.183 146.241 170.018 147.701 168.354 149.105C166.621 150.568 165.014 151.448 164.704 151.042L154.95 135.429L158.208 132.679L170.898 145.718L170.986 145.834Z" fill="#757575"/>
<path d="M157.381 134.556C159.431 132.865 160.031 130.136 158.721 128.46C157.411 126.784 154.687 126.797 152.637 128.487C150.586 130.178 149.986 132.907 151.296 134.583C152.606 136.259 155.33 136.247 157.381 134.556Z" fill="#757575"/>
<path d="M126.435 271.828L100.688 239.386L160.843 190.285L186.591 222.727L126.435 271.828Z" fill="#535353" stroke="#757575" stroke-width="4.10715" stroke-miterlimit="10"/>
<path d="M172.38 239.507L143.32 201.058" stroke="#757575" stroke-width="4.10715" stroke-miterlimit="10"/>
<path d="M158.169 250.281L129.109 211.832" stroke="#757575" stroke-width="4.10715" stroke-miterlimit="10"/>
<path d="M143.958 261.053L114.898 222.604" stroke="#757575" stroke-width="4.10715" stroke-miterlimit="10"/>
<path d="M110.391 246.216L167.234 203.122" stroke="#757575" stroke-width="4.10715" stroke-miterlimit="10"/>
<path d="M120.092 259.053L176.936 215.959" stroke="#757575" stroke-width="4.10715" stroke-miterlimit="10"/>
<path d="M182.652 197.212L169.811 207.556L173.811 212.549L186.652 202.204L182.652 197.212Z" fill="#757575"/>
<path d="M74.9169 86.8114C74.3192 90.8024 71.729 98.5848 67.1465 99.7821C66.9472 99.7821 66.748 99.7821 66.5487 99.9816C62.1654 100.58 57.1843 97.587 53.9965 95.392C52.4025 94.1947 50.8086 92.7979 49.4139 91.401C48.8162 90.8024 48.0192 90.0042 47.4215 89.4056C42.8389 84.4168 39.2525 78.2308 37.0609 71.6457C36.6624 70.2489 36.2639 68.8521 36.4632 67.4552C36.4632 67.0561 36.6624 66.8566 36.6624 66.657C37.0609 65.6593 37.8578 64.6615 39.0533 64.462C40.0495 64.2624 40.8465 64.6615 41.8427 64.8611C42.8389 65.2602 43.6359 65.6593 44.6321 66.2579C42.4404 63.6638 41.8427 59.2737 41.8427 56.081C41.8427 55.8814 41.8427 55.4823 42.0419 55.4823C42.2412 55.2828 42.8389 55.4823 43.0381 55.6819C46.226 58.0764 46.226 62.4665 47.6207 66.0584C47.6207 63.4643 47.82 60.8701 47.82 58.276C47.82 56.4801 48.0192 54.285 49.4139 53.0877C49.6131 52.8882 49.8124 52.8882 50.0116 52.8882C50.4101 52.8882 50.6093 53.2873 50.8086 53.4868C53.1995 57.6773 51.8048 62.8656 52.2033 67.6548C52.4025 69.4507 52.6018 71.2466 53.0003 73.0426C53.1995 73.8408 53.598 75.6367 53.9965 77.4326C54.395 78.2308 54.7934 79.029 55.3912 79.8272C55.5904 80.2263 55.9889 80.6254 56.3874 80.825C56.9851 81.4236 57.7821 82.0223 58.579 82.6209C60.173 83.4191 61.7669 84.0177 63.5601 84.4168C66.748 85.0155 69.9358 85.0155 73.1237 85.215C73.7214 85.215 74.3192 85.4146 74.7177 85.8137C74.9169 86.2128 74.9169 86.4123 74.9169 86.8114Z" fill="#949494"/>
<path d="M116.755 152.862C112.571 152.862 108.188 151.465 105 149.47C98.8231 145.479 95.0375 139.492 91.4512 134.104L98.4246 129.515C101.613 134.304 104.8 139.492 109.383 142.286C112.969 144.681 118.747 145.479 121.935 142.685C125.92 139.093 124.924 132.309 123.33 127.32C121.337 121.134 117.552 115.746 112.969 112.354L117.95 105.769C124.127 110.358 128.909 117.143 131.3 124.925C134.687 135.501 133.491 143.882 127.514 149.071C124.525 151.665 120.541 152.862 116.755 152.862Z" fill="#535353"/>
<path d="M125.32 86.6124C125.52 89.6057 124.523 92.5989 123.328 95.5921C118.745 107.565 113.964 119.538 108.385 131.112C107.189 133.307 106.193 135.701 104.998 137.896C103.404 141.089 101.411 144.681 97.825 145.479C94.8364 146.078 92.047 144.681 89.4569 143.284C88.6599 142.885 87.8629 142.286 87.4644 141.488C87.066 140.69 87.2652 139.692 87.4644 138.894C89.8553 126.921 94.4379 115.747 99.0205 104.372C101.212 98.7849 103.603 92.998 105.396 87.2111C106.791 83.2201 107.787 78.0319 112.967 77.6328C117.749 77.4332 124.922 81.2246 125.32 86.6124Z" fill="#535353"/>
<path d="M69.7348 122.331C69.7348 122.73 69.7348 122.93 69.7348 123.329C69.5355 125.923 68.9378 128.317 67.5431 130.512C65.9492 132.907 63.5583 134.902 60.7689 135.501C60.1711 135.701 59.5734 135.701 58.9757 135.701C56.3855 135.9 53.7954 135.102 51.4045 134.104C48.4158 132.907 45.4272 131.51 42.0401 131.311C40.2469 131.111 38.4537 131.311 36.6606 131.71C35.6643 131.909 34.8674 132.308 33.8712 132.508C32.875 132.907 31.8787 133.306 30.8825 133.705C27.4954 135.302 24.1083 137.497 20.7212 138.893C17.9318 140.091 14.5447 140.689 12.1538 138.893C10.9583 138.095 10.3606 136.698 9.76287 135.501C6.37575 129.116 3.38712 122.73 0.398484 116.145C0.199242 115.945 0 115.546 0 115.147C0 114.149 1.19545 113.351 1.99242 112.952C2.19166 112.753 2.39091 112.753 2.59015 112.553C4.78181 111.555 6.77423 110.757 9.16514 110.358C11.7553 110.158 14.5447 110.558 16.3379 112.353C17.5333 113.551 18.3303 114.948 19.1272 116.544C19.9242 118.34 20.9204 120.136 21.7174 121.932C24.1083 119.936 26.4992 117.941 29.0894 116.145C29.8863 115.546 30.6833 115.147 31.4803 114.748C32.875 113.95 34.4689 113.152 36.0628 112.753C38.653 111.755 41.4424 111.356 44.2318 111.156C45.6265 110.957 47.0211 110.757 48.4158 110.957C50.0098 110.957 51.6037 111.356 52.9984 111.555C56.784 112.353 60.7689 113.152 64.5545 113.95L60.3704 113.551C63.7575 114.349 67.7423 115.546 69.137 118.739C69.7348 119.737 69.7348 121.134 69.7348 122.331Z" fill="#949494"/>
<path d="M54.9912 112.754C53.5965 118.142 54.792 123.928 58.1791 128.518C58.3783 128.718 58.5776 129.117 58.976 128.917C59.1753 128.917 59.1753 128.718 59.3745 128.518C59.9722 127.121 60.1715 125.525 60.3707 124.128C60.7692 120.736 61.9647 115.348 60.7692 111.956C59.3745 108.763 55.5889 110.16 54.9912 112.754Z" fill="#535353"/>
<path d="M79.696 74.4388C78.1021 76.6339 76.1097 78.4298 74.3165 80.4253C63.7566 91.7995 58.7756 107.564 55.787 122.929C54.99 126.92 54.5915 131.31 56.9824 134.303C58.1779 135.7 59.7718 136.698 61.3657 137.496C63.9559 138.893 66.3468 140.29 68.9369 141.687C71.9256 143.283 75.1134 145.079 78.5006 145.279C82.4854 145.478 86.4703 143.483 89.4589 140.689C92.4475 137.895 94.4399 134.303 96.4324 130.711C101.413 121.532 105.996 112.153 109.981 102.575C111.176 99.7815 112.372 96.7882 112.77 93.795C113.368 89.405 112.372 85.0149 111.575 80.8244C111.376 79.8266 111.176 78.6293 110.379 77.8311C109.383 76.8334 107.789 76.8334 106.594 77.033C97.8271 77.432 88.8612 78.2302 80.493 76.2348C78.6998 75.8357 76.7074 75.237 75.7112 73.6406" fill="#949494"/>
<path d="M36.663 131.909C35.6668 132.109 34.8698 132.508 33.8736 132.707C33.6744 129.914 33.2759 126.721 32.4789 123.728C31.6819 121.134 30.6857 118.739 29.0918 116.344C29.8888 115.746 30.6857 115.347 31.4827 114.948C33.0766 117.542 34.2721 120.136 35.0691 122.929C35.866 125.923 36.4638 129.115 36.663 131.909Z" fill="#535353"/>
<path d="M63.7579 127.918C62.9609 129.914 63.3594 127.32 63.1602 129.714C63.1602 131.909 63.7579 134.104 64.9533 136.1C67.3442 139.492 71.5283 141.488 75.5132 142.884C79.0995 144.082 82.8851 144.68 86.4715 142.884C90.8548 140.689 94.2419 135.501 93.8434 130.512C93.445 123.927 85.6745 120.535 79.8965 119.936C72.7238 119.138 69.1374 121.732 63.5586 125.923V127.918H63.7579Z" fill="#535353"/>
<path d="M119.345 64.662C119.345 64.8615 119.145 65.2606 119.145 65.4602C118.149 69.8502 116.954 74.0408 116.555 78.6304C116.356 80.6259 116.755 84.2177 114.762 85.6146C113.168 86.6123 110.379 86.0137 108.586 86.0137C103.007 85.6146 97.6273 84.6168 91.8493 84.6168C91.4508 84.6168 91.0523 84.6168 90.4546 84.6168C88.4622 84.4173 86.669 83.6191 85.0751 82.6214C82.8834 81.6236 80.891 80.4263 78.6993 79.6281C76.9061 79.0295 74.9137 78.6304 73.9175 77.034C72.7221 75.4376 72.7221 73.4421 72.5228 71.6462C71.9251 65.6597 72.1243 59.2742 73.7183 53.4873C74.7145 49.8954 76.7069 46.3035 79.6955 43.7094C86.2705 37.7229 96.8304 36.5257 104.999 40.5166C110.977 43.5099 116.157 48.6981 118.548 55.0837C119.544 57.8773 119.942 61.2697 119.345 64.662Z" fill="#949494"/>
<path d="M119.345 64.6626C119.345 64.8621 119.146 65.2612 119.146 65.4607C118.15 69.8508 116.954 74.0413 116.556 78.6309C116.357 80.6264 116.755 84.2183 114.763 85.6151C113.169 86.6129 110.379 86.0142 108.586 86.0142C103.007 85.6151 97.6278 84.6174 91.8498 84.6174C91.4513 84.6174 91.0528 84.6174 90.4551 84.6174C92.846 83.6197 95.4361 83.6197 98.0263 83.2206C106.195 81.8237 113.368 76.0368 116.556 68.454C117.552 66.0594 118.15 63.4653 118.349 60.8711C118.548 58.8756 118.548 56.8802 118.15 55.0842C119.544 57.8779 119.943 61.2702 119.345 64.6626Z" fill="#797979" stroke="#535353" stroke-width="5.06525" stroke-miterlimit="10" stroke-linecap="round" stroke-linejoin="round"/>
<path d="M101.415 81.2261C99.2234 83.2216 96.6332 84.6185 93.8438 84.6185C89.062 84.6185 84.081 83.6207 79.6976 81.4257C78.3029 80.6275 77.1075 79.8293 75.912 79.0311C75.3143 78.4325 74.5173 77.8338 74.1189 77.2352C72.7242 75.6388 71.9272 73.8428 71.5287 71.6478C70.3333 67.0582 71.1302 61.4708 72.7242 57.0808C74.5173 52.4912 77.3067 50.6952 82.0885 50.4957C86.8704 50.0966 92.4491 51.693 97.0317 53.888C97.231 54.0875 97.4302 54.0875 97.6294 54.2871C99.6219 55.2848 101.415 56.4821 102.81 57.879C109.584 64.065 107.791 75.2397 101.415 81.2261Z" fill="#D6D6D6"/>
<path d="M90.8539 133.905C90.8539 134.105 90.8539 134.105 90.8539 134.304C90.8539 135.302 90.6546 136.1 90.2561 136.898C88.8615 140.69 84.8766 143.084 80.8918 144.282C76.9069 145.479 72.7228 145.679 68.9372 146.876C65.7494 147.874 62.5615 149.27 60.1706 151.465C59.5729 152.064 58.9751 152.463 58.5767 153.062C58.5767 153.261 58.3774 153.261 58.3774 153.461C53.9941 158.849 52.7986 166.631 47.6183 171.42C47.2198 171.819 46.8214 172.019 46.4229 172.219C46.0244 172.219 45.6259 172.019 45.2274 172.019C37.8555 168.826 31.0812 164.835 24.307 160.645C23.3108 160.046 22.1153 159.248 21.5176 158.25C21.1191 157.452 21.1191 156.654 21.5176 155.856C22.5138 152.862 26.8972 149.27 28.8896 148.472C31.0812 147.674 33.6714 147.874 35.863 148.672C38.0547 149.47 40.2464 150.867 42.0396 152.264C42.438 149.47 43.235 146.477 44.4305 143.883C44.8289 143.084 45.2274 142.286 45.6259 141.488C46.0244 140.69 46.6221 140.091 47.0206 139.293C48.2161 137.497 49.81 135.901 51.4039 134.504C53.5956 132.508 55.9865 130.712 58.3774 129.116C61.9638 126.721 65.7494 124.526 69.7342 123.529C70.3319 123.329 70.9297 123.329 71.5274 123.13C75.5122 122.331 79.8956 122.93 83.6812 124.526C85.8728 125.325 87.8652 126.721 89.2599 128.517C90.2561 129.914 90.8539 131.91 90.8539 133.905Z" fill="#949494"/>
<path d="M59.9706 151.465C59.3729 152.063 58.7751 152.462 58.3766 153.061C58.3766 153.261 58.1774 153.261 58.1774 153.46C55.7865 150.467 52.9971 148.072 49.8092 146.276C48.4145 145.478 46.8206 144.88 45.2267 144.281C45.0274 144.081 44.6289 144.081 44.4297 143.882C44.8282 143.084 45.2267 142.285 45.6251 141.487C45.8244 141.487 46.0236 141.687 46.2229 141.687C47.8168 142.285 49.61 142.884 51.2039 143.882C54.3918 145.678 57.5797 148.272 59.9706 151.465Z" fill="#535353"/>
<path d="M150.826 99.3839C150.826 99.5835 150.826 99.9826 150.627 100.182C150.029 102.377 147.837 103.574 145.645 103.974C145.048 104.173 144.251 104.173 143.653 104.173C142.059 104.373 140.664 104.373 139.071 104.772C137.477 105.171 135.883 106.169 134.289 106.967C132.695 107.765 130.902 108.364 129.308 108.763C128.311 108.962 127.315 109.162 126.319 109.361C121.936 109.96 117.552 109.561 113.368 108.164C110.778 107.366 108.786 105.171 107.59 102.377C105.797 97.9871 106.196 92.3997 110.38 89.8056C115.759 86.4133 119.146 91.2025 123.53 93.1979C124.327 93.597 125.124 93.7966 125.921 93.9961C126.917 94.1957 127.913 94.1957 128.909 94.1957C131.101 93.9961 133.292 93.3975 135.285 92.3997C138.871 90.6038 142.059 87.8101 145.247 85.216C145.845 84.8169 146.442 84.2183 147.239 84.4178C148.036 84.6174 148.435 85.6151 148.435 86.6128V86.8124C148.236 87.6106 147.837 88.4088 147.638 89.207C147.239 92.7988 151.224 95.9916 150.826 99.3839Z" fill="#949494"/>
<path d="M149.232 107.965L134.488 35.3294C134.289 34.5312 134.887 33.9325 135.485 33.733C136.281 33.5334 136.879 34.1321 137.078 34.7307L151.822 107.366C152.022 108.165 151.424 108.763 150.826 108.963C150.228 109.162 149.431 108.564 149.232 107.965Z" fill="#797979" stroke="#535353" stroke-width="5.06525" stroke-miterlimit="10" stroke-linecap="round" stroke-linejoin="round"/>
<path d="M153.816 98.1865C153.617 97.5878 153.019 97.1887 152.421 97.1887L153.019 96.9892C154.015 96.5901 154.414 95.3928 154.015 94.3951C153.617 93.5969 152.621 93.1978 151.824 93.3973L152.222 93.1978C153.218 92.7987 153.617 91.6014 153.218 90.6036C153.019 90.005 152.621 89.8054 152.023 89.6059C152.82 89.0072 153.218 88.0095 152.82 87.0118C152.421 86.014 151.226 85.6149 150.23 86.014L143.456 89.2068C142.459 89.6059 142.061 90.8032 142.459 91.8009C142.659 92.3996 143.057 92.5991 143.655 92.7987C142.858 93.3973 142.459 94.3951 142.858 95.3928C143.256 96.191 144.253 96.5901 145.049 96.3905L144.452 96.5901C143.456 96.9892 143.057 98.1865 143.456 99.1842C143.655 99.7829 144.253 100.182 144.85 100.182C144.053 100.781 143.854 101.778 144.253 102.577C144.651 103.574 145.846 103.973 146.843 103.574L152.82 100.781C153.816 100.382 154.215 99.3838 153.816 98.1865Z" fill="#626262"/>
<path opacity="0.4" d="M94.0419 61.8686C93.2449 63.0659 91.651 63.465 90.4555 62.8664C90.0571 62.6668 89.4593 62.4673 89.0608 62.2677C83.4821 60.0727 77.5048 61.4695 75.9109 65.66C75.5124 66.6578 74.1177 66.4582 74.1177 65.4605C73.9184 64.0636 74.1177 62.4673 74.7154 61.0704C76.7078 55.6826 83.2828 53.288 89.4593 55.6826C91.0533 56.2813 92.448 57.279 93.6434 58.2767C94.6396 59.2745 94.6396 60.6713 94.0419 61.8686Z" fill="#797979"/>
<path opacity="0.4" d="M74.9147 92.398C78.8995 94.3935 87.0685 96.9876 92.0495 97.3867C93.0457 97.5863 93.4442 98.3845 93.245 99.3822C89.8578 107.364 87.0685 115.346 86.0722 118.339C85.873 119.138 85.076 119.537 84.4783 119.337C80.892 118.339 70.9298 115.546 66.945 113.949C66.148 113.75 65.9488 112.952 66.148 112.153C69.5352 103.772 71.9261 96.389 72.9223 93.1962C73.3207 92.398 74.317 91.9989 74.9147 92.398Z" fill="#535353"/>
<path d="M129.508 108.562C128.512 108.761 127.516 108.961 126.52 109.161C124.926 106.766 123.93 103.573 124.129 100.38C124.328 98.5845 124.926 95.9904 126.121 93.9949C127.117 94.1944 128.114 94.1944 129.11 94.1944C127.914 95.9904 126.918 98.5845 126.719 100.58C126.52 103.573 127.715 106.766 129.508 108.562Z" fill="#535353"/>
<path d="M58.7767 82.6223C55.1904 85.0168 52.0025 88.0101 49.2131 91.4024C48.6154 90.8038 47.8184 90.0056 47.2207 89.4069C49.8109 86.2141 52.9987 83.4205 56.3858 81.0259L58.7767 82.6223Z" fill="#535353"/>
<g filter="url(#filter0_d_801_17570)">
<path d="M188.282 61.469C169.553 55.283 161.782 78.8297 142.655 68.8523L135.881 35.7272C156.602 44.5074 164.572 24.5525 181.507 28.3439L188.282 61.469Z" fill="url(#paint0_linear_801_17570)"/>
</g>
<defs>
<filter id="filter0_d_801_17570" x="80.1631" y="-1.14441e-05" width="163.836" height="154.927" filterUnits="userSpaceOnUse" color-interpolation-filters="sRGB">
<feFlood flood-opacity="0" result="BackgroundImageFix"/>
<feColorMatrix in="SourceAlpha" type="matrix" values="0 0 0 0 0 0 0 0 0 0 0 0 0 0 0 0 0 0 127 0" result="hardAlpha"/>
<feOffset dy="27.8589"/>
<feGaussianBlur stdDeviation="27.8589"/>
<feColorMatrix type="matrix" values="0 0 0 0 0.397708 0 0 0 0 0.47749 0 0 0 0 0.575 0 0 0 0.27 0"/>
<feBlend mode="normal" in2="BackgroundImageFix" result="effect1_dropShadow_801_17570"/>
<feBlend mode="normal" in="SourceGraphic" in2="effect1_dropShadow_801_17570" result="shape"/>
</filter>
<linearGradient id="paint0_linear_801_17570" x1="166.471" y1="89.4526" x2="123.724" y2="37.9488" gradientUnits="userSpaceOnUse">
<stop stop-color="#FB432C"/>
<stop offset="1" stop-color="#FF591E"/>
</linearGradient>
</defs>
</svg>
