<svg width="140" height="28" viewBox="0 0 140 28" fill="none" xmlns="http://www.w3.org/2000/svg">
<path d="M135.739 4.69262H140V23.2408H135.521L128.857 11.313V23.2408H124.569V4.69262H129.048L135.739 16.7571V4.69262ZM107.69 4.2002C113.835 4.2002 117.468 8.85091 117.468 13.9394C117.468 19.0277 113.808 23.6785 107.69 23.6785C101.518 23.6785 97.8852 19.0277 97.8852 13.9394C97.8852 8.87827 101.545 4.2002 107.69 4.2002ZM113.126 13.9667C113.126 10.93 111.049 8.0849 107.717 8.0849C104.331 8.0849 102.31 10.93 102.31 13.9667C102.31 17.0033 104.358 19.8485 107.717 19.8485C111.049 19.8211 113.126 17.0033 113.126 13.9667ZM38.5369 8.38584V4.69262H51.2095V8.38584H47.0035V23.2134H42.7155V8.38584H38.5369ZM83.9293 12.3526H90.9482V15.7176H83.9566V19.7937H90.9482V23.2408H79.6684V4.69262H90.9482V8.13962H83.9566V12.3526H83.9293ZM65.6301 4.69262C69.7269 4.69262 72.3758 7.78398 72.3758 11.3951C72.3758 13.994 71.0108 16.2921 68.689 17.3863L72.4031 23.2408H67.4327L64.1553 18.0976H62.1342V23.2408H57.8462V4.69262H65.6301ZM68.0336 11.3951C68.0336 9.67162 66.8592 8.19434 65.0839 8.19434H62.1615V14.5959H65.0839C66.8865 14.5959 68.0336 13.1186 68.0336 11.3951ZM30.1522 20.9701H23.5701L22.8599 23.2134H18.2988L24.9083 4.66526H28.8412L35.5326 23.2134H30.8896L30.1522 20.9701ZM26.8748 9.97256L24.6079 17.6052H29.1143L26.8748 9.97256ZM7.75656 4.69262C11.8533 4.69262 14.5025 7.78398 14.5025 11.3951C14.5025 15.0062 11.8533 18.0976 7.75656 18.0976H4.28794V23.2408H0V4.69262H7.75656ZM10.1873 11.3951C10.1873 9.67162 9.01285 8.19434 7.23758 8.19434H4.28794V14.5959H7.21028C9.01285 14.5959 10.1873 13.1186 10.1873 11.3951Z" fill="black"/>
</svg>
