<svg width="185" height="42" viewBox="0 0 185 42" fill="none" xmlns="http://www.w3.org/2000/svg">
<path d="M114.948 26.3945L101.295 8.60517H97.8911V32.4518H101.341V14.1771L115.383 32.4518H118.398V8.60517H114.948V26.3945ZM80.5656 21.9705H92.8036V18.8718H80.5563V11.6945H94.3669V8.59584H77.0413V32.4518H94.5426V29.3531H80.5563L80.5656 21.9705ZM66.1726 18.9465C61.4088 17.7891 60.0768 16.8745 60.0768 14.6531C60.0768 12.6558 61.8251 11.3025 64.4336 11.3025C66.8091 11.3727 69.1003 12.2065 70.9733 13.6825L72.8233 11.0411C70.4521 9.16563 67.5105 8.17626 64.4983 8.24117C59.8178 8.24117 56.5526 11.0411 56.5526 15.0265C56.5526 19.3198 59.3276 20.8038 64.3781 22.0451C68.8736 23.0905 70.2518 24.0611 70.2518 26.2358C70.2518 28.4105 68.4018 29.7545 65.5436 29.7545C62.698 29.7413 59.9599 28.6562 57.8661 26.7118L55.7848 29.2225C58.4667 31.5477 61.8874 32.8229 65.4233 32.8158C70.4923 32.8158 73.7483 30.0625 73.7483 25.8065C73.7206 22.2038 71.6116 20.2718 66.1726 18.9465ZM180.975 8.60517L173.861 19.8051L166.794 8.60517H162.669L172.002 23.0251V32.4611H175.554V22.9131L184.952 8.60517H180.975ZM121.192 11.8345H128.934V32.4611H132.486V11.8345H140.228V8.60517H121.201L121.192 11.8345ZM156.656 23.1465C160.227 22.1478 162.206 19.6278 162.206 16.0251C162.206 11.4425 158.886 8.55851 153.53 8.55851H143.022V32.4425H146.537V23.8745H152.503L158.497 32.4611H162.604L156.129 23.2958L156.656 23.1465ZM146.528 20.8131V11.7598H153.16C156.619 11.7598 158.599 13.4118 158.599 16.2771C158.599 19.1425 156.481 20.8131 153.197 20.8131H146.528ZM26.7768 2.10917C26.3925 1.46567 25.8499 0.933306 25.2016 0.563753C24.5533 0.194199 23.8214 0 23.0768 0C22.3322 0 21.6002 0.194199 20.952 0.563753C20.3037 0.933306 19.7611 1.46567 19.3768 2.10917L13.2903 12.6278C17.9401 14.9702 21.9018 18.4991 24.7821 22.8641C27.6623 27.2291 29.3608 32.2783 29.7091 37.5105H25.4356C25.088 33.0255 23.5858 28.7099 21.0776 24.9907C18.5694 21.2714 15.1422 18.2776 11.1351 16.3051L5.5018 26.1331C7.75448 27.1525 9.71696 28.7271 11.2089 30.7119C12.7008 32.6967 13.6742 35.0282 14.0396 37.4918H4.2253C4.1089 37.4835 3.99639 37.4461 3.89789 37.383C3.79941 37.3199 3.71805 37.233 3.66115 37.1301C3.60424 37.0274 3.5736 36.9119 3.57196 36.7942C3.57033 36.6765 3.59777 36.5602 3.6518 36.4558L6.3713 31.7891C5.44993 31.0135 4.39693 30.4128 3.2633 30.0158L0.571542 34.6825C0.291318 35.1675 0.109399 35.7038 0.0363513 36.2604C-0.0366957 36.8169 0.000586477 37.3825 0.146032 37.9244C0.291477 38.4662 0.542187 38.9736 0.883596 39.4168C1.225 39.8601 1.65031 40.2305 2.1348 40.5065C2.77313 40.8695 3.49261 41.0622 4.2253 41.0665H17.6656C17.9151 37.9586 17.3651 34.8383 16.0687 32.0077C14.7722 29.1773 12.7732 26.7326 10.2656 24.9105L12.4023 21.1771C15.5671 23.3705 18.1104 26.3585 19.7812 29.8464C21.4521 33.3344 22.1926 37.2016 21.9298 41.0665H33.3166C33.5817 35.2117 32.3193 29.3892 29.6557 24.1809C26.992 18.9725 23.0202 14.5607 18.1373 11.3865L22.4571 3.91984C22.5533 3.75711 22.7093 3.63934 22.8913 3.59214C23.0731 3.54494 23.2662 3.57216 23.4283 3.66784C23.9186 3.93851 42.1966 36.1198 42.5388 36.4931C42.599 36.6023 42.6298 36.7255 42.6277 36.8503C42.6257 36.9752 42.591 37.0974 42.5272 37.2044C42.4633 37.3114 42.3726 37.3995 42.2642 37.4599C42.1558 37.5202 42.0336 37.5505 41.9098 37.5478H37.5068C37.5623 38.7363 37.5623 39.9217 37.5068 41.1038H41.9283C42.4897 41.1075 43.0464 40.9989 43.5659 40.7841C44.0854 40.5693 44.5575 40.2526 44.955 39.8525C45.3525 39.4523 45.6673 38.9766 45.8813 38.4529C46.0954 37.9291 46.2042 37.3677 46.2018 36.8011C46.2024 36.0529 46.0043 35.3182 45.6283 34.6731L26.7768 2.10917Z" fill="black"/>
</svg>
