<svg width="650" height="456" viewBox="0 0 650 456" fill="none" xmlns="http://www.w3.org/2000/svg">
<g filter="url(#filter0_d_801_16148)">
<rect x="59.0293" y="53.1265" width="531" height="337" rx="24" fill="white"/>
<rect width="529" height="42" transform="translate(60.0293 54.1265)" fill="#CECECE"/>
<path d="M274.949 79.2688C273.397 79.2688 272.363 78.2946 272.363 76.8183C272.363 75.3795 273.397 74.5252 275.248 74.4278L277.482 74.3154V73.5809C277.482 72.5618 276.86 71.9997 275.728 71.9997C274.791 71.9997 274.132 72.3969 273.922 73.0938H272.67C272.82 71.7899 274.079 70.8981 275.743 70.8981C277.654 70.8981 278.748 71.8723 278.748 73.566V79.134H277.534V77.9124H277.407C277.017 78.7817 276.133 79.2688 274.949 79.2688ZM275.316 78.1523C276.545 78.1523 277.482 77.3354 277.482 76.2488V75.2896L275.391 75.387C274.252 75.4394 273.652 75.9266 273.652 76.7734C273.652 77.6277 274.289 78.1523 275.316 78.1523ZM285.386 70.8606C287.267 70.8606 288.496 72.2171 288.496 74.3079V75.8216C288.496 77.905 287.267 79.2614 285.386 79.2614C284.21 79.2614 283.348 78.7593 282.996 77.8675H282.853V81.8692H281.557V70.9955H282.816V72.2395H282.951C283.378 71.3403 284.225 70.8606 285.386 70.8606ZM285.019 72.0297C283.678 72.0297 282.823 72.9889 282.823 74.4877V75.6568C282.823 77.1631 283.678 78.1223 285.019 78.1223C286.36 78.1223 287.215 77.1556 287.215 75.6568V74.4877C287.215 72.9889 286.36 72.0297 285.019 72.0297ZM294.123 69.0022C293.523 69.0022 293.066 68.5525 293.066 67.953C293.066 67.361 293.523 66.9113 294.123 66.9113C294.722 66.9113 295.179 67.361 295.179 67.953C295.179 68.5525 294.722 69.0022 294.123 69.0022ZM297.532 79.1265H290.795V78.0698H293.583V72.0522H290.818V70.9955H294.842V78.0698H297.532V79.1265ZM303.084 79.1714C302.342 79.1714 301.727 78.5494 301.727 77.785C301.727 77.0282 302.342 76.4062 303.084 76.4062C303.826 76.4062 304.44 77.0282 304.44 77.785C304.44 78.5494 303.826 79.1714 303.084 79.1714ZM315.575 73.5285H314.316C314.158 72.5768 313.364 71.9772 312.315 71.9772C310.899 71.9772 310.112 72.944 310.112 74.6901V75.4245C310.112 77.1705 310.899 78.1298 312.315 78.1298C313.364 78.1298 314.158 77.5377 314.316 76.6085H315.575C315.372 78.2647 314.136 79.2763 312.337 79.2763C310.127 79.2763 308.838 77.9199 308.838 75.5893V74.5252C308.838 72.1946 310.127 70.8382 312.337 70.8382C314.136 70.8382 315.365 71.8573 315.575 73.5285ZM317.956 79.1265V67.8031H319.185V72.4344H319.29C319.717 71.4227 320.654 70.8532 321.898 70.8532C323.667 70.8532 324.626 71.9173 324.626 73.8582V79.1265H323.352V74.1805C323.352 72.7191 322.752 72.0222 321.478 72.0222C320.137 72.0222 319.23 72.959 319.23 74.3453V79.1265H317.956ZM332.591 77.0282H333.827C333.58 78.3696 332.291 79.2763 330.582 79.2763C328.349 79.2763 327.052 77.9349 327.052 75.6193V74.3978C327.052 72.2545 328.424 70.8457 330.492 70.8457C332.605 70.8457 333.849 72.247 333.849 74.6001V75.3945H328.311V75.7242C328.311 77.2155 329.196 78.1747 330.582 78.1747C331.609 78.1747 332.366 77.7401 332.591 77.0282ZM330.485 71.9398C329.128 71.9398 328.311 72.869 328.311 74.4278H332.591C332.591 72.8765 331.796 71.9398 330.485 71.9398ZM342.886 73.5285H341.627C341.469 72.5768 340.675 71.9772 339.626 71.9772C338.209 71.9772 337.423 72.944 337.423 74.6901V75.4245C337.423 77.1705 338.209 78.1298 339.626 78.1298C340.675 78.1298 341.469 77.5377 341.627 76.6085H342.886C342.683 78.2647 341.447 79.2763 339.648 79.2763C337.438 79.2763 336.149 77.9199 336.149 75.5893V74.5252C336.149 72.1946 337.438 70.8382 339.648 70.8382C341.447 70.8382 342.676 71.8573 342.886 73.5285ZM347.246 74.6451L350.79 70.9955H352.334L349.179 74.2179L352.559 79.1265H351.045L348.272 75.0872L347.148 76.1664V79.1265H345.874V67.8031H347.148V74.6451H347.246ZM357.706 79.1714C356.964 79.1714 356.349 78.5494 356.349 77.785C356.349 77.0282 356.964 76.4062 357.706 76.4062C358.448 76.4062 359.062 77.0282 359.062 77.785C359.062 78.5494 358.448 79.1714 357.706 79.1714ZM365.423 68.8148H366.682V71.018H369.979V72.1046H366.697V76.6909C366.697 77.5752 367.319 78.0548 368.465 78.0548C368.923 78.0548 369.739 78.0323 369.957 78.0099V79.089C369.754 79.1265 368.765 79.1639 368.376 79.1639C366.36 79.1639 365.423 78.3996 365.423 76.7059V72.1046H363.257V71.018H365.423V68.8148ZM372.953 73.1913C372.953 71.7824 374.152 70.8382 375.943 70.8382C377.637 70.8382 378.783 71.685 378.933 73.0414H377.704C377.554 72.3295 376.872 71.8948 375.92 71.8948C374.886 71.8948 374.219 72.3744 374.219 73.1163C374.219 73.7383 374.639 74.0905 375.658 74.3154L376.805 74.5776C378.386 74.9374 379.105 75.6268 379.105 76.8033C379.105 78.3021 377.854 79.2763 375.928 79.2763C374.084 79.2763 372.863 78.4145 372.721 77.0207H374.017C374.204 77.7701 374.924 78.2047 375.973 78.2047C377.082 78.2047 377.786 77.7026 377.786 76.9232C377.786 76.2788 377.389 75.934 376.355 75.7017L375.149 75.4245C373.68 75.0872 372.953 74.3453 372.953 73.1913Z" fill="#2F343C"/>
<rect x="79.0293" y="69.1265" width="12" height="12" rx="6" fill="#0D0D0D" fill-opacity="0.4"/>
<rect x="96.0293" y="69.1265" width="12" height="12" rx="6" fill="#0D0D0D" fill-opacity="0.4"/>
<rect x="112.029" y="69.1265" width="12" height="12" rx="6" fill="#0D0D0D" fill-opacity="0.4"/>
<path d="M91.4633 134.126V125.894H92.7001V127.343H92.8063C93.2464 126.319 94.1872 125.742 95.4391 125.742C97.2298 125.742 98.201 126.812 98.201 128.785V134.126H96.9111V129.111C96.9111 127.624 96.3041 126.926 95.0218 126.926C93.6637 126.926 92.7532 127.874 92.7532 129.278V134.126H91.4633ZM106.272 132.002H107.524C107.274 133.36 105.969 134.278 104.239 134.278C101.978 134.278 100.665 132.92 100.665 130.576V129.339C100.665 127.169 102.054 125.742 104.148 125.742C106.288 125.742 107.547 127.161 107.547 129.544V130.348H101.94V130.682C101.94 132.192 102.835 133.163 104.239 133.163C105.279 133.163 106.045 132.723 106.272 132.002ZM104.14 126.85C102.767 126.85 101.94 127.791 101.94 129.369H106.272C106.272 127.799 105.468 126.85 104.14 126.85ZM99.2784 145.894L97.5105 154.126H96.2738L94.8777 147.707H94.7866L93.3905 154.126H92.1538L90.3859 145.894H91.6454L92.7608 152.495H92.8973L94.2251 145.902H95.4391L96.7669 152.495H96.9035L98.0189 145.894H99.2784Z" fill="#0D0D0D"/>
<path d="M134.662 144.126L133.714 140.985H129.905L128.949 144.126H127.591L131.119 133.178H132.545L136.074 144.126H134.662ZM131.794 134.786L130.254 139.84H133.365L131.832 134.786H131.794ZM141.565 135.758C143.47 135.758 144.714 137.131 144.714 139.248V140.78C144.714 142.89 143.47 144.263 141.565 144.263C140.374 144.263 139.502 143.755 139.145 142.852H139.001V146.903H137.688V135.894H138.963V137.154H139.099C139.532 136.243 140.389 135.758 141.565 135.758ZM141.194 136.941C139.835 136.941 138.97 137.912 138.97 139.43V140.613C138.97 142.139 139.835 143.11 141.194 143.11C142.552 143.11 143.417 142.131 143.417 140.613V139.43C143.417 137.912 142.552 136.941 141.194 136.941ZM150.411 133.876C149.804 133.876 149.341 133.421 149.341 132.814C149.341 132.214 149.804 131.759 150.411 131.759C151.018 131.759 151.481 132.214 151.481 132.814C151.481 133.421 151.018 133.876 150.411 133.876ZM153.863 144.126H147.042V143.057H149.864V136.964H147.065V135.894H151.139V143.057H153.863V144.126ZM159.734 143.087C161.191 143.087 162.117 142.214 162.155 140.803H163.505C163.505 142.92 161.972 144.354 159.734 144.354C157.162 144.354 155.667 142.617 155.667 139.627V137.677C155.667 134.688 157.162 132.95 159.734 132.95C162.041 132.95 163.467 134.354 163.513 136.691H162.155C162.109 135.211 161.13 134.217 159.727 134.217C157.959 134.217 157.033 135.409 157.033 137.677V139.627C157.033 141.896 157.959 143.087 159.734 143.087ZM165.325 144.126V132.662H166.569V137.351H166.675C167.108 136.327 168.056 135.75 169.316 135.75C171.106 135.75 172.077 136.827 172.077 138.792V144.126H170.788V139.119C170.788 137.639 170.181 136.934 168.891 136.934C167.533 136.934 166.614 137.882 166.614 139.286V144.126H165.325ZM180.141 142.002H181.393C181.143 143.36 179.838 144.278 178.108 144.278C175.847 144.278 174.534 142.92 174.534 140.576V139.339C174.534 137.169 175.923 135.742 178.017 135.742C180.157 135.742 181.416 137.161 181.416 139.544V140.348H175.809V140.682C175.809 142.192 176.704 143.163 178.108 143.163C179.147 143.163 179.914 142.723 180.141 142.002ZM178.009 136.85C176.636 136.85 175.809 137.791 175.809 139.369H180.141C180.141 137.799 179.337 136.85 178.009 136.85ZM190.565 138.459H189.29C189.131 137.495 188.327 136.888 187.264 136.888C185.83 136.888 185.034 137.867 185.034 139.635V140.378C185.034 142.146 185.83 143.117 187.264 143.117C188.327 143.117 189.131 142.518 189.29 141.577H190.565C190.36 143.254 189.108 144.278 187.287 144.278C185.049 144.278 183.744 142.905 183.744 140.545V139.468C183.744 137.108 185.049 135.735 187.287 135.735C189.108 135.735 190.353 136.767 190.565 138.459ZM194.979 139.589L198.568 135.894H200.131L196.937 139.157L200.359 144.126H198.826L196.019 140.037L194.881 141.129V144.126H193.591V132.662H194.881V139.589H194.979Z" fill="#00B51D"/>
<path d="M203.916 138.648C203.916 136.076 204.69 133.838 206.2 132.123H207.482C205.911 134.331 205.251 136.266 205.251 138.648C205.251 141.031 205.911 142.966 207.482 145.174H206.2C204.69 143.459 203.916 141.228 203.916 138.648ZM356.004 145.166H354.973C353.129 145.166 352.545 144.582 352.545 142.708V141.008C352.545 139.84 351.862 139.157 350.086 139.339V137.965C351.862 138.148 352.545 137.472 352.545 136.296V134.597C352.545 132.723 353.129 132.138 354.973 132.138H356.004V133.178H355.177C354.039 133.178 353.819 133.443 353.819 134.764V136.789C353.819 137.852 353.023 138.557 351.482 138.595V138.717C353.023 138.747 353.819 139.453 353.819 140.515V142.541C353.819 143.861 354.039 144.126 355.177 144.126H356.004V145.166Z" fill="#EEEEEE"/>
<path d="M215.478 138.117H214.097V133.178H215.478V138.117ZM220.628 144.126V132.662H221.872V137.351H221.978C222.411 136.327 223.359 135.75 224.619 135.75C226.41 135.75 227.381 136.827 227.381 138.792V144.126H226.091V139.119C226.091 137.639 225.484 136.934 224.194 136.934C222.836 136.934 221.918 137.882 221.918 139.286V144.126H220.628ZM235.445 142.002H236.697C236.446 143.36 235.141 144.278 233.411 144.278C231.15 144.278 229.838 142.92 229.838 140.576V139.339C229.838 137.169 231.226 135.742 233.32 135.742C235.46 135.742 236.719 137.161 236.719 139.544V140.348H231.112V140.682C231.112 142.192 232.008 143.163 233.411 143.163C234.451 143.163 235.217 142.723 235.445 142.002ZM233.313 136.85C231.939 136.85 231.112 137.791 231.112 139.369H235.445C235.445 137.799 234.64 136.85 233.313 136.85ZM246.035 144.126H239.214V143.057H242.029V133.732H239.237V132.662H243.319V143.057H246.035V144.126ZM255.252 144.126H248.431V143.057H251.246V133.732H248.454V132.662H252.536V143.057H255.252V144.126ZM260.873 144.278C258.696 144.278 257.307 142.859 257.307 140.636V139.392C257.307 137.169 258.696 135.75 260.873 135.75C263.051 135.75 264.439 137.169 264.439 139.392V140.636C264.439 142.859 263.051 144.278 260.873 144.278ZM260.873 136.888C259.462 136.888 258.582 137.89 258.582 139.506V140.515C258.582 142.139 259.462 143.133 260.873 143.133C262.284 143.133 263.165 142.139 263.165 140.515V139.506C263.165 137.89 262.284 136.888 260.873 136.888ZM274.104 139.87H266.077V138.671H274.104V139.87ZM278.473 144.271C276.902 144.271 275.855 143.284 275.855 141.79C275.855 140.333 276.902 139.468 278.776 139.369L281.038 139.255V138.512C281.038 137.48 280.408 136.911 279.262 136.911C278.314 136.911 277.646 137.313 277.433 138.019H276.166C276.318 136.698 277.593 135.795 279.277 135.795C281.212 135.795 282.32 136.782 282.32 138.497V144.134H281.091V142.897H280.962C280.567 143.777 279.672 144.271 278.473 144.271ZM278.845 143.14C280.089 143.14 281.038 142.313 281.038 141.213V140.242L278.921 140.34C277.767 140.393 277.16 140.887 277.16 141.744C277.16 142.609 277.805 143.14 278.845 143.14ZM289.041 135.758C290.945 135.758 292.19 137.131 292.19 139.248V140.78C292.19 142.89 290.945 144.263 289.041 144.263C287.85 144.263 286.977 143.755 286.62 142.852H286.476V146.903H285.164V135.894H286.438V137.154H286.575C287.007 136.243 287.865 135.758 289.041 135.758ZM288.669 136.941C287.311 136.941 286.446 137.912 286.446 139.43V140.613C286.446 142.139 287.311 143.11 288.669 143.11C290.027 143.11 290.892 142.131 290.892 140.613V139.43C290.892 137.912 290.027 136.941 288.669 136.941ZM297.886 133.876C297.279 133.876 296.816 133.421 296.816 132.814C296.816 132.214 297.279 131.759 297.886 131.759C298.493 131.759 298.956 132.214 298.956 132.814C298.956 133.421 298.493 133.876 297.886 133.876ZM301.338 144.126H294.517V143.057H297.34V136.964H294.54V135.894H298.615V143.057H301.338V144.126ZM310.973 139.87H302.945V138.671H310.973V139.87ZM320.312 144.126H312.679V142.95H315.911V134.695H315.789L312.656 136.721V135.295L315.918 133.178H317.231V142.95H320.312V144.126ZM326.084 138.117H324.703V133.178H326.084V138.117Z" fill="#FD4B28"/>
<path d="M333.92 146.645H332.699L333.64 141.714H335.347L333.92 146.645Z" fill="white"/>
<path d="M109.898 165.126V156.894H111.135V158.343H111.241C111.681 157.319 112.622 156.742 113.874 156.742C115.664 156.742 116.635 157.812 116.635 159.785V165.126H115.346V160.111C115.346 158.624 114.739 157.926 113.456 157.926C112.098 157.926 111.188 158.874 111.188 160.278V165.126H109.898ZM121.649 165.271C120.079 165.271 119.032 164.284 119.032 162.79C119.032 161.333 120.079 160.468 121.953 160.369L124.214 160.255V159.512C124.214 158.48 123.584 157.911 122.438 157.911C121.49 157.911 120.822 158.313 120.61 159.019H119.343C119.494 157.698 120.769 156.795 122.453 156.795C124.388 156.795 125.496 157.782 125.496 159.497V165.134H124.267V163.897H124.138C123.743 164.777 122.848 165.271 121.649 165.271ZM122.021 164.14C123.265 164.14 124.214 163.313 124.214 162.213V161.242L122.097 161.34C120.944 161.393 120.337 161.887 120.337 162.744C120.337 163.609 120.981 164.14 122.021 164.14ZM135.669 159.064V165.126H134.508V159.443C134.508 158.442 134.144 157.918 133.454 157.918C132.733 157.918 132.293 158.548 132.293 159.572V165.126H131.14V159.436C131.14 158.442 130.775 157.918 130.077 157.918C129.349 157.918 128.894 158.548 128.894 159.572V165.126H127.733V156.894H128.886V158.055H129.023C129.228 157.228 129.819 156.742 130.593 156.742C131.367 156.742 131.913 157.22 132.088 158.032H132.225C132.437 157.243 133.097 156.742 133.924 156.742C135.07 156.742 135.669 157.539 135.669 159.064ZM143.141 163.002H144.393C144.143 164.36 142.838 165.278 141.108 165.278C138.847 165.278 137.534 163.92 137.534 161.576V160.339C137.534 158.169 138.923 156.742 141.017 156.742C143.157 156.742 144.416 158.161 144.416 160.544V161.348H138.809V161.682C138.809 163.192 139.704 164.163 141.108 164.163C142.147 164.163 142.914 163.723 143.141 163.002ZM141.009 157.85C139.636 157.85 138.809 158.791 138.809 160.369H143.141C143.141 158.799 142.337 157.85 141.009 157.85Z" fill="#EEEEEE"/>
<path d="M150.135 159.345C149.384 159.345 148.762 158.707 148.762 157.941C148.762 157.175 149.384 156.537 150.135 156.537C150.887 156.537 151.509 157.175 151.509 157.941C151.509 158.707 150.887 159.345 150.135 159.345ZM150.135 165.172C149.384 165.172 148.762 164.542 148.762 163.768C148.762 163.002 149.384 162.372 150.135 162.372C150.887 162.372 151.509 163.002 151.509 163.768C151.509 164.542 150.887 165.172 150.135 165.172Z" fill="white"/>
<path d="M169.523 159.117H168.142V154.178H169.523V159.117ZM181.691 165.126H180.364V160.149H175.735V165.126H174.407V154.178H175.735V158.92H180.364V154.178H181.691V165.126ZM189.49 163.002H190.742C190.491 164.36 189.186 165.278 187.456 165.278C185.195 165.278 183.883 163.92 183.883 161.576V160.339C183.883 158.169 185.271 156.742 187.365 156.742C189.505 156.742 190.764 158.161 190.764 160.544V161.348H185.157V161.682C185.157 163.192 186.053 164.163 187.456 164.163C188.496 164.163 189.262 163.723 189.49 163.002ZM187.358 157.85C185.984 157.85 185.157 158.791 185.157 160.369H189.49C189.49 158.799 188.685 157.85 187.358 157.85ZM200.08 165.126H193.259V164.057H196.074V154.732H193.282V153.662H197.364V164.057H200.08V165.126ZM209.297 165.126H202.476V164.057H205.291V154.732H202.499V153.662H206.581V164.057H209.297V165.126ZM214.918 165.278C212.741 165.278 211.352 163.859 211.352 161.636V160.392C211.352 158.169 212.741 156.75 214.918 156.75C217.096 156.75 218.484 158.169 218.484 160.392V161.636C218.484 163.859 217.096 165.278 214.918 165.278ZM214.918 157.888C213.507 157.888 212.627 158.89 212.627 160.506V161.515C212.627 163.139 213.507 164.133 214.918 164.133C216.329 164.133 217.21 163.139 217.21 161.515V160.506C217.21 158.89 216.329 157.888 214.918 157.888ZM236.183 165.126L235.234 161.985H231.425L230.469 165.126H229.111L232.639 154.178H234.066L237.594 165.126H236.183ZM233.315 155.786L231.774 160.84H234.885L233.353 155.786H233.315ZM239.269 154.178H242.911C245.036 154.178 246.424 155.566 246.424 157.691C246.424 159.808 245.021 161.196 242.881 161.196H240.612V165.126H239.269V154.178ZM240.612 155.369V160.005H242.577C244.171 160.005 245.066 159.178 245.066 157.691C245.066 156.196 244.171 155.369 242.577 155.369H240.612ZM254.67 165.126H248.904V163.935H251.119V155.369H248.904V154.178H254.67V155.369H252.455V163.935H254.67V165.126ZM261.695 159.117H260.314V154.178H261.695V159.117Z" fill="#FD4B28"/>
<path d="M269.531 167.645H268.309L269.25 162.714H270.957L269.531 167.645Z" fill="white"/>
<path d="M112.432 185.271C110.861 185.271 109.814 184.284 109.814 182.79C109.814 181.333 110.861 180.468 112.735 180.369L114.997 180.255V179.512C114.997 178.48 114.367 177.911 113.221 177.911C112.273 177.911 111.605 178.313 111.392 179.019H110.125C110.277 177.698 111.552 176.795 113.236 176.795C115.171 176.795 116.279 177.782 116.279 179.497V185.134H115.05V183.897H114.921C114.526 184.777 113.631 185.271 112.432 185.271ZM112.804 184.14C114.048 184.14 114.997 183.313 114.997 182.213V181.242L112.88 181.34C111.726 181.393 111.119 181.887 111.119 182.744C111.119 183.609 111.764 184.14 112.804 184.14ZM125.913 179.459H124.639C124.479 178.495 123.675 177.888 122.613 177.888C121.179 177.888 120.382 178.867 120.382 180.635V181.378C120.382 183.146 121.179 184.117 122.613 184.117C123.675 184.117 124.479 183.518 124.639 182.577H125.913C125.708 184.254 124.457 185.278 122.636 185.278C120.397 185.278 119.092 183.905 119.092 181.545V180.468C119.092 178.108 120.397 176.735 122.636 176.735C124.457 176.735 125.701 177.767 125.913 179.459ZM130.297 174.686H131.572V176.917H134.91V178.017H131.587V182.661C131.587 183.556 132.217 184.041 133.378 184.041C133.841 184.041 134.668 184.019 134.888 183.996V185.089C134.683 185.126 133.681 185.164 133.287 185.164C131.246 185.164 130.297 184.39 130.297 182.676V178.017H128.105V176.917H130.297V174.686ZM141.062 174.876C140.455 174.876 139.993 174.421 139.993 173.814C139.993 173.214 140.455 172.759 141.062 172.759C141.669 172.759 142.132 173.214 142.132 173.814C142.132 174.421 141.669 174.876 141.062 174.876ZM144.515 185.126H137.694V184.057H140.516V177.964H137.716V176.894H141.791V184.057H144.515V185.126ZM146.418 176.894H147.799L150.097 183.746H150.196L152.48 176.894H153.853L150.849 185.126H149.43L146.418 176.894ZM158.518 185.271C156.947 185.271 155.9 184.284 155.9 182.79C155.9 181.333 156.947 180.468 158.822 180.369L161.083 180.255V179.512C161.083 178.48 160.453 177.911 159.307 177.911C158.359 177.911 157.691 178.313 157.479 179.019H156.211C156.363 177.698 157.638 176.795 159.322 176.795C161.257 176.795 162.365 177.782 162.365 179.497V185.134H161.136V183.897H161.007C160.612 184.777 159.717 185.271 158.518 185.271ZM158.89 184.14C160.134 184.14 161.083 183.313 161.083 182.213V181.242L158.966 181.34C157.812 181.393 157.205 181.887 157.205 182.744C157.205 183.609 157.85 184.14 158.89 184.14ZM167.166 174.686H168.441V176.917H171.779V178.017H168.456V182.661C168.456 183.556 169.086 184.041 170.247 184.041C170.71 184.041 171.537 184.019 171.757 183.996V185.089C171.552 185.126 170.55 185.164 170.156 185.164C168.115 185.164 167.166 184.39 167.166 182.676V178.017H164.973V176.917H167.166V174.686ZM180.01 183.002H181.262C181.012 184.36 179.707 185.278 177.977 185.278C175.716 185.278 174.403 183.92 174.403 181.576V180.339C174.403 178.169 175.792 176.742 177.886 176.742C180.025 176.742 181.285 178.161 181.285 180.544V181.348H175.678V181.682C175.678 183.192 176.573 184.163 177.977 184.163C179.016 184.163 179.783 183.723 180.01 183.002ZM177.878 177.85C176.505 177.85 175.678 178.791 175.678 180.369H180.01C180.01 178.799 179.206 177.85 177.878 177.85ZM186.488 185.263C184.584 185.263 183.34 183.89 183.34 181.773V180.24C183.34 178.131 184.584 176.758 186.488 176.758C187.68 176.758 188.56 177.266 188.916 178.169H189.053V173.662H190.366V185.126H189.098V183.867H188.954C188.529 184.777 187.664 185.263 186.488 185.263ZM186.868 184.087C188.218 184.087 189.091 183.116 189.091 181.591V180.407C189.091 178.89 188.218 177.918 186.868 177.918C185.51 177.918 184.637 178.89 184.637 180.407V181.591C184.637 183.108 185.51 184.087 186.868 184.087Z" fill="#EEEEEE"/>
<path d="M196.222 179.345C195.47 179.345 194.848 178.707 194.848 177.941C194.848 177.175 195.47 176.537 196.222 176.537C196.973 176.537 197.595 177.175 197.595 177.941C197.595 178.707 196.973 179.345 196.222 179.345ZM196.222 185.172C195.47 185.172 194.848 184.542 194.848 183.768C194.848 183.002 195.47 182.372 196.222 182.372C196.973 182.372 197.595 183.002 197.595 183.768C197.595 184.542 196.973 185.172 196.222 185.172Z" fill="white"/>
<path d="M213.428 174.686H214.703V176.917H218.042V178.017H214.718V182.661C214.718 183.556 215.348 184.041 216.509 184.041C216.972 184.041 217.799 184.019 218.019 183.996V185.089C217.814 185.126 216.812 185.164 216.418 185.164C214.377 185.164 213.428 184.39 213.428 182.676V178.017H211.236V176.917H213.428V174.686ZM223.723 181.439V184.095H226.272V185.126H220.802V184.095H222.464V177.926H220.635V176.894H223.708V178.996H223.875C224.178 177.471 225.203 176.682 226.788 176.682C227.259 176.682 227.707 176.75 227.98 176.864V178.313C227.6 178.176 227.069 178.085 226.621 178.085C224.801 178.085 223.723 179.345 223.723 181.439ZM236.635 176.894V185.126H235.399V183.677H235.292C234.852 184.702 233.912 185.278 232.66 185.278C230.869 185.278 229.898 184.208 229.898 182.236V176.894H231.188V181.909C231.188 183.397 231.795 184.095 233.077 184.095C234.435 184.095 235.346 183.146 235.346 181.742V176.894H236.635ZM244.707 183.002H245.959C245.708 184.36 244.403 185.278 242.673 185.278C240.412 185.278 239.1 183.92 239.1 181.576V180.339C239.1 178.169 240.488 176.742 242.582 176.742C244.722 176.742 245.982 178.161 245.982 180.544V181.348H240.374V181.682C240.374 183.192 241.27 184.163 242.673 184.163C243.713 184.163 244.479 183.723 244.707 183.002ZM242.575 177.85C241.202 177.85 240.374 178.791 240.374 180.369H244.707C244.707 178.799 243.903 177.85 242.575 177.85Z" fill="#00B51D"/>
<path d="M251.011 187.645H249.789L250.73 182.714H252.437L251.011 187.645Z" fill="white"/>
<path d="M112.94 202.439V205.095H115.49V206.126H110.019V205.095H111.681V198.926H109.852V197.894H112.925V199.996H113.092C113.396 198.471 114.42 197.682 116.006 197.682C116.476 197.682 116.924 197.75 117.197 197.864V199.313C116.817 199.176 116.286 199.085 115.839 199.085C114.018 199.085 112.94 200.345 112.94 202.439ZM124.707 204.002H125.959C125.708 205.36 124.403 206.278 122.673 206.278C120.412 206.278 119.1 204.92 119.1 202.576V201.339C119.1 199.169 120.488 197.742 122.582 197.742C124.722 197.742 125.982 199.161 125.982 201.544V202.348H120.374V202.682C120.374 204.192 121.27 205.163 122.673 205.163C123.713 205.163 124.479 204.723 124.707 204.002ZM122.575 198.85C121.202 198.85 120.374 199.791 120.374 201.369H124.707C124.707 199.799 123.903 198.85 122.575 198.85ZM131.185 197.758C132.361 197.758 133.218 198.243 133.651 199.154H133.788V197.894H135.062V208.903H133.75V204.852H133.605C133.249 205.755 132.376 206.263 131.185 206.263C129.281 206.263 128.036 204.89 128.036 202.78V201.248C128.036 199.131 129.281 197.758 131.185 197.758ZM131.557 198.941C130.199 198.941 129.334 199.912 129.334 201.43V202.613C129.334 204.131 130.199 205.11 131.557 205.11C132.915 205.11 133.78 204.139 133.78 202.613V201.43C133.78 199.912 132.915 198.941 131.557 198.941ZM144.287 197.894V206.126H143.05V204.677H142.944C142.504 205.702 141.563 206.278 140.311 206.278C138.521 206.278 137.549 205.208 137.549 203.236V197.894H138.839V202.909C138.839 204.397 139.446 205.095 140.729 205.095C142.087 205.095 142.997 204.146 142.997 202.742V197.894H144.287ZM152.359 204.002H153.61C153.36 205.36 152.055 206.278 150.325 206.278C148.064 206.278 146.751 204.92 146.751 202.576V201.339C146.751 199.169 148.14 197.742 150.234 197.742C152.374 197.742 153.633 199.161 153.633 201.544V202.348H148.026V202.682C148.026 204.192 148.921 205.163 150.325 205.163C151.365 205.163 152.131 204.723 152.359 204.002ZM150.226 198.85C148.853 198.85 148.026 199.791 148.026 201.369H152.359C152.359 199.799 151.554 198.85 150.226 198.85ZM156.356 200.117C156.356 198.691 157.57 197.735 159.383 197.735C161.098 197.735 162.259 198.592 162.41 199.965H161.166C161.014 199.245 160.324 198.805 159.36 198.805C158.313 198.805 157.638 199.29 157.638 200.041C157.638 200.671 158.063 201.028 159.095 201.255L160.256 201.521C161.857 201.885 162.585 202.583 162.585 203.774C162.585 205.292 161.318 206.278 159.368 206.278C157.501 206.278 156.265 205.406 156.12 203.994H157.433C157.623 204.753 158.351 205.193 159.413 205.193C160.536 205.193 161.25 204.685 161.25 203.896C161.25 203.243 160.847 202.894 159.8 202.659L158.579 202.378C157.092 202.037 156.356 201.286 156.356 200.117ZM167.166 195.686H168.441V197.917H171.779V199.017H168.456V203.661C168.456 204.556 169.086 205.041 170.247 205.041C170.71 205.041 171.537 205.019 171.757 204.996V206.089C171.552 206.126 170.55 206.164 170.156 206.164C168.115 206.164 167.166 205.39 167.166 203.676V199.017H164.973V197.917H167.166V195.686ZM199.181 207.166H198.149C196.305 207.166 195.721 206.582 195.721 204.708V203.008C195.721 201.84 195.038 201.157 193.262 201.339V199.965C195.038 200.148 195.721 199.472 195.721 198.296V196.597C195.721 194.723 196.305 194.138 198.149 194.138H199.181V195.178H198.354C197.215 195.178 196.995 195.443 196.995 196.764V198.789C196.995 199.852 196.199 200.557 194.658 200.595V200.717C196.199 200.747 196.995 201.453 196.995 202.515V204.541C196.995 205.861 197.215 206.126 198.354 206.126H199.181V207.166ZM135.669 220.064V226.126H134.508V220.443C134.508 219.442 134.144 218.918 133.454 218.918C132.733 218.918 132.293 219.548 132.293 220.572V226.126H131.14V220.436C131.14 219.442 130.775 218.918 130.077 218.918C129.349 218.918 128.894 219.548 128.894 220.572V226.126H127.733V217.894H128.886V219.055H129.023C129.228 218.228 129.819 217.742 130.593 217.742C131.367 217.742 131.913 218.22 132.088 219.032H132.225C132.437 218.243 133.097 217.742 133.924 217.742C135.07 217.742 135.669 218.539 135.669 220.064ZM143.141 224.002H144.393C144.143 225.36 142.838 226.278 141.108 226.278C138.847 226.278 137.534 224.92 137.534 222.576V221.339C137.534 219.169 138.923 217.742 141.017 217.742C143.157 217.742 144.416 219.161 144.416 221.544V222.348H138.809V222.682C138.809 224.192 139.704 225.163 141.108 225.163C142.147 225.163 142.914 224.723 143.141 224.002ZM141.009 218.85C139.636 218.85 138.809 219.791 138.809 221.369H143.141C143.141 219.799 142.337 218.85 141.009 218.85ZM148.732 215.686H150.006V217.917H153.345V219.017H150.022V223.661C150.022 224.556 150.651 225.041 151.812 225.041C152.275 225.041 153.102 225.019 153.322 224.996V226.089C153.117 226.126 152.116 226.164 151.721 226.164C149.68 226.164 148.732 225.39 148.732 223.676V219.017H146.539V217.917H148.732V215.686ZM155.976 226.126V214.662H157.221V219.351H157.327C157.759 218.327 158.708 217.75 159.967 217.75C161.758 217.75 162.729 218.827 162.729 220.792V226.126H161.439V221.119C161.439 219.639 160.832 218.934 159.542 218.934C158.184 218.934 157.266 219.882 157.266 221.286V226.126H155.976ZM168.57 226.278C166.392 226.278 165.004 224.859 165.004 222.636V221.392C165.004 219.169 166.392 217.75 168.57 217.75C170.747 217.75 172.136 219.169 172.136 221.392V222.636C172.136 224.859 170.747 226.278 168.57 226.278ZM168.57 218.888C167.159 218.888 166.278 219.89 166.278 221.506V222.515C166.278 224.139 167.159 225.133 168.57 225.133C169.981 225.133 170.861 224.139 170.861 222.515V221.506C170.861 219.89 169.981 218.888 168.57 218.888ZM177.271 226.263C175.367 226.263 174.122 224.89 174.122 222.773V221.24C174.122 219.131 175.367 217.758 177.271 217.758C178.462 217.758 179.343 218.266 179.699 219.169H179.836V214.662H181.148V226.126H179.881V224.867H179.737C179.312 225.777 178.447 226.263 177.271 226.263ZM177.651 225.087C179.001 225.087 179.874 224.116 179.874 222.591V221.407C179.874 219.89 179.001 218.918 177.651 218.918C176.292 218.918 175.42 219.89 175.42 221.407V222.591C175.42 224.108 176.292 225.087 177.651 225.087Z" fill="#EEEEEE"/>
<path d="M177.787 200.345C177.036 200.345 176.414 199.707 176.414 198.941C176.414 198.175 177.036 197.537 177.787 197.537C178.538 197.537 179.16 198.175 179.16 198.941C179.16 199.707 178.538 200.345 177.787 200.345ZM177.787 206.172C177.036 206.172 176.414 205.542 176.414 204.768C176.414 204.002 177.036 203.372 177.787 203.372C178.538 203.372 179.16 204.002 179.16 204.768C179.16 205.542 178.538 206.172 177.787 206.172ZM187.004 220.345C186.253 220.345 185.631 219.707 185.631 218.941C185.631 218.175 186.253 217.537 187.004 217.537C187.755 217.537 188.378 218.175 188.378 218.941C188.378 219.707 187.755 220.345 187.004 220.345ZM187.004 226.172C186.253 226.172 185.631 225.542 185.631 224.768C185.631 224.002 186.253 223.372 187.004 223.372C187.755 223.372 188.378 224.002 188.378 224.768C188.378 225.542 187.755 226.172 187.004 226.172Z" fill="white"/>
<path d="M206.523 221.117H205.142V216.178H206.523V221.117ZM217.652 223.773V222.703H215.125V221.557H219.002V223.887C219.002 225.943 217.455 227.354 215.247 227.354C212.674 227.354 211.187 225.624 211.187 222.627V220.677C211.187 217.68 212.674 215.95 215.247 215.95C217.523 215.95 218.949 217.339 219.002 219.607H217.652C217.591 218.181 216.62 217.217 215.224 217.217C213.456 217.217 212.538 218.409 212.538 220.677V222.627C212.538 224.896 213.464 226.087 215.231 226.087C216.726 226.087 217.652 225.207 217.652 223.773ZM227.673 225.897V227.126H221.209V216.178H227.673V217.407H222.552V220.958H227.393V222.134H222.552V225.897H227.673ZM234.151 227.126H232.816V217.407H229.508V216.178H237.46V217.407H234.151V227.126ZM243.391 221.117H242.011V216.178H243.391V221.117Z" fill="#FD4B28"/>
<path d="M251.228 229.645H250.006L250.947 224.714H252.654L251.228 229.645Z" fill="white"/>
<path d="M98.201 249.894V258.126H96.9642V256.677H96.858C96.4179 257.702 95.4771 258.278 94.2251 258.278C92.4345 258.278 91.4633 257.208 91.4633 255.236V249.894H92.7532V254.909C92.7532 256.397 93.3602 257.095 94.6425 257.095C96.0006 257.095 96.9111 256.146 96.9111 254.742V249.894H98.201ZM103.723 254.439V257.095H106.272V258.126H100.802V257.095H102.464V250.926H100.635V249.894H103.708V251.996H103.875C104.178 250.471 105.203 249.682 106.788 249.682C107.259 249.682 107.707 249.75 107.98 249.864V251.313C107.6 251.176 107.069 251.085 106.621 251.085C104.801 251.085 103.723 252.345 103.723 254.439ZM116.863 258.126H110.042V257.057H112.857V247.732H110.065V246.662H114.147V257.057H116.863V258.126Z" fill="#EEEEEE"/>
<path d="M122.484 252.345C121.733 252.345 121.11 251.707 121.11 250.941C121.11 250.175 121.733 249.537 122.484 249.537C123.235 249.537 123.857 250.175 123.857 250.941C123.857 251.707 123.235 252.345 122.484 252.345ZM122.484 258.172C121.733 258.172 121.11 257.542 121.11 256.768C121.11 256.002 121.733 255.372 122.484 255.372C123.235 255.372 123.857 256.002 123.857 256.768C123.857 257.542 123.235 258.172 122.484 258.172Z" fill="white"/>
<path d="M178.523 232.117H177.142V227.178H178.523V232.117ZM183.673 238.126V226.662H184.917V231.351H185.024C185.456 230.327 186.404 229.75 187.664 229.75C189.455 229.75 190.426 230.827 190.426 232.792V238.126H189.136V233.119C189.136 231.639 188.529 230.934 187.239 230.934C185.881 230.934 184.963 231.882 184.963 233.286V238.126H183.673ZM194.863 227.686H196.138V229.917H199.476V231.017H196.153V235.661C196.153 236.556 196.783 237.041 197.943 237.041C198.406 237.041 199.233 237.019 199.453 236.996V238.089C199.248 238.126 198.247 238.164 197.852 238.164C195.811 238.164 194.863 237.39 194.863 235.676V231.017H192.67V229.917H194.863V227.686ZM204.08 227.686H205.355V229.917H208.693V231.017H205.37V235.661C205.37 236.556 206 237.041 207.161 237.041C207.623 237.041 208.45 237.019 208.671 236.996V238.089C208.466 238.126 207.464 238.164 207.07 238.164C205.029 238.164 204.08 237.39 204.08 235.676V231.017H201.887V229.917H204.08V227.686ZM215.217 229.758C217.121 229.758 218.366 231.131 218.366 233.248V234.78C218.366 236.89 217.121 238.263 215.217 238.263C214.026 238.263 213.153 237.755 212.797 236.852H212.652V240.903H211.34V229.894H212.614V231.154H212.751C213.184 230.243 214.041 229.758 215.217 229.758ZM214.845 230.941C213.487 230.941 212.622 231.912 212.622 233.43V234.613C212.622 236.139 213.487 237.11 214.845 237.11C216.203 237.11 217.068 236.131 217.068 234.613V233.43C217.068 231.912 216.203 230.941 214.845 230.941ZM220.921 232.117C220.921 230.691 222.135 229.735 223.949 229.735C225.663 229.735 226.824 230.592 226.976 231.965H225.732C225.58 231.245 224.889 230.805 223.926 230.805C222.879 230.805 222.203 231.29 222.203 232.041C222.203 232.671 222.628 233.028 223.66 233.255L224.821 233.521C226.422 233.885 227.15 234.583 227.15 235.774C227.15 237.292 225.883 238.278 223.933 238.278C222.067 238.278 220.83 237.406 220.686 235.994H221.999C222.188 236.753 222.917 237.193 223.979 237.193C225.102 237.193 225.815 236.685 225.815 235.896C225.815 235.243 225.413 234.894 224.366 234.659L223.144 234.378C221.657 234.037 220.921 233.286 220.921 232.117ZM233.135 232.345C232.384 232.345 231.762 231.707 231.762 230.941C231.762 230.175 232.384 229.537 233.135 229.537C233.887 229.537 234.509 230.175 234.509 230.941C234.509 231.707 233.887 232.345 233.135 232.345ZM233.135 238.172C232.384 238.172 231.762 237.542 231.762 236.768C231.762 236.002 232.384 235.372 233.135 235.372C233.887 235.372 234.509 236.002 234.509 236.768C234.509 237.542 233.887 238.172 233.135 238.172ZM240.312 239.166H239.052L244.386 226.138H245.653L240.312 239.166ZM249.529 239.166H248.269L253.603 226.138H254.87L249.529 239.166ZM259.952 238.271C258.382 238.271 257.335 237.284 257.335 235.79C257.335 234.333 258.382 233.468 260.256 233.369L262.517 233.255V232.512C262.517 231.48 261.887 230.911 260.742 230.911C259.793 230.911 259.125 231.313 258.913 232.019H257.646C257.798 230.698 259.072 229.795 260.757 229.795C262.692 229.795 263.799 230.782 263.799 232.497V238.134H262.57V236.897H262.441C262.047 237.777 261.151 238.271 259.952 238.271ZM260.324 237.14C261.569 237.14 262.517 236.313 262.517 235.213V234.242L260.4 234.34C259.247 234.393 258.64 234.887 258.64 235.744C258.64 236.609 259.285 237.14 260.324 237.14ZM270.52 229.758C272.425 229.758 273.669 231.131 273.669 233.248V234.78C273.669 236.89 272.425 238.263 270.52 238.263C269.329 238.263 268.456 237.755 268.1 236.852H267.956V240.903H266.643V229.894H267.918V231.154H268.054C268.487 230.243 269.344 229.758 270.52 229.758ZM270.148 230.941C268.79 230.941 267.925 231.912 267.925 233.43V234.613C267.925 236.139 268.79 237.11 270.148 237.11C271.507 237.11 272.372 236.131 272.372 234.613V233.43C272.372 231.912 271.507 230.941 270.148 230.941ZM279.366 227.876C278.759 227.876 278.296 227.421 278.296 226.814C278.296 226.214 278.759 225.759 279.366 225.759C279.973 225.759 280.435 226.214 280.435 226.814C280.435 227.421 279.973 227.876 279.366 227.876ZM282.818 238.126H275.997V237.057H278.819V230.964H276.02V229.894H280.094V237.057H282.818V238.126ZM288.439 238.172C287.688 238.172 287.065 237.542 287.065 236.768C287.065 236.002 287.688 235.372 288.439 235.372C289.19 235.372 289.812 236.002 289.812 236.768C289.812 237.542 289.19 238.172 288.439 238.172ZM301.085 232.459H299.811C299.651 231.495 298.847 230.888 297.785 230.888C296.351 230.888 295.554 231.867 295.554 233.635V234.378C295.554 236.146 296.351 237.117 297.785 237.117C298.847 237.117 299.651 236.518 299.811 235.577H301.085C300.881 237.254 299.629 238.278 297.808 238.278C295.569 238.278 294.264 236.905 294.264 234.545V233.468C294.264 231.108 295.569 229.735 297.808 229.735C299.629 229.735 300.873 230.767 301.085 232.459ZM303.497 238.126V226.662H304.741V231.351H304.847C305.28 230.327 306.228 229.75 307.488 229.75C309.278 229.75 310.25 230.827 310.25 232.792V238.126H308.96V233.119C308.96 231.639 308.353 230.934 307.063 230.934C305.705 230.934 304.787 231.882 304.787 233.286V238.126H303.497ZM318.313 236.002H319.565C319.315 237.36 318.01 238.278 316.28 238.278C314.019 238.278 312.706 236.92 312.706 234.576V233.339C312.706 231.169 314.095 229.742 316.189 229.742C318.329 229.742 319.588 231.161 319.588 233.544V234.348H313.981V234.682C313.981 236.192 314.876 237.163 316.28 237.163C317.32 237.163 318.086 236.723 318.313 236.002ZM316.181 230.85C314.808 230.85 313.981 231.791 313.981 233.369H318.313C318.313 231.799 317.509 230.85 316.181 230.85ZM328.737 232.459H327.462C327.303 231.495 326.499 230.888 325.437 230.888C324.003 230.888 323.206 231.867 323.206 233.635V234.378C323.206 236.146 324.003 237.117 325.437 237.117C326.499 237.117 327.303 236.518 327.462 235.577H328.737C328.532 237.254 327.28 238.278 325.459 238.278C323.221 238.278 321.916 236.905 321.916 234.545V233.468C321.916 231.108 323.221 229.735 325.459 229.735C327.28 229.735 328.525 230.767 328.737 232.459ZM333.151 233.589L336.74 229.894H338.303L335.109 233.157L338.531 238.126H336.998L334.191 234.037L333.053 235.129V238.126H331.763V226.662H333.053V233.589H333.151ZM347.338 238.126H340.517V237.057H343.332V227.732H340.54V226.662H344.622V237.057H347.338V238.126ZM350.653 241.055C350.463 241.055 350.213 241.048 350.099 241.032V239.902C350.197 239.925 350.433 239.932 350.554 239.932C351.328 239.932 351.753 239.583 352.094 238.627L352.238 238.18L349.211 229.894H350.615L352.921 236.783H353.02L355.319 229.894H356.692L353.589 238.43C352.868 240.456 352.178 241.055 350.653 241.055ZM358.8 238.126V226.662H360.044V231.351H360.151C360.583 230.327 361.532 229.75 362.791 229.75C364.582 229.75 365.553 230.827 365.553 232.792V238.126H364.263V233.119C364.263 231.639 363.656 230.934 362.366 230.934C361.008 230.934 360.09 231.882 360.09 233.286V238.126H358.8ZM370.878 229.758C372.054 229.758 372.911 230.243 373.344 231.154H373.48V229.894H374.755V240.903H373.442V236.852H373.298C372.942 237.755 372.069 238.263 370.878 238.263C368.973 238.263 367.729 236.89 367.729 234.78V233.248C367.729 231.131 368.973 229.758 370.878 229.758ZM371.25 230.941C369.891 230.941 369.026 231.912 369.026 233.43V234.613C369.026 236.131 369.891 237.11 371.25 237.11C372.608 237.11 373.473 236.139 373.473 234.613V233.43C373.473 231.912 372.608 230.941 371.25 230.941ZM380.611 238.172C379.86 238.172 379.238 237.542 379.238 236.768C379.238 236.002 379.86 235.372 380.611 235.372C381.362 235.372 381.984 236.002 381.984 236.768C381.984 237.542 381.362 238.172 380.611 238.172ZM393.258 232.459H391.983C391.824 231.495 391.019 230.888 389.957 230.888C388.523 230.888 387.726 231.867 387.726 233.635V234.378C387.726 236.146 388.523 237.117 389.957 237.117C391.019 237.117 391.824 236.518 391.983 235.577H393.258C393.053 237.254 391.801 238.278 389.98 238.278C387.742 238.278 386.437 236.905 386.437 234.545V233.468C386.437 231.108 387.742 229.735 389.98 229.735C391.801 229.735 393.045 230.767 393.258 232.459ZM399.045 238.278C396.868 238.278 395.479 236.859 395.479 234.636V233.392C395.479 231.169 396.868 229.75 399.045 229.75C401.223 229.75 402.611 231.169 402.611 233.392V234.636C402.611 236.859 401.223 238.278 399.045 238.278ZM399.045 230.888C397.634 230.888 396.754 231.89 396.754 233.506V234.515C396.754 236.139 397.634 237.133 399.045 237.133C400.457 237.133 401.337 236.139 401.337 234.515V233.506C401.337 231.89 400.457 230.888 399.045 230.888ZM412.231 232.064V238.126H411.07V232.443C411.07 231.442 410.706 230.918 410.015 230.918C409.294 230.918 408.854 231.548 408.854 232.572V238.126H407.701V232.436C407.701 231.442 407.337 230.918 406.639 230.918C405.91 230.918 405.455 231.548 405.455 232.572V238.126H404.294V229.894H405.448V231.055H405.584C405.789 230.228 406.381 229.742 407.155 229.742C407.929 229.742 408.475 230.22 408.649 231.032H408.786C408.998 230.243 409.659 229.742 410.486 229.742C411.631 229.742 412.231 230.539 412.231 232.064ZM415.439 239.166H414.179L419.513 226.138H420.78L415.439 239.166ZM427.213 229.758C429.117 229.758 430.362 231.131 430.362 233.248V234.78C430.362 236.89 429.117 238.263 427.213 238.263C426.022 238.263 425.149 237.755 424.793 236.852H424.648V240.903H423.336V229.894H424.61V231.154H424.747C425.179 230.243 426.037 229.758 427.213 229.758ZM426.841 230.941C425.483 230.941 424.618 231.912 424.618 233.43V234.613C424.618 236.139 425.483 237.11 426.841 237.11C428.199 237.11 429.064 236.131 429.064 234.613V233.43C429.064 231.912 428.199 230.941 426.841 230.941ZM439.283 229.894V238.126H438.046V236.677H437.94C437.5 237.702 436.559 238.278 435.307 238.278C433.517 238.278 432.545 237.208 432.545 235.236V229.894H433.835V234.909C433.835 236.397 434.442 237.095 435.724 237.095C437.083 237.095 437.993 236.146 437.993 234.742V229.894H439.283ZM445.647 238.263C444.471 238.263 443.606 237.777 443.181 236.867H443.037V238.126H441.77V226.662H443.083V231.169H443.219C443.584 230.266 444.456 229.758 445.647 229.758C447.552 229.758 448.796 231.131 448.796 233.24V234.773C448.796 236.89 447.552 238.263 445.647 238.263ZM445.268 237.087C446.634 237.087 447.499 236.108 447.499 234.591V233.407C447.499 231.89 446.634 230.918 445.268 230.918C443.917 230.918 443.052 231.89 443.052 233.407V234.591C443.052 236.116 443.917 237.087 445.268 237.087ZM457.945 238.126H451.124V237.057H453.939V227.732H451.147V226.662H455.229V237.057H457.945V238.126ZM463.71 227.876C463.103 227.876 462.64 227.421 462.64 226.814C462.64 226.214 463.103 225.759 463.71 225.759C464.317 225.759 464.78 226.214 464.78 226.814C464.78 227.421 464.317 227.876 463.71 227.876ZM467.162 238.126H460.341V237.057H463.164V230.964H460.364V229.894H464.438V237.057H467.162V238.126ZM476.213 232.459H474.938C474.779 231.495 473.974 230.888 472.912 230.888C471.478 230.888 470.681 231.867 470.681 233.635V234.378C470.681 236.146 471.478 237.117 472.912 237.117C473.974 237.117 474.779 236.518 474.938 235.577H476.213C476.008 237.254 474.756 238.278 472.935 238.278C470.696 238.278 469.391 236.905 469.391 234.545V233.468C469.391 231.108 470.696 229.735 472.935 229.735C474.756 229.735 476 230.767 476.213 232.459ZM486.014 233.87H477.986V232.671H486.014V233.87ZM174.835 252.117C174.835 250.691 176.049 249.735 177.862 249.735C179.577 249.735 180.738 250.592 180.89 251.965H179.646C179.494 251.245 178.803 250.805 177.84 250.805C176.793 250.805 176.117 251.29 176.117 252.041C176.117 252.671 176.542 253.028 177.574 253.255L178.735 253.521C180.336 253.885 181.064 254.583 181.064 255.774C181.064 257.292 179.797 258.278 177.847 258.278C175.981 258.278 174.744 257.406 174.6 255.994H175.913C176.102 256.753 176.831 257.193 177.893 257.193C179.016 257.193 179.729 256.685 179.729 255.896C179.729 255.243 179.327 254.894 178.28 254.659L177.058 254.378C175.571 254.037 174.835 253.286 174.835 252.117ZM185.646 247.686H186.92V249.917H190.259V251.017H186.936V255.661C186.936 256.556 187.565 257.041 188.726 257.041C189.189 257.041 190.016 257.019 190.236 256.996V258.089C190.031 258.126 189.03 258.164 188.635 258.164C186.594 258.164 185.646 257.39 185.646 255.676V251.017H183.453V249.917H185.646V247.686ZM195.432 258.271C193.861 258.271 192.814 257.284 192.814 255.79C192.814 254.333 193.861 253.468 195.735 253.369L197.997 253.255V252.512C197.997 251.48 197.367 250.911 196.221 250.911C195.273 250.911 194.605 251.313 194.392 252.019H193.125C193.277 250.698 194.552 249.795 196.236 249.795C198.171 249.795 199.279 250.782 199.279 252.497V258.134H198.05V256.897H197.921C197.526 257.777 196.631 258.271 195.432 258.271ZM195.804 257.14C197.048 257.14 197.997 256.313 197.997 255.213V254.242L195.88 254.34C194.726 254.393 194.119 254.887 194.119 255.744C194.119 256.609 194.764 257.14 195.804 257.14ZM204.08 247.686H205.355V249.917H208.693V251.017H205.37V255.661C205.37 256.556 206 257.041 207.161 257.041C207.623 257.041 208.45 257.019 208.671 256.996V258.089C208.466 258.126 207.464 258.164 207.07 258.164C205.029 258.164 204.08 257.39 204.08 255.676V251.017H201.887V249.917H204.08V247.686ZM211.704 252.117C211.704 250.691 212.918 249.735 214.731 249.735C216.446 249.735 217.607 250.592 217.759 251.965H216.514C216.363 251.245 215.672 250.805 214.709 250.805C213.662 250.805 212.986 251.29 212.986 252.041C212.986 252.671 213.411 253.028 214.443 253.255L215.604 253.521C217.205 253.885 217.933 254.583 217.933 255.774C217.933 257.292 216.666 258.278 214.716 258.278C212.85 258.278 211.613 257.406 211.469 255.994H212.781C212.971 256.753 213.699 257.193 214.762 257.193C215.885 257.193 216.598 256.685 216.598 255.896C216.598 255.243 216.196 254.894 215.149 254.659L213.927 254.378C212.44 254.037 211.704 253.286 211.704 252.117ZM224.609 252.117H223.228V247.178H224.609V252.117Z" fill="#FD4B28"/>
<path d="M232.445 260.645H231.223L232.164 255.714H233.871L232.445 260.645Z" fill="white"/>
<path d="M130.866 258.271C129.296 258.271 128.249 257.284 128.249 255.79C128.249 254.333 129.296 253.468 131.17 253.369L133.431 253.255V252.512C133.431 251.48 132.801 250.911 131.655 250.911C130.707 250.911 130.039 251.313 129.827 252.019H128.56C128.712 250.698 129.986 249.795 131.671 249.795C133.605 249.795 134.713 250.782 134.713 252.497V258.134H133.484V256.897H133.355C132.961 257.777 132.065 258.271 130.866 258.271ZM131.238 257.14C132.483 257.14 133.431 256.313 133.431 255.213V254.242L131.314 254.34C130.161 254.393 129.554 254.887 129.554 255.744C129.554 256.609 130.199 257.14 131.238 257.14ZM137.921 252.117C137.921 250.691 139.135 249.735 140.949 249.735C142.663 249.735 143.824 250.592 143.976 251.965H142.732C142.58 251.245 141.889 250.805 140.926 250.805C139.879 250.805 139.203 251.29 139.203 252.041C139.203 252.671 139.628 253.028 140.66 253.255L141.821 253.521C143.422 253.885 144.15 254.583 144.15 255.774C144.15 257.292 142.883 258.278 140.933 258.278C139.067 258.278 137.83 257.406 137.686 255.994H138.999C139.188 256.753 139.917 257.193 140.979 257.193C142.102 257.193 142.815 256.685 142.815 255.896C142.815 255.243 142.413 254.894 141.366 254.659L140.144 254.378C138.657 254.037 137.921 253.286 137.921 252.117ZM147.138 252.117C147.138 250.691 148.352 249.735 150.166 249.735C151.881 249.735 153.041 250.592 153.193 251.965H151.949C151.797 251.245 151.107 250.805 150.143 250.805C149.096 250.805 148.421 251.29 148.421 252.041C148.421 252.671 148.846 253.028 149.877 253.255L151.038 253.521C152.639 253.885 153.368 254.583 153.368 255.774C153.368 257.292 152.101 258.278 150.151 258.278C148.284 258.278 147.047 257.406 146.903 255.994H148.216C148.405 256.753 149.134 257.193 150.196 257.193C151.319 257.193 152.032 256.685 152.032 255.896C152.032 255.243 151.63 254.894 150.583 254.659L149.362 254.378C147.874 254.037 147.138 253.286 147.138 252.117ZM161.576 256.002H162.828C162.577 257.36 161.272 258.278 159.542 258.278C157.281 258.278 155.969 256.92 155.969 254.576V253.339C155.969 251.169 157.357 249.742 159.451 249.742C161.591 249.742 162.85 251.161 162.85 253.544V254.348H157.243V254.682C157.243 256.192 158.139 257.163 159.542 257.163C160.582 257.163 161.348 256.723 161.576 256.002ZM159.444 250.85C158.07 250.85 157.243 251.791 157.243 253.369H161.576C161.576 251.799 160.772 250.85 159.444 250.85ZM168.244 254.439V257.095H170.793V258.126H165.322V257.095H166.984V250.926H165.156V249.894H168.228V251.996H168.395C168.699 250.471 169.723 249.682 171.309 249.682C171.779 249.682 172.227 249.75 172.5 249.864V251.313C172.121 251.176 171.59 251.085 171.142 251.085C169.321 251.085 168.244 252.345 168.244 254.439ZM176.383 247.686H177.658V249.917H180.997V251.017H177.673V255.661C177.673 256.556 178.303 257.041 179.464 257.041C179.927 257.041 180.754 257.019 180.974 256.996V258.089C180.769 258.126 179.767 258.164 179.373 258.164C177.332 258.164 176.383 257.39 176.383 255.676V251.017H174.191V249.917H176.383V247.686ZM187.148 247.876C186.541 247.876 186.079 247.421 186.079 246.814C186.079 246.214 186.541 245.759 187.148 245.759C187.755 245.759 188.218 246.214 188.218 246.814C188.218 247.421 187.755 247.876 187.148 247.876ZM190.601 258.126H183.78V257.057H186.602V250.964H183.802V249.894H187.877V257.057H190.601V258.126ZM196.222 258.278C194.044 258.278 192.655 256.859 192.655 254.636V253.392C192.655 251.169 194.044 249.75 196.222 249.75C198.399 249.75 199.788 251.169 199.788 253.392V254.636C199.788 256.859 198.399 258.278 196.222 258.278ZM196.222 250.888C194.81 250.888 193.93 251.89 193.93 253.506V254.515C193.93 256.139 194.81 257.133 196.222 257.133C197.633 257.133 198.513 256.139 198.513 254.515V253.506C198.513 251.89 197.633 250.888 196.222 250.888ZM202.07 258.126V249.894H203.307V251.343H203.413C203.853 250.319 204.794 249.742 206.046 249.742C207.836 249.742 208.808 250.812 208.808 252.785V258.126H207.518V253.111C207.518 251.624 206.911 250.926 205.628 250.926C204.27 250.926 203.36 251.874 203.36 253.278V258.126H202.07ZM211.659 252.117C211.659 250.691 212.873 249.735 214.686 249.735C216.401 249.735 217.562 250.592 217.714 251.965H216.469C216.318 251.245 215.627 250.805 214.664 250.805C213.616 250.805 212.941 251.29 212.941 252.041C212.941 252.671 213.366 253.028 214.398 253.255L215.559 253.521C217.16 253.885 217.888 254.583 217.888 255.774C217.888 257.292 216.621 258.278 214.671 258.278C212.805 258.278 211.568 257.406 211.424 255.994H212.736C212.926 256.753 213.654 257.193 214.717 257.193C215.84 257.193 216.553 256.685 216.553 255.896C216.553 255.243 216.151 254.894 215.104 254.659L213.882 254.378C212.395 254.037 211.659 253.286 211.659 252.117ZM92.8594 266.138H96.858V267.178H94.1113V278.126H96.8732V279.166H92.8594V266.138Z" fill="#EEEEEE"/>
<path d="M223.873 252.345C223.122 252.345 222.5 251.707 222.5 250.941C222.5 250.175 223.122 249.537 223.873 249.537C224.624 249.537 225.246 250.175 225.246 250.941C225.246 251.707 224.624 252.345 223.873 252.345ZM223.873 258.172C223.122 258.172 222.5 257.542 222.5 256.768C222.5 256.002 223.122 255.372 223.873 255.372C224.624 255.372 225.246 256.002 225.246 256.768C225.246 257.542 224.624 258.172 223.873 258.172Z" fill="white"/>
<path d="M152.662 279.126L151.714 275.985H147.905L146.949 279.126H145.591L149.119 268.178H150.545L154.074 279.126H152.662ZM149.794 269.786L148.254 274.84H151.365L149.832 269.786H149.794ZM156.052 273.117C156.052 271.691 157.266 270.735 159.08 270.735C160.794 270.735 161.955 271.592 162.107 272.965H160.863C160.711 272.245 160.021 271.805 159.057 271.805C158.01 271.805 157.335 272.29 157.335 273.041C157.335 273.671 157.759 274.028 158.791 274.255L159.952 274.521C161.553 274.885 162.282 275.583 162.282 276.774C162.282 278.292 161.015 279.278 159.065 279.278C157.198 279.278 155.961 278.406 155.817 276.994H157.13C157.319 277.753 158.048 278.193 159.11 278.193C160.233 278.193 160.946 277.685 160.946 276.896C160.946 276.243 160.544 275.894 159.497 275.659L158.275 275.378C156.788 275.037 156.052 274.286 156.052 273.117ZM165.27 273.117C165.27 271.691 166.484 270.735 168.297 270.735C170.012 270.735 171.173 271.592 171.324 272.965H170.08C169.928 272.245 169.238 271.805 168.274 271.805C167.227 271.805 166.552 272.29 166.552 273.041C166.552 273.671 166.977 274.028 168.009 274.255L169.169 274.521C170.77 274.885 171.499 275.583 171.499 276.774C171.499 278.292 170.232 279.278 168.282 279.278C166.415 279.278 165.178 278.406 165.034 276.994H166.347C166.537 277.753 167.265 278.193 168.327 278.193C169.45 278.193 170.163 277.685 170.163 276.896C170.163 276.243 169.761 275.894 168.714 275.659L167.493 275.378C166.006 275.037 165.27 274.286 165.27 273.117ZM179.707 277.002H180.959C180.708 278.36 179.403 279.278 177.673 279.278C175.412 279.278 174.1 277.92 174.1 275.576V274.339C174.1 272.169 175.488 270.742 177.582 270.742C179.722 270.742 180.982 272.161 180.982 274.544V275.348H175.374V275.682C175.374 277.192 176.27 278.163 177.673 278.163C178.713 278.163 179.479 277.723 179.707 277.002ZM177.575 271.85C176.202 271.85 175.374 272.791 175.374 274.369H179.707C179.707 272.799 178.903 271.85 177.575 271.85ZM186.375 275.439V278.095H188.924V279.126H183.454V278.095H185.115V271.926H183.287V270.894H186.36V272.996H186.526C186.83 271.471 187.854 270.682 189.44 270.682C189.91 270.682 190.358 270.75 190.631 270.864V272.313C190.252 272.176 189.721 272.085 189.273 272.085C187.452 272.085 186.375 273.345 186.375 275.439ZM194.515 268.686H195.789V270.917H199.128V272.017H195.804V276.661C195.804 277.556 196.434 278.041 197.595 278.041C198.058 278.041 198.885 278.019 199.105 277.996V279.089C198.9 279.126 197.899 279.164 197.504 279.164C195.463 279.164 194.515 278.39 194.515 276.676V272.017H192.322V270.917H194.515V268.686ZM205.28 268.876C204.673 268.876 204.21 268.421 204.21 267.814C204.21 267.214 204.673 266.759 205.28 266.759C205.887 266.759 206.349 267.214 206.349 267.814C206.349 268.421 205.887 268.876 205.28 268.876ZM208.732 279.126H201.911V278.057H204.733V271.964H201.934V270.894H206.008V278.057H208.732V279.126ZM214.353 279.278C212.175 279.278 210.787 277.859 210.787 275.636V274.392C210.787 272.169 212.175 270.75 214.353 270.75C216.53 270.75 217.919 272.169 217.919 274.392V275.636C217.919 277.859 216.53 279.278 214.353 279.278ZM214.353 271.888C212.941 271.888 212.061 272.89 212.061 274.506V275.515C212.061 277.139 212.941 278.133 214.353 278.133C215.764 278.133 216.644 277.139 216.644 275.515V274.506C216.644 272.89 215.764 271.888 214.353 271.888ZM220.201 279.126V270.894H221.438V272.343H221.544C221.984 271.319 222.925 270.742 224.177 270.742C225.967 270.742 226.939 271.812 226.939 273.785V279.126H225.649V274.111C225.649 272.624 225.042 271.926 223.76 271.926C222.401 271.926 221.491 272.874 221.491 274.278V279.126H220.201ZM232.992 279.126H229.411V268.178H232.954C234.972 268.178 236.186 269.187 236.186 270.887C236.186 272.093 235.405 273.087 234.305 273.277V273.39C235.777 273.535 236.74 274.604 236.74 276.069C236.74 277.988 235.344 279.126 232.992 279.126ZM230.738 269.331V272.905H232.446C234.001 272.905 234.836 272.275 234.836 271.122C234.836 269.976 234.047 269.331 232.651 269.331H230.738ZM230.738 277.966H232.704C234.441 277.966 235.352 277.283 235.352 275.978C235.352 274.688 234.434 274.02 232.658 274.02H230.738V277.966ZM245.373 270.894V279.126H244.136V277.677H244.03C243.59 278.702 242.649 279.278 241.397 279.278C239.607 279.278 238.635 278.208 238.635 276.236V270.894H239.925V275.909C239.925 277.397 240.532 278.095 241.815 278.095C243.173 278.095 244.083 277.146 244.083 275.742V270.894H245.373ZM251.366 268.876C250.759 268.876 250.296 268.421 250.296 267.814C250.296 267.214 250.759 266.759 251.366 266.759C251.973 266.759 252.435 267.214 252.435 267.814C252.435 268.421 251.973 268.876 251.366 268.876ZM254.818 279.126H247.997V278.057H250.819V271.964H248.02V270.894H252.094V278.057H254.818V279.126ZM264.035 279.126H257.214V278.057H260.029V268.732H257.237V267.662H261.319V278.057H264.035V279.126ZM269.14 279.263C267.236 279.263 265.991 277.89 265.991 275.773V274.24C265.991 272.131 267.236 270.758 269.14 270.758C270.331 270.758 271.211 271.266 271.568 272.169H271.705V267.662H273.017V279.126H271.75V277.867H271.606C271.181 278.777 270.316 279.263 269.14 279.263ZM269.519 278.087C270.87 278.087 271.742 277.116 271.742 275.591V274.407C271.742 272.89 270.87 271.918 269.519 271.918C268.161 271.918 267.289 272.89 267.289 274.407V275.591C267.289 277.108 268.161 278.087 269.519 278.087ZM281.096 277.002H282.348C282.098 278.36 280.793 279.278 279.063 279.278C276.802 279.278 275.489 277.92 275.489 275.576V274.339C275.489 272.169 276.878 270.742 278.972 270.742C281.111 270.742 282.371 272.161 282.371 274.544V275.348H276.764V275.682C276.764 277.192 277.659 278.163 279.063 278.163C280.102 278.163 280.869 277.723 281.096 277.002ZM278.964 271.85C277.591 271.85 276.764 272.791 276.764 274.369H281.096C281.096 272.799 280.292 271.85 278.964 271.85ZM287.764 275.439V278.095H290.313V279.126H284.843V278.095H286.505V271.926H284.676V270.894H287.749V272.996H287.916C288.219 271.471 289.244 270.682 290.829 270.682C291.3 270.682 291.748 270.75 292.021 270.864V272.313C291.641 272.176 291.11 272.085 290.663 272.085C288.842 272.085 287.764 273.345 287.764 275.439ZM297.308 279.172C296.556 279.172 295.934 278.542 295.934 277.768C295.934 277.002 296.556 276.372 297.308 276.372C298.059 276.372 298.681 277.002 298.681 277.768C298.681 278.542 298.059 279.172 297.308 279.172ZM303.528 273.117C303.528 271.691 304.742 270.735 306.555 270.735C308.27 270.735 309.431 271.592 309.583 272.965H308.338C308.186 272.245 307.496 271.805 306.532 271.805C305.485 271.805 304.81 272.29 304.81 273.041C304.81 273.671 305.235 274.028 306.267 274.255L307.428 274.521C309.029 274.885 309.757 275.583 309.757 276.774C309.757 278.292 308.49 279.278 306.54 279.278C304.673 279.278 303.437 278.406 303.293 276.994H304.605C304.795 277.753 305.523 278.193 306.586 278.193C307.708 278.193 308.422 277.685 308.422 276.896C308.422 276.243 308.02 275.894 306.972 275.659L305.751 275.378C304.264 275.037 303.528 274.286 303.528 273.117ZM314.338 268.686H315.613V270.917H318.952V272.017H315.628V276.661C315.628 277.556 316.258 278.041 317.419 278.041C317.882 278.041 318.709 278.019 318.929 277.996V279.089C318.724 279.126 317.722 279.164 317.328 279.164C315.287 279.164 314.338 278.39 314.338 276.676V272.017H312.146V270.917H314.338V268.686ZM324.125 279.271C322.554 279.271 321.507 278.284 321.507 276.79C321.507 275.333 322.554 274.468 324.428 274.369L326.689 274.255V273.512C326.689 272.48 326.059 271.911 324.914 271.911C323.965 271.911 323.298 272.313 323.085 273.019H321.818C321.97 271.698 323.244 270.795 324.929 270.795C326.864 270.795 327.971 271.782 327.971 273.497V279.134H326.742V277.897H326.613C326.219 278.777 325.323 279.271 324.125 279.271ZM324.496 278.14C325.741 278.14 326.689 277.313 326.689 276.213V275.242L324.572 275.34C323.419 275.393 322.812 275.887 322.812 276.744C322.812 277.609 323.457 278.14 324.496 278.14ZM332.773 268.686H334.047V270.917H337.386V272.017H334.063V276.661C334.063 277.556 334.692 278.041 335.853 278.041C336.316 278.041 337.143 278.019 337.363 277.996V279.089C337.158 279.126 336.157 279.164 335.762 279.164C333.721 279.164 332.773 278.39 332.773 276.676V272.017H330.58V270.917H332.773V268.686ZM346.762 270.894V279.126H345.526V277.677H345.42C344.979 278.702 344.039 279.278 342.787 279.278C340.996 279.278 340.025 278.208 340.025 276.236V270.894H341.315V275.909C341.315 277.397 341.922 278.095 343.204 278.095C344.562 278.095 345.473 277.146 345.473 275.742V270.894H346.762ZM349.614 273.117C349.614 271.691 350.828 270.735 352.641 270.735C354.356 270.735 355.517 271.592 355.669 272.965H354.424C354.273 272.245 353.582 271.805 352.618 271.805C351.571 271.805 350.896 272.29 350.896 273.041C350.896 273.671 351.321 274.028 352.353 274.255L353.514 274.521C355.115 274.885 355.843 275.583 355.843 276.774C355.843 278.292 354.576 279.278 352.626 279.278C350.76 279.278 349.523 278.406 349.379 276.994H350.691C350.881 277.753 351.609 278.193 352.672 278.193C353.795 278.193 354.508 277.685 354.508 276.896C354.508 276.243 354.106 275.894 353.059 275.659L351.837 275.378C350.35 275.037 349.614 274.286 349.614 273.117ZM362.078 278.087C363.535 278.087 364.461 277.214 364.499 275.803H365.849C365.849 277.92 364.317 279.354 362.078 279.354C359.506 279.354 358.012 277.617 358.012 274.627V272.677C358.012 269.688 359.506 267.95 362.078 267.95C364.385 267.95 365.812 269.354 365.857 271.691H364.499C364.453 270.211 363.475 269.217 362.071 269.217C360.303 269.217 359.377 270.409 359.377 272.677V274.627C359.377 276.896 360.303 278.087 362.078 278.087ZM371.045 279.278C368.868 279.278 367.479 277.859 367.479 275.636V274.392C367.479 272.169 368.868 270.75 371.045 270.75C373.223 270.75 374.611 272.169 374.611 274.392V275.636C374.611 277.859 373.223 279.278 371.045 279.278ZM371.045 271.888C369.634 271.888 368.754 272.89 368.754 274.506V275.515C368.754 277.139 369.634 278.133 371.045 278.133C372.457 278.133 373.337 277.139 373.337 275.515V274.506C373.337 272.89 372.457 271.888 371.045 271.888ZM379.747 279.263C377.842 279.263 376.598 277.89 376.598 275.773V274.24C376.598 272.131 377.842 270.758 379.747 270.758C380.938 270.758 381.818 271.266 382.175 272.169H382.311V267.662H383.624V279.126H382.357V277.867H382.212C381.788 278.777 380.923 279.263 379.747 279.263ZM380.126 278.087C381.477 278.087 382.349 277.116 382.349 275.591V274.407C382.349 272.89 381.477 271.918 380.126 271.918C378.768 271.918 377.895 272.89 377.895 274.407V275.591C377.895 277.108 378.768 278.087 380.126 278.087ZM391.703 277.002H392.955C392.704 278.36 391.399 279.278 389.669 279.278C387.408 279.278 386.096 277.92 386.096 275.576V274.339C386.096 272.169 387.484 270.742 389.578 270.742C391.718 270.742 392.978 272.161 392.978 274.544V275.348H387.37V275.682C387.37 277.192 388.266 278.163 389.669 278.163C390.709 278.163 391.475 277.723 391.703 277.002ZM389.571 271.85C388.197 271.85 387.37 272.791 387.37 274.369H391.703C391.703 272.799 390.899 271.85 389.571 271.85ZM417.131 279.172C416.38 279.172 415.758 278.542 415.758 277.768C415.758 277.002 416.38 276.372 417.131 276.372C417.883 276.372 418.505 277.002 418.505 277.768C418.505 278.542 417.883 279.172 417.131 279.172ZM428.572 277.002H429.824C429.573 278.36 428.268 279.278 426.538 279.278C424.277 279.278 422.965 277.92 422.965 275.576V274.339C422.965 272.169 424.353 270.742 426.447 270.742C428.587 270.742 429.846 272.161 429.846 274.544V275.348H424.239V275.682C424.239 277.192 425.135 278.163 426.538 278.163C427.578 278.163 428.344 277.723 428.572 277.002ZM426.44 271.85C425.066 271.85 424.239 272.791 424.239 274.369H428.572C428.572 272.799 427.767 271.85 426.44 271.85ZM435.05 270.758C436.226 270.758 437.083 271.243 437.516 272.154H437.652V270.894H438.927V281.903H437.614V277.852H437.47C437.114 278.755 436.241 279.263 435.05 279.263C433.145 279.263 431.901 277.89 431.901 275.78V274.248C431.901 272.131 433.145 270.758 435.05 270.758ZM435.422 271.941C434.064 271.941 433.199 272.912 433.199 274.43V275.613C433.199 277.131 434.064 278.11 435.422 278.11C436.78 278.11 437.645 277.139 437.645 275.613V274.43C437.645 272.912 436.78 271.941 435.422 271.941ZM448.152 270.894V279.126H446.915V277.677H446.809C446.369 278.702 445.428 279.278 444.176 279.278C442.385 279.278 441.414 278.208 441.414 276.236V270.894H442.704V275.909C442.704 277.397 443.311 278.095 444.593 278.095C445.952 278.095 446.862 277.146 446.862 275.742V270.894H448.152ZM453.166 279.271C451.595 279.271 450.548 278.284 450.548 276.79C450.548 275.333 451.595 274.468 453.469 274.369L455.73 274.255V273.512C455.73 272.48 455.1 271.911 453.955 271.911C453.006 271.911 452.339 272.313 452.126 273.019H450.859C451.011 271.698 452.285 270.795 453.97 270.795C455.905 270.795 457.012 271.782 457.012 273.497V279.134H455.783V277.897H455.654C455.26 278.777 454.364 279.271 453.166 279.271ZM453.537 278.14C454.782 278.14 455.73 277.313 455.73 276.213V275.242L453.613 275.34C452.46 275.393 451.853 275.887 451.853 276.744C451.853 277.609 452.498 278.14 453.537 278.14ZM466.814 279.126H459.993V278.057H462.808V268.732H460.016V267.662H464.098V278.057H466.814V279.126ZM469.438 273.117C469.438 271.691 470.652 270.735 472.465 270.735C474.18 270.735 475.341 271.592 475.492 272.965H474.248C474.096 272.245 473.406 271.805 472.442 271.805C471.395 271.805 470.72 272.29 470.72 273.041C470.72 273.671 471.145 274.028 472.177 274.255L473.338 274.521C474.939 274.885 475.667 275.583 475.667 276.774C475.667 278.292 474.4 279.278 472.45 279.278C470.583 279.278 469.347 278.406 469.202 276.994H470.515C470.705 277.753 471.433 278.193 472.495 278.193C473.618 278.193 474.332 277.685 474.332 276.896C474.332 276.243 473.929 275.894 472.882 275.659L471.661 275.378C470.174 275.037 469.438 274.286 469.438 273.117ZM487.379 271.258C487.379 269.331 488.805 267.95 490.801 267.95C492.811 267.95 494.192 269.195 494.192 271.023C494.192 272.161 493.676 273.072 491.931 274.976L489.352 277.783V277.912H494.367V279.126H487.44V278.201L491.142 274.081C492.531 272.525 492.865 271.941 492.865 271.076C492.865 269.9 492.038 269.126 490.763 269.126C489.503 269.126 488.669 269.968 488.669 271.258V271.304H487.379V271.258ZM149.84 299.377C147.457 299.377 146.145 297.343 146.145 293.656C146.145 289.968 147.457 287.935 149.84 287.935C152.215 287.935 153.535 289.968 153.535 293.656C153.535 297.343 152.215 299.377 149.84 299.377ZM147.472 293.656C147.472 294.088 147.495 294.491 147.526 294.862L151.941 291.175C151.585 289.817 150.872 289.119 149.84 289.119C148.292 289.119 147.472 290.682 147.472 293.656ZM149.84 298.193C151.388 298.193 152.199 296.623 152.199 293.656C152.199 293.216 152.184 292.814 152.146 292.434L147.746 296.152C148.102 297.495 148.808 298.193 149.84 298.193ZM159.057 299.377C156.674 299.377 155.362 297.343 155.362 293.656C155.362 289.968 156.674 287.935 159.057 287.935C161.432 287.935 162.752 289.968 162.752 293.656C162.752 297.343 161.432 299.377 159.057 299.377ZM156.69 293.656C156.69 294.088 156.712 294.491 156.743 294.862L161.159 291.175C160.802 289.817 160.089 289.119 159.057 289.119C157.509 289.119 156.69 290.682 156.69 293.656ZM159.057 298.193C160.605 298.193 161.417 296.623 161.417 293.656C161.417 293.216 161.401 292.814 161.364 292.434L156.963 296.152C157.319 297.495 158.025 298.193 159.057 298.193Z" fill="#00B51D"/>
<path d="M397.043 273.648C397.043 271.076 397.817 268.838 399.327 267.123H400.609C399.038 269.331 398.378 271.266 398.378 273.648C398.378 276.031 399.038 277.966 400.609 280.174H399.327C397.817 278.459 397.043 276.228 397.043 273.648ZM409.568 273.648C409.568 276.228 408.794 278.459 407.284 280.174H406.002C407.573 277.966 408.233 276.031 408.233 273.648C408.233 271.266 407.573 269.331 406.002 267.123H407.284C408.794 268.838 409.568 271.076 409.568 273.648ZM479.998 273.648C479.998 271.076 480.772 268.838 482.282 267.123H483.564C481.993 269.331 481.333 271.266 481.333 273.648C481.333 276.031 481.993 277.966 483.564 280.174H482.282C480.772 278.459 479.998 276.228 479.998 273.648ZM169.921 293.648C169.921 296.228 169.147 298.459 167.637 300.174H166.355C167.925 297.966 168.585 296.031 168.585 293.648C168.585 291.266 167.925 289.331 166.355 287.123H167.637C169.147 288.838 169.921 291.076 169.921 293.648Z" fill="#EEEEEE"/>
<path d="M133.742 298.138V311.166H129.728V310.126H132.483V299.178H129.743V298.138H133.742ZM110.307 332.166V331.126H111.135C112.273 331.126 112.493 330.861 112.493 329.541V327.515C112.493 326.453 113.289 325.747 114.83 325.717V325.595C113.289 325.557 112.493 324.852 112.493 323.789V321.764C112.493 320.443 112.273 320.178 111.135 320.178H110.307V319.138H111.339C113.183 319.138 113.767 319.723 113.767 321.597V323.296C113.767 324.472 114.45 325.148 116.226 324.965V326.339C114.45 326.157 113.767 326.84 113.767 328.008V329.708C113.767 331.582 113.183 332.166 111.339 332.166H110.307ZM91.873 352.166V351.126H92.7001C93.8382 351.126 94.0582 350.861 94.0582 349.541V347.515C94.0582 346.453 94.8549 345.747 96.3952 345.717V345.595C94.8549 345.557 94.0582 344.852 94.0582 343.789V341.764C94.0582 340.443 93.8382 340.178 92.7001 340.178H91.873V339.138H92.9049C94.7487 339.138 95.3329 339.723 95.3329 341.597V343.296C95.3329 344.472 96.0158 345.148 97.7912 344.965V346.339C96.0158 346.157 95.3329 346.84 95.3329 348.008V349.708C95.3329 351.582 94.7487 352.166 92.9049 352.166H91.873ZM105.703 345.648C105.703 348.228 104.93 350.459 103.42 352.174H102.137C103.708 349.966 104.368 348.031 104.368 345.648C104.368 343.266 103.708 341.331 102.137 339.123H103.42C104.93 340.838 105.703 343.076 105.703 345.648Z" fill="#EEEEEE"/>
<path d="M140.228 312.645H139.006L139.947 307.714H141.654L140.228 312.645Z" fill="white"/>
</g>
<defs>
<filter id="filter0_d_801_16148" x="0.000110626" y="0.000197411" width="649.058" height="455.058" filterUnits="userSpaceOnUse" color-interpolation-filters="sRGB">
<feFlood flood-opacity="0" result="BackgroundImageFix"/>
<feColorMatrix in="SourceAlpha" type="matrix" values="0 0 0 0 0 0 0 0 0 0 0 0 0 0 0 0 0 0 127 0" result="hardAlpha"/>
<feOffset dy="5.90292"/>
<feGaussianBlur stdDeviation="29.5146"/>
<feColorMatrix type="matrix" values="0 0 0 0 0 0 0 0 0 0 0 0 0 0 0 0 0 0 0.05 0"/>
<feBlend mode="normal" in2="BackgroundImageFix" result="effect1_dropShadow_801_16148"/>
<feBlend mode="normal" in="SourceGraphic" in2="effect1_dropShadow_801_16148" result="shape"/>
</filter>
</defs>
</svg>
