<svg width="529" height="293" viewBox="0 0 529 293" fill="none" xmlns="http://www.w3.org/2000/svg">
<path d="M31.434 38V29.7676H32.6708V31.2168H32.777C33.2171 30.1925 34.1579 29.6159 35.4098 29.6159C37.2005 29.6159 38.1717 30.6857 38.1717 32.6584V38H36.8818V32.9847C36.8818 31.4976 36.2748 30.7995 34.9925 30.7995C33.6344 30.7995 32.7239 31.748 32.7239 33.1516V38H31.434ZM46.2432 35.8755H47.4951C47.2447 37.2337 45.9397 38.1517 44.2097 38.1517C41.9487 38.1517 40.6361 36.7936 40.6361 34.4491V33.2123C40.6361 31.0423 42.0246 29.6159 44.1187 29.6159C46.2584 29.6159 47.5179 31.0347 47.5179 33.4172V34.2215H41.9108V34.5553C41.9108 36.0652 42.8061 37.0364 44.2097 37.0364C45.2492 37.0364 46.0156 36.5963 46.2432 35.8755ZM44.1111 30.7237C42.7378 30.7237 41.9108 31.6645 41.9108 33.2427H46.2432C46.2432 31.6721 45.4389 30.7237 44.1111 30.7237ZM39.2491 49.7676L37.4812 58H36.2445L34.8484 51.581H34.7573L33.3612 58H32.1245L30.3566 49.7676H31.6161L32.7315 56.3687H32.8681L34.1959 49.7752H35.4098L36.7376 56.3687H36.8742L37.9896 49.7676H39.2491Z" fill="white"/>
<path d="M74.633 48L73.6845 44.8588H69.8756L68.9196 48H67.5615L71.0896 37.0513H72.5161L76.0442 48H74.633ZM71.7649 38.6599L70.2247 43.7131H73.3355L71.8028 38.6599H71.7649ZM81.536 39.6311C83.4405 39.6311 84.6848 41.0044 84.6848 43.1213V44.6539C84.6848 46.7632 83.4405 48.1366 81.536 48.1366C80.3448 48.1366 79.4722 47.6282 79.1156 46.7253H78.9715V50.777H77.6588V39.7676H78.9335V41.0271H79.0701C79.5026 40.1167 80.36 39.6311 81.536 39.6311ZM81.1642 40.8147C79.8061 40.8147 78.9411 41.7859 78.9411 43.3034V44.487C78.9411 46.0121 79.8061 46.9833 81.1642 46.9833C82.5224 46.9833 83.3873 46.0045 83.3873 44.487V43.3034C83.3873 41.7859 82.5224 40.8147 81.1642 40.8147ZM90.3814 37.7494C89.7744 37.7494 89.3116 37.2941 89.3116 36.6871C89.3116 36.0877 89.7744 35.6325 90.3814 35.6325C90.9884 35.6325 91.4513 36.0877 91.4513 36.6871C91.4513 37.2941 90.9884 37.7494 90.3814 37.7494ZM93.8337 48H87.0126V46.9302H89.8351V40.8375H87.0354V39.7676H91.1098V46.9302H93.8337V48ZM99.7049 46.9605C101.162 46.9605 102.087 46.088 102.125 44.6767H103.476C103.476 46.7936 101.943 48.2276 99.7049 48.2276C97.1327 48.2276 95.638 46.4901 95.638 43.5007V41.5507C95.638 38.5612 97.1327 36.8237 99.7049 36.8237C102.011 36.8237 103.438 38.2274 103.483 40.5643H102.125C102.08 39.0848 101.101 38.0908 99.6973 38.0908C97.9294 38.0908 97.0038 39.282 97.0038 41.5507V43.5007C97.0038 45.7693 97.9294 46.9605 99.7049 46.9605ZM105.295 48V36.5354H106.54V41.2244H106.646C107.078 40.2001 108.027 39.6235 109.286 39.6235C111.077 39.6235 112.048 40.7009 112.048 42.666V48H110.758V42.9923C110.758 41.5127 110.151 40.8071 108.861 40.8071C107.503 40.8071 106.585 41.7555 106.585 43.1592V48H105.295ZM120.112 45.8755H121.364C121.114 47.2337 119.809 48.1517 118.079 48.1517C115.818 48.1517 114.505 46.7936 114.505 44.4491V43.2123C114.505 41.0423 115.893 39.6159 117.988 39.6159C120.127 39.6159 121.387 41.0347 121.387 43.4172V44.2215H115.78V44.5553C115.78 46.0652 116.675 47.0364 118.079 47.0364C119.118 47.0364 119.884 46.5963 120.112 45.8755ZM117.98 40.7237C116.607 40.7237 115.78 41.6645 115.78 43.2427H120.112C120.112 41.6721 119.308 40.7237 117.98 40.7237ZM130.536 42.3322H129.261C129.102 41.3686 128.297 40.7616 127.235 40.7616C125.801 40.7616 125.004 41.7404 125.004 43.5082V44.2518C125.004 46.0197 125.801 46.9909 127.235 46.9909C128.297 46.9909 129.102 46.3915 129.261 45.4506H130.536C130.331 47.1274 129.079 48.1517 127.258 48.1517C125.02 48.1517 123.715 46.7784 123.715 44.4187V43.3413C123.715 40.9816 125.02 39.6083 127.258 39.6083C129.079 39.6083 130.323 40.6402 130.536 42.3322ZM134.95 43.4627L138.539 39.7676H140.102L136.908 43.0302L140.33 48H138.797L135.99 43.9104L134.851 45.003V48H133.562V36.5354H134.851V43.4627H134.95Z" fill="#00B51D"/>
<path d="M143.887 42.5219C143.887 39.9497 144.66 37.7114 146.17 35.9967H147.453C145.882 38.2046 145.222 40.1394 145.222 42.5219C145.222 44.9043 145.882 46.8391 147.453 49.0471H146.17C144.66 47.3323 143.887 45.1016 143.887 42.5219ZM295.975 49.0395H294.943C293.099 49.0395 292.515 48.4552 292.515 46.5811V44.8816C292.515 43.7131 291.832 43.0302 290.057 43.2123V41.839C291.832 42.0211 292.515 41.3458 292.515 40.1698V38.4702C292.515 36.5961 293.099 36.0119 294.943 36.0119H295.975V37.0513H295.148C294.01 37.0513 293.79 37.3169 293.79 38.6371V40.663C293.79 41.7252 292.993 42.4308 291.453 42.4688V42.5902C292.993 42.6205 293.79 43.3261 293.79 44.3884V46.4142C293.79 47.7344 294.01 48 295.148 48H295.975V49.0395Z" fill="#EEEEEE"/>
<path d="M155.448 41.9908H154.067V37.0513H155.448V41.9908ZM160.599 48V36.5354H161.843V41.2244H161.949C162.382 40.2001 163.33 39.6235 164.59 39.6235C166.38 39.6235 167.351 40.7009 167.351 42.666V48H166.062V42.9923C166.062 41.5127 165.455 40.8071 164.165 40.8071C162.807 40.8071 161.888 41.7555 161.888 43.1592V48H160.599ZM175.415 45.8755H176.667C176.417 47.2337 175.112 48.1517 173.382 48.1517C171.121 48.1517 169.808 46.7936 169.808 44.4491V43.2123C169.808 41.0423 171.197 39.6159 173.291 39.6159C175.431 39.6159 176.69 41.0347 176.69 43.4172V44.2215H171.083V44.5553C171.083 46.0652 171.978 47.0364 173.382 47.0364C174.421 47.0364 175.188 46.5963 175.415 45.8755ZM173.283 40.7237C171.91 40.7237 171.083 41.6645 171.083 43.2427H175.415C175.415 41.6721 174.611 40.7237 173.283 40.7237ZM186.006 48H179.185V46.9302H182V37.6052H179.208V36.5354H183.29V46.9302H186.006V48ZM195.223 48H188.402V46.9302H191.217V37.6052H188.425V36.5354H192.507V46.9302H195.223V48ZM200.844 48.1517C198.666 48.1517 197.278 46.7329 197.278 44.5098V43.2654C197.278 41.0423 198.666 39.6235 200.844 39.6235C203.021 39.6235 204.41 41.0423 204.41 43.2654V44.5098C204.41 46.7329 203.021 48.1517 200.844 48.1517ZM200.844 40.7616C199.433 40.7616 198.552 41.7631 198.552 43.3793V44.3884C198.552 46.0121 199.433 47.006 200.844 47.006C202.255 47.006 203.135 46.0121 203.135 44.3884V43.3793C203.135 41.7631 202.255 40.7616 200.844 40.7616ZM214.075 43.7434H206.047V42.5446H214.075V43.7434ZM218.444 48.1442C216.873 48.1442 215.826 47.1578 215.826 45.6631C215.826 44.2063 216.873 43.3413 218.747 43.2427L221.008 43.1289V42.3853C221.008 41.3534 220.378 40.7843 219.233 40.7843C218.284 40.7843 217.617 41.1865 217.404 41.8921H216.137C216.289 40.5719 217.564 39.669 219.248 39.669C221.183 39.669 222.291 40.6554 222.291 42.3701V48.0076H221.061V46.7708H220.932C220.538 47.651 219.642 48.1442 218.444 48.1442ZM218.815 47.0136C220.06 47.0136 221.008 46.1866 221.008 45.0864V44.1152L218.891 44.2139C217.738 44.267 217.131 44.7602 217.131 45.6175C217.131 46.4825 217.776 47.0136 218.815 47.0136ZM229.011 39.6311C230.916 39.6311 232.16 41.0044 232.16 43.1213V44.6539C232.16 46.7632 230.916 48.1366 229.011 48.1366C227.82 48.1366 226.948 47.6282 226.591 46.7253H226.447V50.777H225.134V39.7676H226.409V41.0271H226.546C226.978 40.1167 227.835 39.6311 229.011 39.6311ZM228.64 40.8147C227.282 40.8147 226.417 41.7859 226.417 43.3034V44.487C226.417 46.0121 227.282 46.9833 228.64 46.9833C229.998 46.9833 230.863 46.0045 230.863 44.487V43.3034C230.863 41.7859 229.998 40.8147 228.64 40.8147ZM237.857 37.7494C237.25 37.7494 236.787 37.2941 236.787 36.6871C236.787 36.0877 237.25 35.6325 237.857 35.6325C238.464 35.6325 238.927 36.0877 238.927 36.6871C238.927 37.2941 238.464 37.7494 237.857 37.7494ZM241.309 48H234.488V46.9302H237.311V40.8375H234.511V39.7676H238.585V46.9302H241.309V48ZM250.944 43.7434H242.916V42.5446H250.944V43.7434ZM260.282 48H252.649V46.8239H255.882V38.5688H255.76L252.627 40.5947V39.1682L255.889 37.0513H257.202V46.8239H260.282V48ZM266.055 41.9908H264.674V37.0513H266.055V41.9908Z" fill="#FD4B28"/>
<path d="M273.891 50.519H272.67L273.61 45.5872H275.318L273.891 50.519Z" fill="white"/>
<path d="M49.8685 69V60.7676H51.1052V62.2168H51.2114C51.6515 61.1925 52.5923 60.6159 53.8443 60.6159C55.6349 60.6159 56.6061 61.6857 56.6061 63.6584V69H55.3162V63.9847C55.3162 62.4976 54.7092 61.7995 53.427 61.7995C52.0688 61.7995 51.1583 62.748 51.1583 64.1516V69H49.8685ZM61.6199 69.1442C60.0493 69.1442 59.0022 68.1578 59.0022 66.6631C59.0022 65.2063 60.0493 64.3413 61.9234 64.2427L64.1844 64.1289V63.3853C64.1844 62.3534 63.5547 61.7843 62.409 61.7843C61.4605 61.7843 60.7928 62.1865 60.5804 62.8921H59.3133C59.465 61.5719 60.7397 60.669 62.4241 60.669C64.3589 60.669 65.4667 61.6554 65.4667 63.3701V69.0076H64.2375V67.7708H64.1086C63.714 68.651 62.8187 69.1442 61.6199 69.1442ZM61.9917 68.0136C63.236 68.0136 64.1844 67.1866 64.1844 66.0864V65.1152L62.0675 65.2139C60.9142 65.267 60.3072 65.7602 60.3072 66.6175C60.3072 67.4825 60.9522 68.0136 61.9917 68.0136ZM75.6399 62.9376V69H74.4791V63.317C74.4791 62.3155 74.1149 61.7919 73.4244 61.7919C72.7036 61.7919 72.2635 62.4217 72.2635 63.446V69H71.1102V63.3094C71.1102 62.3155 70.746 61.7919 70.048 61.7919C69.3196 61.7919 68.8644 62.4217 68.8644 63.446V69H67.7035V60.7676H68.8568V61.9285H68.9933C69.1982 61.1015 69.79 60.6159 70.5639 60.6159C71.3379 60.6159 71.8842 61.0939 72.0587 61.9057H72.1952C72.4077 61.1167 73.0678 60.6159 73.8948 60.6159C75.0405 60.6159 75.6399 61.4126 75.6399 62.9376ZM83.112 66.8755H84.364C84.1136 68.2337 82.8085 69.1517 81.0786 69.1517C78.8176 69.1517 77.5049 67.7936 77.5049 65.4491V64.2123C77.5049 62.0423 78.8934 60.6159 80.9876 60.6159C83.1272 60.6159 84.3867 62.0347 84.3867 64.4172V65.2215H78.7796V65.5553C78.7796 67.0652 79.6749 68.0364 81.0786 68.0364C82.1181 68.0364 82.8844 67.5963 83.112 66.8755ZM80.98 61.7237C79.6066 61.7237 78.7796 62.6645 78.7796 64.2427H83.112C83.112 62.6721 82.3078 61.7237 80.98 61.7237Z" fill="#EEEEEE"/>
<path d="M90.1061 63.2184C89.355 63.2184 88.7328 62.581 88.7328 61.8147C88.7328 61.0484 89.355 60.411 90.1061 60.411C90.8573 60.411 91.4795 61.0484 91.4795 61.8147C91.4795 62.581 90.8573 63.2184 90.1061 63.2184ZM90.1061 69.0455C89.355 69.0455 88.7328 68.4158 88.7328 67.6418C88.7328 66.8755 89.355 66.2458 90.1061 66.2458C90.8573 66.2458 91.4795 66.8755 91.4795 67.6418C91.4795 68.4158 90.8573 69.0455 90.1061 69.0455Z" fill="white"/>
<path d="M109.493 62.9908H108.112V58.0513H109.493V62.9908ZM121.662 69H120.334V64.0226H115.706V69H114.378V58.0513H115.706V62.7935H120.334V58.0513H121.662V69ZM129.46 66.8755H130.712C130.462 68.2337 129.157 69.1517 127.427 69.1517C125.166 69.1517 123.853 67.7936 123.853 65.4491V64.2123C123.853 62.0423 125.242 60.6159 127.336 60.6159C129.476 60.6159 130.735 62.0347 130.735 64.4172V65.2215H125.128V65.5553C125.128 67.0652 126.023 68.0364 127.427 68.0364C128.466 68.0364 129.233 67.5963 129.46 66.8755ZM127.328 61.7237C125.955 61.7237 125.128 62.6645 125.128 64.2427H129.46C129.46 62.6721 128.656 61.7237 127.328 61.7237ZM140.051 69H133.23V67.9302H136.045V58.6052H133.253V57.5354H137.335V67.9302H140.051V69ZM149.268 69H142.447V67.9302H145.262V58.6052H142.47V57.5354H146.552V67.9302H149.268V69ZM154.889 69.1517C152.711 69.1517 151.323 67.7329 151.323 65.5098V64.2654C151.323 62.0423 152.711 60.6235 154.889 60.6235C157.067 60.6235 158.455 62.0423 158.455 64.2654V65.5098C158.455 67.7329 157.067 69.1517 154.889 69.1517ZM154.889 61.7616C153.478 61.7616 152.598 62.7631 152.598 64.3793V65.3884C152.598 67.0121 153.478 68.006 154.889 68.006C156.3 68.006 157.18 67.0121 157.18 65.3884V64.3793C157.18 62.7631 156.3 61.7616 154.889 61.7616ZM176.153 69L175.205 65.8588H171.396L170.44 69H169.082L172.61 58.0513H174.037L177.565 69H176.153ZM173.285 59.6599L171.745 64.7131H174.856L173.323 59.6599H173.285ZM179.24 58.0513H182.882C185.006 58.0513 186.395 59.4398 186.395 61.5643C186.395 63.6812 184.991 65.0697 182.852 65.0697H180.583V69H179.24V58.0513ZM180.583 59.2426V63.8785H182.548C184.142 63.8785 185.037 63.0515 185.037 61.5643C185.037 60.0696 184.142 59.2426 182.548 59.2426H180.583ZM194.641 69H188.875V67.8088H191.09V59.2426H188.875V58.0513H194.641V59.2426H192.425V67.8088H194.641V69ZM201.665 62.9908H200.285V58.0513H201.665V62.9908Z" fill="#FD4B28"/>
<path d="M209.502 71.519H208.28L209.221 66.5872H210.928L209.502 71.519Z" fill="white"/>
<path d="M52.4027 89.1442C50.8321 89.1442 49.785 88.1578 49.785 86.6631C49.785 85.2063 50.8321 84.3413 52.7062 84.2427L54.9672 84.1289V83.3853C54.9672 82.3534 54.3375 81.7843 53.1918 81.7843C52.2433 81.7843 51.5756 82.1865 51.3632 82.8921H50.0961C50.2478 81.5719 51.5225 80.669 53.2069 80.669C55.1417 80.669 56.2495 81.6554 56.2495 83.3701V89.0076H55.0203V87.7708H54.8913C54.4968 88.651 53.6015 89.1442 52.4027 89.1442ZM52.7744 88.0136C54.0188 88.0136 54.9672 87.1866 54.9672 86.0864V85.1152L52.8503 85.2139C51.697 85.267 51.09 85.7602 51.09 86.6175C51.09 87.4825 51.735 88.0136 52.7744 88.0136ZM65.884 83.3322H64.6093C64.45 82.3686 63.6457 81.7616 62.5835 81.7616C61.1495 81.7616 60.3528 82.7404 60.3528 84.5082V85.2518C60.3528 87.0197 61.1495 87.9909 62.5835 87.9909C63.6457 87.9909 64.45 87.3915 64.6093 86.4506H65.884C65.6792 88.1274 64.4272 89.1517 62.6062 89.1517C60.3679 89.1517 59.0629 87.7784 59.0629 85.4187V84.3413C59.0629 81.9816 60.3679 80.6083 62.6062 80.6083C64.4272 80.6083 65.6716 81.6402 65.884 83.3322ZM70.268 78.5597H71.5427V80.7904H74.8812V81.8906H71.5579V86.5341C71.5579 87.4294 72.1877 87.915 73.3485 87.915C73.8114 87.915 74.6384 87.8922 74.8584 87.8695V88.9621C74.6536 89 73.652 89.0379 73.2575 89.0379C71.2165 89.0379 70.268 88.264 70.268 86.5493V81.8906H68.0753V80.7904H70.268V78.5597ZM81.0331 78.7494C80.4261 78.7494 79.9633 78.2941 79.9633 77.6871C79.9633 77.0877 80.4261 76.6325 81.0331 76.6325C81.6401 76.6325 82.1029 77.0877 82.1029 77.6871C82.1029 78.2941 81.6401 78.7494 81.0331 78.7494ZM84.4854 89H77.6643V87.9302H80.4868V81.8375H77.687V80.7676H81.7615V87.9302H84.4854V89ZM86.3883 80.7676H87.7692L90.0682 87.6191H90.1668L92.4507 80.7676H93.824L90.8194 89H89.4005L86.3883 80.7676ZM98.4887 89.1442C96.9181 89.1442 95.8711 88.1578 95.8711 86.6631C95.8711 85.2063 96.9181 84.3413 98.7922 84.2427L101.053 84.1289V83.3853C101.053 82.3534 100.424 81.7843 99.2778 81.7843C98.3294 81.7843 97.6617 82.1865 97.4493 82.8921H96.1822C96.3339 81.5719 97.6086 80.669 99.293 80.669C101.228 80.669 102.336 81.6554 102.336 83.3701V89.0076H101.106V87.7708H100.977C100.583 88.651 99.6876 89.1442 98.4887 89.1442ZM98.8605 88.0136C100.105 88.0136 101.053 87.1866 101.053 86.0864V85.1152L98.9364 85.2139C97.7831 85.267 97.1761 85.7602 97.1761 86.6175C97.1761 87.4825 97.821 88.0136 98.8605 88.0136ZM107.137 78.5597H108.412V80.7904H111.75V81.8906H108.427V86.5341C108.427 87.4294 109.057 87.915 110.217 87.915C110.68 87.915 111.507 87.8922 111.727 87.8695V88.9621C111.522 89 110.521 89.0379 110.126 89.0379C108.085 89.0379 107.137 88.264 107.137 86.5493V81.8906H104.944V80.7904H107.137V78.5597ZM119.981 86.8755H121.233C120.982 88.2337 119.677 89.1517 117.947 89.1517C115.686 89.1517 114.374 87.7936 114.374 85.4491V84.2123C114.374 82.0423 115.762 80.6159 117.856 80.6159C119.996 80.6159 121.256 82.0347 121.256 84.4172V85.2215H115.648V85.5553C115.648 87.0652 116.544 88.0364 117.947 88.0364C118.987 88.0364 119.753 87.5963 119.981 86.8755ZM117.849 81.7237C116.476 81.7237 115.648 82.6645 115.648 84.2427H119.981C119.981 82.6721 119.177 81.7237 117.849 81.7237ZM126.459 89.1366C124.555 89.1366 123.31 87.7632 123.31 85.6464V84.1137C123.31 82.0044 124.555 80.6311 126.459 80.6311C127.65 80.6311 128.53 81.1394 128.887 82.0423H129.024V77.5354H130.336V89H129.069V87.7405H128.925C128.5 88.651 127.635 89.1366 126.459 89.1366ZM126.838 87.9605C128.189 87.9605 129.062 86.9893 129.062 85.4643V84.2806C129.062 82.7631 128.189 81.7919 126.838 81.7919C125.48 81.7919 124.608 82.7631 124.608 84.2806V85.4643C124.608 86.9817 125.48 87.9605 126.838 87.9605Z" fill="#EEEEEE"/>
<path d="M136.192 83.2184C135.441 83.2184 134.819 82.581 134.819 81.8147C134.819 81.0484 135.441 80.411 136.192 80.411C136.943 80.411 137.566 81.0484 137.566 81.8147C137.566 82.581 136.943 83.2184 136.192 83.2184ZM136.192 89.0455C135.441 89.0455 134.819 88.4158 134.819 87.6418C134.819 86.8755 135.441 86.2458 136.192 86.2458C136.943 86.2458 137.566 86.8755 137.566 87.6418C137.566 88.4158 136.943 89.0455 136.192 89.0455Z" fill="white"/>
<path d="M153.399 78.5597H154.674V80.7904H158.012V81.8906H154.689V86.5341C154.689 87.4294 155.319 87.915 156.48 87.915C156.943 87.915 157.77 87.8922 157.99 87.8695V88.9621C157.785 89 156.783 89.0379 156.389 89.0379C154.348 89.0379 153.399 88.264 153.399 86.5493V81.8906H151.206V80.7904H153.399V78.5597ZM163.694 85.3125V87.9681H166.243V89H160.773V87.9681H162.434V81.7995H160.606V80.7676H163.679V82.8694H163.846C164.149 81.3443 165.173 80.5552 166.759 80.5552C167.23 80.5552 167.677 80.6235 167.95 80.7373V82.1865C167.571 82.0499 167.04 81.9589 166.592 81.9589C164.771 81.9589 163.694 83.2184 163.694 85.3125ZM176.606 80.7676V89H175.369V87.5508H175.263C174.823 88.5751 173.882 89.1517 172.63 89.1517C170.84 89.1517 169.868 88.0819 169.868 86.1092V80.7676H171.158V85.7829C171.158 87.2701 171.765 87.9681 173.048 87.9681C174.406 87.9681 175.316 87.0197 175.316 85.616V80.7676H176.606ZM184.678 86.8755H185.93C185.679 88.2337 184.374 89.1517 182.644 89.1517C180.383 89.1517 179.07 87.7936 179.07 85.4491V84.2123C179.07 82.0423 180.459 80.6159 182.553 80.6159C184.693 80.6159 185.952 82.0347 185.952 84.4172V85.2215H180.345V85.5553C180.345 87.0652 181.241 88.0364 182.644 88.0364C183.684 88.0364 184.45 87.5963 184.678 86.8755ZM182.546 81.7237C181.172 81.7237 180.345 82.6645 180.345 84.2427H184.678C184.678 82.6721 183.873 81.7237 182.546 81.7237Z" fill="#00B51D"/>
<path d="M190.981 91.519H189.76L190.701 86.5872H192.408L190.981 91.519Z" fill="white"/>
<path d="M52.911 106.313V108.968H55.4604V110H49.9899V108.968H51.6515V102.8H49.8229V101.768H52.8958V103.869H53.0628C53.3663 102.344 54.3906 101.555 55.9763 101.555C56.4468 101.555 56.8944 101.623 57.1676 101.737V103.186C56.7882 103.05 56.2571 102.959 55.8094 102.959C53.9884 102.959 52.911 104.218 52.911 106.313ZM64.6776 107.876H65.9295C65.6792 109.234 64.3741 110.152 62.6442 110.152C60.3831 110.152 59.0705 108.794 59.0705 106.449V105.212C59.0705 103.042 60.459 101.616 62.5531 101.616C64.6928 101.616 65.9523 103.035 65.9523 105.417V106.221H60.3452V106.555C60.3452 108.065 61.2405 109.036 62.6442 109.036C63.6837 109.036 64.45 108.596 64.6776 107.876ZM62.5455 102.724C61.1722 102.724 60.3452 103.664 60.3452 105.243H64.6776C64.6776 103.672 63.8733 102.724 62.5455 102.724ZM71.1558 101.631C72.3318 101.631 73.1892 102.117 73.6217 103.027H73.7583V101.768H75.0329V112.777H73.7203V108.725H73.5762C73.2195 109.628 72.347 110.137 71.1558 110.137C69.2513 110.137 68.007 108.763 68.007 106.654V105.121C68.007 103.004 69.2513 101.631 71.1558 101.631ZM71.5275 102.815C70.1694 102.815 69.3044 103.786 69.3044 105.303V106.487C69.3044 108.005 70.1694 108.983 71.5275 108.983C72.8857 108.983 73.7507 108.012 73.7507 106.487V105.303C73.7507 103.786 72.8857 102.815 71.5275 102.815ZM84.2577 101.768V110H83.021V108.551H82.9148C82.4747 109.575 81.5339 110.152 80.2819 110.152C78.4913 110.152 77.5201 109.082 77.5201 107.109V101.768H78.81V106.783C78.81 108.27 79.417 108.968 80.6992 108.968C82.0574 108.968 82.9679 108.02 82.9679 106.616V101.768H84.2577ZM92.3293 107.876H93.5812C93.3308 109.234 92.0258 110.152 90.2958 110.152C88.0348 110.152 86.7221 108.794 86.7221 106.449V105.212C86.7221 103.042 88.1106 101.616 90.2048 101.616C92.3444 101.616 93.6039 103.035 93.6039 105.417V106.221H87.9968V106.555C87.9968 108.065 88.8921 109.036 90.2958 109.036C91.3353 109.036 92.1016 108.596 92.3293 107.876ZM90.1972 102.724C88.8239 102.724 87.9968 103.664 87.9968 105.243H92.3293C92.3293 103.672 91.525 102.724 90.1972 102.724ZM96.3263 103.991C96.3263 102.564 97.5403 101.608 99.3537 101.608C101.068 101.608 102.229 102.466 102.381 103.839H101.137C100.985 103.118 100.295 102.678 99.3309 102.678C98.2839 102.678 97.6086 103.164 97.6086 103.915C97.6086 104.545 98.0335 104.901 99.0654 105.129L100.226 105.394C101.827 105.759 102.556 106.457 102.556 107.648C102.556 109.165 101.288 110.152 99.3385 110.152C97.472 110.152 96.2353 109.279 96.0911 107.868H97.4037C97.5934 108.627 98.3218 109.067 99.3841 109.067C100.507 109.067 101.22 108.558 101.22 107.769C101.22 107.117 100.818 106.768 99.771 106.533L98.5494 106.252C97.0623 105.91 96.3263 105.159 96.3263 103.991ZM107.137 99.5597H108.412V101.79H111.75V102.891H108.427V107.534C108.427 108.429 109.057 108.915 110.217 108.915C110.68 108.915 111.507 108.892 111.727 108.869V109.962C111.522 110 110.521 110.038 110.126 110.038C108.085 110.038 107.137 109.264 107.137 107.549V102.891H104.944V101.79H107.137V99.5597ZM139.151 111.039H138.119C136.276 111.039 135.691 110.455 135.691 108.581V106.882C135.691 105.713 135.009 105.03 133.233 105.212V103.839C135.009 104.021 135.691 103.346 135.691 102.17V100.47C135.691 98.5961 136.276 98.0119 138.119 98.0119H139.151V99.0513H138.324C137.186 99.0513 136.966 99.3169 136.966 100.637V102.663C136.966 103.725 136.169 104.431 134.629 104.469V104.59C136.169 104.621 136.966 105.326 136.966 106.388V108.414C136.966 109.734 137.186 110 138.324 110H139.151V111.039ZM75.6399 123.938V130H74.4791V124.317C74.4791 123.315 74.1149 122.792 73.4244 122.792C72.7036 122.792 72.2635 123.422 72.2635 124.446V130H71.1102V124.309C71.1102 123.315 70.746 122.792 70.048 122.792C69.3196 122.792 68.8644 123.422 68.8644 124.446V130H67.7035V121.768H68.8568V122.929H68.9933C69.1982 122.101 69.79 121.616 70.5639 121.616C71.3379 121.616 71.8842 122.094 72.0587 122.906H72.1952C72.4077 122.117 73.0678 121.616 73.8948 121.616C75.0405 121.616 75.6399 122.413 75.6399 123.938ZM83.112 127.876H84.364C84.1136 129.234 82.8085 130.152 81.0786 130.152C78.8176 130.152 77.5049 128.794 77.5049 126.449V125.212C77.5049 123.042 78.8934 121.616 80.9876 121.616C83.1272 121.616 84.3867 123.035 84.3867 125.417V126.221H78.7796V126.555C78.7796 128.065 79.6749 129.036 81.0786 129.036C82.1181 129.036 82.8844 128.596 83.112 127.876ZM80.98 122.724C79.6066 122.724 78.7796 123.664 78.7796 125.243H83.112C83.112 123.672 82.3078 122.724 80.98 122.724ZM88.7025 119.56H89.9772V121.79H93.3156V122.891H89.9923V127.534C89.9923 128.429 90.6221 128.915 91.783 128.915C92.2458 128.915 93.0728 128.892 93.2929 128.869V129.962C93.088 130 92.0865 130.038 91.6919 130.038C89.6509 130.038 88.7025 129.264 88.7025 127.549V122.891H86.5097V121.79H88.7025V119.56ZM95.9469 130V118.535H97.1913V123.224H97.2975C97.73 122.2 98.6784 121.623 99.9379 121.623C101.729 121.623 102.7 122.701 102.7 124.666V130H101.41V124.992C101.41 123.513 100.803 122.807 99.513 122.807C98.1549 122.807 97.2368 123.756 97.2368 125.159V130H95.9469ZM108.541 130.152C106.363 130.152 104.974 128.733 104.974 126.51V125.265C104.974 123.042 106.363 121.623 108.541 121.623C110.718 121.623 112.107 123.042 112.107 125.265V126.51C112.107 128.733 110.718 130.152 108.541 130.152ZM108.541 122.762C107.129 122.762 106.249 123.763 106.249 125.379V126.388C106.249 128.012 107.129 129.006 108.541 129.006C109.952 129.006 110.832 128.012 110.832 126.388V125.379C110.832 123.763 109.952 122.762 108.541 122.762ZM117.242 130.137C115.337 130.137 114.093 128.763 114.093 126.646V125.114C114.093 123.004 115.337 121.631 117.242 121.631C118.433 121.631 119.313 122.139 119.67 123.042H119.806V118.535H121.119V130H119.852V128.74H119.708C119.283 129.651 118.418 130.137 117.242 130.137ZM117.621 128.961C118.972 128.961 119.844 127.989 119.844 126.464V125.281C119.844 123.763 118.972 122.792 117.621 122.792C116.263 122.792 115.391 123.763 115.391 125.281V126.464C115.391 127.982 116.263 128.961 117.621 128.961Z" fill="#EEEEEE"/>
<path d="M117.758 104.218C117.007 104.218 116.384 103.581 116.384 102.815C116.384 102.048 117.007 101.411 117.758 101.411C118.509 101.411 119.131 102.048 119.131 102.815C119.131 103.581 118.509 104.218 117.758 104.218ZM117.758 110.046C117.007 110.046 116.384 109.416 116.384 108.642C116.384 107.876 117.007 107.246 117.758 107.246C118.509 107.246 119.131 107.876 119.131 108.642C119.131 109.416 118.509 110.046 117.758 110.046ZM126.975 124.218C126.224 124.218 125.602 123.581 125.602 122.815C125.602 122.048 126.224 121.411 126.975 121.411C127.726 121.411 128.348 122.048 128.348 122.815C128.348 123.581 127.726 124.218 126.975 124.218ZM126.975 130.046C126.224 130.046 125.602 129.416 125.602 128.642C125.602 127.876 126.224 127.246 126.975 127.246C127.726 127.246 128.348 127.876 128.348 128.642C128.348 129.416 127.726 130.046 126.975 130.046Z" fill="white"/>
<path d="M146.493 124.991H145.112V120.051H146.493V124.991ZM157.623 127.646V126.577H155.096V125.431H158.973V127.76C158.973 129.816 157.425 131.228 155.217 131.228C152.645 131.228 151.158 129.498 151.158 126.501V124.551C151.158 121.554 152.645 119.824 155.217 119.824C157.494 119.824 158.92 121.212 158.973 123.481H157.623C157.562 122.054 156.591 121.091 155.195 121.091C153.427 121.091 152.509 122.282 152.509 124.551V126.501C152.509 128.769 153.434 129.961 155.202 129.961C156.697 129.961 157.623 129.08 157.623 127.646ZM167.644 129.771V131H161.18V120.051H167.644V121.28H162.523V124.831H167.363V126.007H162.523V129.771H167.644ZM174.122 131H172.787V121.28H169.479V120.051H177.43V121.28H174.122V131ZM183.362 124.991H181.981V120.051H183.362V124.991Z" fill="#FD4B28"/>
<path d="M191.198 133.519H189.977L190.918 128.587H192.625L191.198 133.519Z" fill="white"/>
<path d="M38.1717 153.768V162H36.9349V160.551H36.8287C36.3886 161.575 35.4478 162.152 34.1959 162.152C32.4052 162.152 31.434 161.082 31.434 159.109V153.768H32.7239V158.783C32.7239 160.27 33.3309 160.968 34.6132 160.968C35.9713 160.968 36.8818 160.02 36.8818 158.616V153.768H38.1717ZM43.6938 158.313V160.968H46.2432V162H40.7726V160.968H42.4343V154.8H40.6057V153.768H43.6786V155.869H43.8456C44.149 154.344 45.1734 153.555 46.7591 153.555C47.2295 153.555 47.6772 153.623 47.9504 153.737V155.186C47.571 155.05 47.0399 154.959 46.5922 154.959C44.7712 154.959 43.6938 156.218 43.6938 158.313ZM56.8337 162H50.0126V160.93H52.8276V151.605H50.0354V150.535H54.1174V160.93H56.8337V162Z" fill="#EEEEEE"/>
<path d="M62.4545 156.218C61.7033 156.218 61.0812 155.581 61.0812 154.815C61.0812 154.048 61.7033 153.411 62.4545 153.411C63.2056 153.411 63.8278 154.048 63.8278 154.815C63.8278 155.581 63.2056 156.218 62.4545 156.218ZM62.4545 162.046C61.7033 162.046 61.0812 161.416 61.0812 160.642C61.0812 159.876 61.7033 159.246 62.4545 159.246C63.2056 159.246 63.8278 159.876 63.8278 160.642C63.8278 161.416 63.2056 162.046 62.4545 162.046Z" fill="white"/>
<path d="M118.493 135.991H117.112V131.051H118.493V135.991ZM123.644 142V130.535H124.888V135.224H124.994C125.427 134.2 126.375 133.623 127.635 133.623C129.425 133.623 130.396 134.701 130.396 136.666V142H129.107V136.992C129.107 135.513 128.5 134.807 127.21 134.807C125.852 134.807 124.934 135.756 124.934 137.159V142H123.644ZM134.834 131.56H136.108V133.79H139.447V134.891H136.123V139.534C136.123 140.429 136.753 140.915 137.914 140.915C138.377 140.915 139.204 140.892 139.424 140.869V141.962C139.219 142 138.218 142.038 137.823 142.038C135.782 142.038 134.834 141.264 134.834 139.549V134.891H132.641V133.79H134.834V131.56ZM144.051 131.56H145.326V133.79H148.664V134.891H145.341V139.534C145.341 140.429 145.97 140.915 147.131 140.915C147.594 140.915 148.421 140.892 148.641 140.869V141.962C148.436 142 147.435 142.038 147.04 142.038C144.999 142.038 144.051 141.264 144.051 139.549V134.891H141.858V133.79H144.051V131.56ZM155.188 133.631C157.092 133.631 158.336 135.004 158.336 137.121V138.654C158.336 140.763 157.092 142.137 155.188 142.137C153.996 142.137 153.124 141.628 152.767 140.725H152.623V144.777H151.31V133.768H152.585V135.027H152.722C153.154 134.117 154.012 133.631 155.188 133.631ZM154.816 134.815C153.458 134.815 152.593 135.786 152.593 137.303V138.487C152.593 140.012 153.458 140.983 154.816 140.983C156.174 140.983 157.039 140.005 157.039 138.487V137.303C157.039 135.786 156.174 134.815 154.816 134.815ZM160.892 135.991C160.892 134.564 162.106 133.608 163.919 133.608C165.634 133.608 166.795 134.466 166.947 135.839H165.702C165.551 135.118 164.86 134.678 163.897 134.678C162.849 134.678 162.174 135.164 162.174 135.915C162.174 136.545 162.599 136.901 163.631 137.129L164.792 137.394C166.393 137.759 167.121 138.457 167.121 139.648C167.121 141.165 165.854 142.152 163.904 142.152C162.038 142.152 160.801 141.279 160.657 139.868H161.969C162.159 140.627 162.887 141.067 163.95 141.067C165.073 141.067 165.786 140.558 165.786 139.769C165.786 139.117 165.384 138.768 164.337 138.533L163.115 138.252C161.628 137.91 160.892 137.159 160.892 135.991ZM173.106 136.218C172.355 136.218 171.733 135.581 171.733 134.815C171.733 134.048 172.355 133.411 173.106 133.411C173.857 133.411 174.479 134.048 174.479 134.815C174.479 135.581 173.857 136.218 173.106 136.218ZM173.106 142.046C172.355 142.046 171.733 141.416 171.733 140.642C171.733 139.876 172.355 139.246 173.106 139.246C173.857 139.246 174.479 139.876 174.479 140.642C174.479 141.416 173.857 142.046 173.106 142.046ZM180.282 143.039H179.023L184.357 130.012H185.624L180.282 143.039ZM189.5 143.039H188.24L193.574 130.012H194.841L189.5 143.039ZM199.923 142.144C198.353 142.144 197.306 141.158 197.306 139.663C197.306 138.206 198.353 137.341 200.227 137.243L202.488 137.129V136.385C202.488 135.353 201.858 134.784 200.712 134.784C199.764 134.784 199.096 135.186 198.884 135.892H197.617C197.768 134.572 199.043 133.669 200.727 133.669C202.662 133.669 203.77 134.655 203.77 136.37V142.008H202.541V140.771H202.412C202.017 141.651 201.122 142.144 199.923 142.144ZM200.295 141.014C201.539 141.014 202.488 140.187 202.488 139.086V138.115L200.371 138.214C199.218 138.267 198.611 138.76 198.611 139.618C198.611 140.483 199.255 141.014 200.295 141.014ZM210.491 133.631C212.395 133.631 213.64 135.004 213.64 137.121V138.654C213.64 140.763 212.395 142.137 210.491 142.137C209.3 142.137 208.427 141.628 208.071 140.725H207.926V144.777H206.614V133.768H207.888V135.027H208.025C208.458 134.117 209.315 133.631 210.491 133.631ZM210.119 134.815C208.761 134.815 207.896 135.786 207.896 137.303V138.487C207.896 140.012 208.761 140.983 210.119 140.983C211.477 140.983 212.342 140.005 212.342 138.487V137.303C212.342 135.786 211.477 134.815 210.119 134.815ZM219.336 131.749C218.729 131.749 218.267 131.294 218.267 130.687C218.267 130.088 218.729 129.632 219.336 129.632C219.943 129.632 220.406 130.088 220.406 130.687C220.406 131.294 219.943 131.749 219.336 131.749ZM222.789 142H215.968V140.93H218.79V134.837H215.99V133.768H220.065V140.93H222.789V142ZM228.409 142.046C227.658 142.046 227.036 141.416 227.036 140.642C227.036 139.876 227.658 139.246 228.409 139.246C229.161 139.246 229.783 139.876 229.783 140.642C229.783 141.416 229.161 142.046 228.409 142.046ZM241.056 136.332H239.781C239.622 135.369 238.818 134.762 237.756 134.762C236.322 134.762 235.525 135.74 235.525 137.508V138.252C235.525 140.02 236.322 140.991 237.756 140.991C238.818 140.991 239.622 140.391 239.781 139.451H241.056C240.851 141.127 239.599 142.152 237.778 142.152C235.54 142.152 234.235 140.778 234.235 138.419V137.341C234.235 134.982 235.54 133.608 237.778 133.608C239.599 133.608 240.844 134.64 241.056 136.332ZM243.467 142V130.535H244.712V135.224H244.818C245.251 134.2 246.199 133.623 247.458 133.623C249.249 133.623 250.22 134.701 250.22 136.666V142H248.93V136.992C248.93 135.513 248.323 134.807 247.034 134.807C245.675 134.807 244.757 135.756 244.757 137.159V142H243.467ZM258.284 139.876H259.536C259.286 141.234 257.981 142.152 256.251 142.152C253.99 142.152 252.677 140.794 252.677 138.449V137.212C252.677 135.042 254.066 133.616 256.16 133.616C258.299 133.616 259.559 135.035 259.559 137.417V138.221H253.952V138.555C253.952 140.065 254.847 141.036 256.251 141.036C257.29 141.036 258.057 140.596 258.284 139.876ZM256.152 134.724C254.779 134.724 253.952 135.664 253.952 137.243H258.284C258.284 135.672 257.48 134.724 256.152 134.724ZM268.708 136.332H267.433C267.274 135.369 266.47 134.762 265.407 134.762C263.973 134.762 263.177 135.74 263.177 137.508V138.252C263.177 140.02 263.973 140.991 265.407 140.991C266.47 140.991 267.274 140.391 267.433 139.451H268.708C268.503 141.127 267.251 142.152 265.43 142.152C263.192 142.152 261.887 140.778 261.887 138.419V137.341C261.887 134.982 263.192 133.608 265.43 133.608C267.251 133.608 268.495 134.64 268.708 136.332ZM273.122 137.463L276.711 133.768H278.274L275.08 137.03L278.502 142H276.969L274.162 137.91L273.024 139.003V142H271.734V130.535H273.024V137.463H273.122ZM287.309 142H280.488V140.93H283.303V131.605H280.511V130.535H284.593V140.93H287.309V142ZM290.623 144.929C290.434 144.929 290.183 144.921 290.069 144.906V143.775C290.168 143.798 290.403 143.806 290.525 143.806C291.299 143.806 291.724 143.457 292.065 142.501L292.209 142.053L289.182 133.768H290.585L292.892 140.657H292.991L295.29 133.768H296.663L293.56 142.303C292.839 144.329 292.148 144.929 290.623 144.929ZM298.771 142V130.535H300.015V135.224H300.121C300.554 134.2 301.502 133.623 302.762 133.623C304.552 133.623 305.524 134.701 305.524 136.666V142H304.234V136.992C304.234 135.513 303.627 134.807 302.337 134.807C300.979 134.807 300.061 135.756 300.061 137.159V142H298.771ZM310.848 133.631C312.024 133.631 312.882 134.117 313.314 135.027H313.451V133.768H314.726V144.777H313.413V140.725H313.269C312.912 141.628 312.04 142.137 310.848 142.137C308.944 142.137 307.7 140.763 307.7 138.654V137.121C307.7 135.004 308.944 133.631 310.848 133.631ZM311.22 134.815C309.862 134.815 308.997 135.786 308.997 137.303V138.487C308.997 140.005 309.862 140.983 311.22 140.983C312.578 140.983 313.443 140.012 313.443 138.487V137.303C313.443 135.786 312.578 134.815 311.22 134.815ZM320.582 142.046C319.83 142.046 319.208 141.416 319.208 140.642C319.208 139.876 319.83 139.246 320.582 139.246C321.333 139.246 321.955 139.876 321.955 140.642C321.955 141.416 321.333 142.046 320.582 142.046ZM333.228 136.332H331.954C331.794 135.369 330.99 134.762 329.928 134.762C328.494 134.762 327.697 135.74 327.697 137.508V138.252C327.697 140.02 328.494 140.991 329.928 140.991C330.99 140.991 331.794 140.391 331.954 139.451H333.228C333.023 141.127 331.772 142.152 329.951 142.152C327.712 142.152 326.407 140.778 326.407 138.419V137.341C326.407 134.982 327.712 133.608 329.951 133.608C331.772 133.608 333.016 134.64 333.228 136.332ZM339.016 142.152C336.838 142.152 335.45 140.733 335.45 138.51V137.265C335.45 135.042 336.838 133.623 339.016 133.623C341.194 133.623 342.582 135.042 342.582 137.265V138.51C342.582 140.733 341.194 142.152 339.016 142.152ZM339.016 134.762C337.605 134.762 336.725 135.763 336.725 137.379V138.388C336.725 140.012 337.605 141.006 339.016 141.006C340.427 141.006 341.307 140.012 341.307 138.388V137.379C341.307 135.763 340.427 134.762 339.016 134.762ZM352.201 135.938V142H351.041V136.317C351.041 135.315 350.676 134.792 349.986 134.792C349.265 134.792 348.825 135.422 348.825 136.446V142H347.672V136.309C347.672 135.315 347.308 134.792 346.61 134.792C345.881 134.792 345.426 135.422 345.426 136.446V142H344.265V133.768H345.418V134.929H345.555C345.76 134.101 346.352 133.616 347.125 133.616C347.899 133.616 348.446 134.094 348.62 134.906H348.757C348.969 134.117 349.629 133.616 350.456 133.616C351.602 133.616 352.201 134.413 352.201 135.938ZM355.409 143.039H354.15L359.484 130.012H360.751L355.409 143.039ZM367.184 133.631C369.088 133.631 370.332 135.004 370.332 137.121V138.654C370.332 140.763 369.088 142.137 367.184 142.137C365.992 142.137 365.12 141.628 364.763 140.725H364.619V144.777H363.306V133.768H364.581V135.027H364.718C365.15 134.117 366.008 133.631 367.184 133.631ZM366.812 134.815C365.454 134.815 364.589 135.786 364.589 137.303V138.487C364.589 140.012 365.454 140.983 366.812 140.983C368.17 140.983 369.035 140.005 369.035 138.487V137.303C369.035 135.786 368.17 134.815 366.812 134.815ZM379.254 133.768V142H378.017V140.551H377.911C377.471 141.575 376.53 142.152 375.278 142.152C373.487 142.152 372.516 141.082 372.516 139.109V133.768H373.806V138.783C373.806 140.27 374.413 140.968 375.695 140.968C377.053 140.968 377.964 140.02 377.964 138.616V133.768H379.254ZM385.618 142.137C384.442 142.137 383.577 141.651 383.152 140.74H383.008V142H381.741V130.535H383.053V135.042H383.19C383.554 134.139 384.427 133.631 385.618 133.631C387.522 133.631 388.767 135.004 388.767 137.114V138.646C388.767 140.763 387.522 142.137 385.618 142.137ZM385.239 140.961C386.604 140.961 387.469 139.982 387.469 138.464V137.281C387.469 135.763 386.604 134.792 385.239 134.792C383.888 134.792 383.023 135.763 383.023 137.281V138.464C383.023 139.989 383.888 140.961 385.239 140.961ZM397.916 142H391.095V140.93H393.91V131.605H391.117V130.535H395.199V140.93H397.916V142ZM403.681 131.749C403.074 131.749 402.611 131.294 402.611 130.687C402.611 130.088 403.074 129.632 403.681 129.632C404.288 129.632 404.751 130.088 404.751 130.687C404.751 131.294 404.288 131.749 403.681 131.749ZM407.133 142H400.312V140.93H403.134V134.837H400.335V133.768H404.409V140.93H407.133V142ZM416.183 136.332H414.909C414.749 135.369 413.945 134.762 412.883 134.762C411.449 134.762 410.652 135.74 410.652 137.508V138.252C410.652 140.02 411.449 140.991 412.883 140.991C413.945 140.991 414.749 140.391 414.909 139.451H416.183C415.978 141.127 414.726 142.152 412.905 142.152C410.667 142.152 409.362 140.778 409.362 138.419V137.341C409.362 134.982 410.667 133.608 412.905 133.608C414.726 133.608 415.971 134.64 416.183 136.332ZM425.985 137.743H417.957V136.545H425.985V137.743ZM114.806 155.991C114.806 154.564 116.02 153.608 117.833 153.608C119.548 153.608 120.709 154.466 120.861 155.839H119.616C119.464 155.118 118.774 154.678 117.81 154.678C116.763 154.678 116.088 155.164 116.088 155.915C116.088 156.545 116.513 156.901 117.545 157.129L118.706 157.394C120.307 157.759 121.035 158.457 121.035 159.648C121.035 161.165 119.768 162.152 117.818 162.152C115.952 162.152 114.715 161.279 114.571 159.868H115.883C116.073 160.627 116.801 161.067 117.864 161.067C118.986 161.067 119.7 160.558 119.7 159.769C119.7 159.117 119.298 158.768 118.251 158.533L117.029 158.252C115.542 157.91 114.806 157.159 114.806 155.991ZM125.616 151.56H126.891V153.79H130.23V154.891H126.906V159.534C126.906 160.429 127.536 160.915 128.697 160.915C129.16 160.915 129.987 160.892 130.207 160.869V161.962C130.002 162 129 162.038 128.606 162.038C126.565 162.038 125.616 161.264 125.616 159.549V154.891H123.424V153.79H125.616V151.56ZM135.403 162.144C133.832 162.144 132.785 161.158 132.785 159.663C132.785 158.206 133.832 157.341 135.706 157.243L137.967 157.129V156.385C137.967 155.353 137.337 154.784 136.192 154.784C135.243 154.784 134.576 155.186 134.363 155.892H133.096C133.248 154.572 134.523 153.669 136.207 153.669C138.142 153.669 139.249 154.655 139.249 156.37V162.008H138.02V160.771H137.891C137.497 161.651 136.601 162.144 135.403 162.144ZM135.774 161.014C137.019 161.014 137.967 160.187 137.967 159.086V158.115L135.85 158.214C134.697 158.267 134.09 158.76 134.09 159.618C134.09 160.483 134.735 161.014 135.774 161.014ZM144.051 151.56H145.326V153.79H148.664V154.891H145.341V159.534C145.341 160.429 145.97 160.915 147.131 160.915C147.594 160.915 148.421 160.892 148.641 160.869V161.962C148.436 162 147.435 162.038 147.04 162.038C144.999 162.038 144.051 161.264 144.051 159.549V154.891H141.858V153.79H144.051V151.56ZM151.675 155.991C151.675 154.564 152.889 153.608 154.702 153.608C156.417 153.608 157.578 154.466 157.729 155.839H156.485C156.333 155.118 155.643 154.678 154.679 154.678C153.632 154.678 152.957 155.164 152.957 155.915C152.957 156.545 153.382 156.901 154.414 157.129L155.575 157.394C157.176 157.759 157.904 158.457 157.904 159.648C157.904 161.165 156.637 162.152 154.687 162.152C152.82 162.152 151.584 161.279 151.439 159.868H152.752C152.942 160.627 153.67 161.067 154.732 161.067C155.855 161.067 156.569 160.558 156.569 159.769C156.569 159.117 156.166 158.768 155.119 158.533L153.898 158.252C152.411 157.91 151.675 157.159 151.675 155.991ZM164.579 155.991H163.198V151.051H164.579V155.991Z" fill="#FD4B28"/>
<path d="M172.416 164.519H171.194L172.135 159.587H173.842L172.416 164.519Z" fill="white"/>
<path d="M70.8371 162.144C69.2665 162.144 68.2194 161.158 68.2194 159.663C68.2194 158.206 69.2665 157.341 71.1406 157.243L73.4016 157.129V156.385C73.4016 155.353 72.7719 154.784 71.6262 154.784C70.6778 154.784 70.0101 155.186 69.7976 155.892H68.5305C68.6823 154.572 69.9569 153.669 71.6414 153.669C73.5762 153.669 74.6839 154.655 74.6839 156.37V162.008H73.4548V160.771H73.3258C72.9312 161.651 72.0359 162.144 70.8371 162.144ZM71.2089 161.014C72.4532 161.014 73.4016 160.187 73.4016 159.086V158.115L71.2847 158.214C70.1315 158.267 69.5245 158.76 69.5245 159.618C69.5245 160.483 70.1694 161.014 71.2089 161.014ZM77.8919 155.991C77.8919 154.564 79.1059 153.608 80.9193 153.608C82.634 153.608 83.7949 154.466 83.9467 155.839H82.7023C82.5506 155.118 81.8601 154.678 80.8965 154.678C79.8494 154.678 79.1742 155.164 79.1742 155.915C79.1742 156.545 79.5991 156.901 80.6309 157.129L81.7918 157.394C83.3928 157.759 84.1212 158.457 84.1212 159.648C84.1212 161.165 82.8541 162.152 80.9041 162.152C79.0376 162.152 77.8008 161.279 77.6567 159.868H78.9693C79.159 160.627 79.8874 161.067 80.9496 161.067C82.0726 161.067 82.7858 160.558 82.7858 159.769C82.7858 159.117 82.3836 158.768 81.3366 158.533L80.115 158.252C78.6279 157.91 77.8919 157.159 77.8919 155.991ZM87.1091 155.991C87.1091 154.564 88.3231 153.608 90.1365 153.608C91.8512 153.608 93.0121 154.466 93.1639 155.839H91.9195C91.7678 155.118 91.0773 154.678 90.1137 154.678C89.0667 154.678 88.3914 155.164 88.3914 155.915C88.3914 156.545 88.8163 156.901 89.8482 157.129L91.009 157.394C92.61 157.759 93.3384 158.457 93.3384 159.648C93.3384 161.165 92.0713 162.152 90.1213 162.152C88.2548 162.152 87.0181 161.279 86.8739 159.868H88.1865C88.3762 160.627 89.1046 161.067 90.1668 161.067C91.2898 161.067 92.003 160.558 92.003 159.769C92.003 159.117 91.6009 158.768 90.5538 158.533L89.3322 158.252C87.8451 157.91 87.1091 157.159 87.1091 155.991ZM101.546 159.876H102.798C102.548 161.234 101.243 162.152 99.513 162.152C97.252 162.152 95.9394 160.794 95.9394 158.449V157.212C95.9394 155.042 97.3279 153.616 99.422 153.616C101.562 153.616 102.821 155.035 102.821 157.417V158.221H97.214V158.555C97.214 160.065 98.1094 161.036 99.513 161.036C100.553 161.036 101.319 160.596 101.546 159.876ZM99.4144 154.724C98.0411 154.724 97.214 155.664 97.214 157.243H101.546C101.546 155.672 100.742 154.724 99.4144 154.724ZM108.214 158.313V160.968H110.764V162H105.293V160.968H106.955V154.8H105.126V153.768H108.199V155.869H108.366C108.67 154.344 109.694 153.555 111.28 153.555C111.75 153.555 112.198 153.623 112.471 153.737V155.186C112.091 155.05 111.56 154.959 111.113 154.959C109.292 154.959 108.214 156.218 108.214 158.313ZM116.354 151.56H117.629V153.79H120.967V154.891H117.644V159.534C117.644 160.429 118.274 160.915 119.435 160.915C119.897 160.915 120.724 160.892 120.945 160.869V161.962C120.74 162 119.738 162.038 119.344 162.038C117.303 162.038 116.354 161.264 116.354 159.549V154.891H114.161V153.79H116.354V151.56ZM127.119 151.749C126.512 151.749 126.049 151.294 126.049 150.687C126.049 150.088 126.512 149.632 127.119 149.632C127.726 149.632 128.189 150.088 128.189 150.687C128.189 151.294 127.726 151.749 127.119 151.749ZM130.571 162H123.75V160.93H126.573V154.837H123.773V153.768H127.848V160.93H130.571V162ZM136.192 162.152C134.015 162.152 132.626 160.733 132.626 158.51V157.265C132.626 155.042 134.015 153.623 136.192 153.623C138.37 153.623 139.758 155.042 139.758 157.265V158.51C139.758 160.733 138.37 162.152 136.192 162.152ZM136.192 154.762C134.781 154.762 133.901 155.763 133.901 157.379V158.388C133.901 160.012 134.781 161.006 136.192 161.006C137.603 161.006 138.484 160.012 138.484 158.388V157.379C138.484 155.763 137.603 154.762 136.192 154.762ZM142.041 162V153.768H143.277V155.217H143.384C143.824 154.193 144.764 153.616 146.016 153.616C147.807 153.616 148.778 154.686 148.778 156.658V162H147.488V156.985C147.488 155.498 146.881 154.8 145.599 154.8C144.241 154.8 143.33 155.748 143.33 157.152V162H142.041ZM151.63 155.991C151.63 154.564 152.844 153.608 154.657 153.608C156.372 153.608 157.533 154.466 157.684 155.839H156.44C156.288 155.118 155.598 154.678 154.634 154.678C153.587 154.678 152.912 155.164 152.912 155.915C152.912 156.545 153.337 156.901 154.369 157.129L155.53 157.394C157.13 157.759 157.859 158.457 157.859 159.648C157.859 161.165 156.592 162.152 154.642 162.152C152.775 162.152 151.539 161.279 151.394 159.868H152.707C152.897 160.627 153.625 161.067 154.687 161.067C155.81 161.067 156.524 160.558 156.524 159.769C156.524 159.117 156.121 158.768 155.074 158.533L153.853 158.252C152.366 157.91 151.63 157.159 151.63 155.991ZM32.8301 170.012H36.8287V171.051H34.082V182H36.8439V183.039H32.8301V170.012Z" fill="#EEEEEE"/>
<path d="M163.844 156.218C163.093 156.218 162.471 155.581 162.471 154.815C162.471 154.048 163.093 153.411 163.844 153.411C164.595 153.411 165.217 154.048 165.217 154.815C165.217 155.581 164.595 156.218 163.844 156.218ZM163.844 162.046C163.093 162.046 162.471 161.416 162.471 160.642C162.471 159.876 163.093 159.246 163.844 159.246C164.595 159.246 165.217 159.876 165.217 160.642C165.217 161.416 164.595 162.046 163.844 162.046Z" fill="white"/>
<path d="M92.633 183L91.6845 179.859H87.8756L86.9196 183H85.5615L89.0896 172.051H90.5161L94.0442 183H92.633ZM89.7649 173.66L88.2247 178.713H91.3355L89.8028 173.66H89.7649ZM96.023 176.991C96.023 175.564 97.237 174.608 99.0504 174.608C100.765 174.608 101.926 175.466 102.078 176.839H100.833C100.682 176.118 99.9913 175.678 99.0276 175.678C97.9806 175.678 97.3053 176.164 97.3053 176.915C97.3053 177.545 97.7302 177.901 98.7621 178.129L99.923 178.394C101.524 178.759 102.252 179.457 102.252 180.648C102.252 182.165 100.985 183.152 99.0352 183.152C97.1687 183.152 95.932 182.279 95.7878 180.868H97.1004C97.2901 181.627 98.0185 182.067 99.0808 182.067C100.204 182.067 100.917 181.558 100.917 180.769C100.917 180.117 100.515 179.768 99.4677 179.533L98.2461 179.252C96.759 178.91 96.023 178.159 96.023 176.991ZM105.24 176.991C105.24 175.564 106.454 174.608 108.268 174.608C109.982 174.608 111.143 175.466 111.295 176.839H110.051C109.899 176.118 109.208 175.678 108.245 175.678C107.198 175.678 106.523 176.164 106.523 176.915C106.523 177.545 106.947 177.901 107.979 178.129L109.14 178.394C110.741 178.759 111.47 179.457 111.47 180.648C111.47 182.165 110.202 183.152 108.252 183.152C106.386 183.152 105.149 182.279 105.005 180.868H106.318C106.507 181.627 107.236 182.067 108.298 182.067C109.421 182.067 110.134 181.558 110.134 180.769C110.134 180.117 109.732 179.768 108.685 179.533L107.463 179.252C105.976 178.91 105.24 178.159 105.24 176.991ZM119.678 180.876H120.93C120.679 182.234 119.374 183.152 117.644 183.152C115.383 183.152 114.07 181.794 114.07 179.449V178.212C114.07 176.042 115.459 174.616 117.553 174.616C119.693 174.616 120.952 176.035 120.952 178.417V179.221H115.345V179.555C115.345 181.065 116.241 182.036 117.644 182.036C118.684 182.036 119.45 181.596 119.678 180.876ZM117.546 175.724C116.172 175.724 115.345 176.664 115.345 178.243H119.678C119.678 176.672 118.873 175.724 117.546 175.724ZM126.345 179.313V181.968H128.895V183H123.424V181.968H125.086V175.8H123.257V174.768H126.33V176.869H126.497C126.801 175.344 127.825 174.555 129.411 174.555C129.881 174.555 130.329 174.623 130.602 174.737V176.186C130.223 176.05 129.692 175.959 129.244 175.959C127.423 175.959 126.345 177.218 126.345 179.313ZM134.485 172.56H135.76V174.79H139.098V175.891H135.775V180.534C135.775 181.429 136.405 181.915 137.566 181.915C138.029 181.915 138.856 181.892 139.076 181.869V182.962C138.871 183 137.869 183.038 137.475 183.038C135.434 183.038 134.485 182.264 134.485 180.549V175.891H132.292V174.79H134.485V172.56ZM145.25 172.749C144.643 172.749 144.18 172.294 144.18 171.687C144.18 171.088 144.643 170.632 145.25 170.632C145.857 170.632 146.32 171.088 146.32 171.687C146.32 172.294 145.857 172.749 145.25 172.749ZM148.703 183H141.881V181.93H144.704V175.837H141.904V174.768H145.979V181.93H148.703V183ZM154.323 183.152C152.146 183.152 150.757 181.733 150.757 179.51V178.265C150.757 176.042 152.146 174.623 154.323 174.623C156.501 174.623 157.889 176.042 157.889 178.265V179.51C157.889 181.733 156.501 183.152 154.323 183.152ZM154.323 175.762C152.912 175.762 152.032 176.763 152.032 178.379V179.388C152.032 181.012 152.912 182.006 154.323 182.006C155.735 182.006 156.615 181.012 156.615 179.388V178.379C156.615 176.763 155.735 175.762 154.323 175.762ZM160.172 183V174.768H161.409V176.217H161.515C161.955 175.193 162.896 174.616 164.148 174.616C165.938 174.616 166.909 175.686 166.909 177.658V183H165.62V177.985C165.62 176.498 165.013 175.8 163.73 175.8C162.372 175.8 161.462 176.748 161.462 178.152V183H160.172ZM172.963 183H169.381V172.051H172.925C174.943 172.051 176.157 173.06 176.157 174.76C176.157 175.966 175.375 176.96 174.275 177.15V177.264C175.747 177.408 176.711 178.478 176.711 179.942C176.711 181.862 175.315 183 172.963 183ZM170.709 173.205V176.778H172.416C173.972 176.778 174.806 176.149 174.806 174.995C174.806 173.85 174.017 173.205 172.621 173.205H170.709ZM170.709 181.839H172.674C174.412 181.839 175.322 181.156 175.322 179.851C175.322 178.561 174.404 177.894 172.629 177.894H170.709V181.839ZM185.344 174.768V183H184.107V181.551H184.001C183.561 182.575 182.62 183.152 181.368 183.152C179.577 183.152 178.606 182.082 178.606 180.109V174.768H179.896V179.783C179.896 181.27 180.503 181.968 181.785 181.968C183.143 181.968 184.054 181.02 184.054 179.616V174.768H185.344ZM191.336 172.749C190.729 172.749 190.267 172.294 190.267 171.687C190.267 171.088 190.729 170.632 191.336 170.632C191.943 170.632 192.406 171.088 192.406 171.687C192.406 172.294 191.943 172.749 191.336 172.749ZM194.789 183H187.968V181.93H190.79V175.837H187.99V174.768H192.065V181.93H194.789V183ZM204.006 183H197.185V181.93H200V172.605H197.208V171.535H201.29V181.93H204.006V183ZM209.111 183.137C207.206 183.137 205.962 181.763 205.962 179.646V178.114C205.962 176.004 207.206 174.631 209.111 174.631C210.302 174.631 211.182 175.139 211.539 176.042H211.675V171.535H212.988V183H211.721V181.74H211.577C211.152 182.651 210.287 183.137 209.111 183.137ZM209.49 181.961C210.841 181.961 211.713 180.989 211.713 179.464V178.281C211.713 176.763 210.841 175.792 209.49 175.792C208.132 175.792 207.259 176.763 207.259 178.281V179.464C207.259 180.982 208.132 181.961 209.49 181.961ZM221.067 180.876H222.319C222.069 182.234 220.763 183.152 219.034 183.152C216.772 183.152 215.46 181.794 215.46 179.449V178.212C215.46 176.042 216.848 174.616 218.942 174.616C221.082 174.616 222.342 176.035 222.342 178.417V179.221H216.735V179.555C216.735 181.065 217.63 182.036 219.034 182.036C220.073 182.036 220.839 181.596 221.067 180.876ZM218.935 175.724C217.562 175.724 216.735 176.664 216.735 178.243H221.067C221.067 176.672 220.263 175.724 218.935 175.724ZM227.735 179.313V181.968H230.284V183H224.814V181.968H226.475V175.8H224.647V174.768H227.72V176.869H227.887C228.19 175.344 229.214 174.555 230.8 174.555C231.271 174.555 231.718 174.623 231.991 174.737V176.186C231.612 176.05 231.081 175.959 230.633 175.959C228.812 175.959 227.735 177.218 227.735 179.313ZM237.278 183.046C236.527 183.046 235.905 182.416 235.905 181.642C235.905 180.876 236.527 180.246 237.278 180.246C238.029 180.246 238.652 180.876 238.652 181.642C238.652 182.416 238.029 183.046 237.278 183.046ZM243.498 176.991C243.498 175.564 244.712 174.608 246.526 174.608C248.241 174.608 249.401 175.466 249.553 176.839H248.309C248.157 176.118 247.467 175.678 246.503 175.678C245.456 175.678 244.781 176.164 244.781 176.915C244.781 177.545 245.206 177.901 246.238 178.129L247.398 178.394C248.999 178.759 249.728 179.457 249.728 180.648C249.728 182.165 248.461 183.152 246.511 183.152C244.644 183.152 243.407 182.279 243.263 180.868H244.576C244.766 181.627 245.494 182.067 246.556 182.067C247.679 182.067 248.392 181.558 248.392 180.769C248.392 180.117 247.99 179.768 246.943 179.533L245.722 179.252C244.234 178.91 243.498 178.159 243.498 176.991ZM254.309 172.56H255.584V174.79H258.922V175.891H255.599V180.534C255.599 181.429 256.229 181.915 257.39 181.915C257.852 181.915 258.679 181.892 258.899 181.869V182.962C258.695 183 257.693 183.038 257.299 183.038C255.257 183.038 254.309 182.264 254.309 180.549V175.891H252.116V174.79H254.309V172.56ZM264.095 183.144C262.525 183.144 261.478 182.158 261.478 180.663C261.478 179.206 262.525 178.341 264.399 178.243L266.66 178.129V177.385C266.66 176.353 266.03 175.784 264.884 175.784C263.936 175.784 263.268 176.186 263.056 176.892H261.789C261.94 175.572 263.215 174.669 264.9 174.669C266.834 174.669 267.942 175.655 267.942 177.37V183.008H266.713V181.771H266.584C266.189 182.651 265.294 183.144 264.095 183.144ZM264.467 182.014C265.711 182.014 266.66 181.187 266.66 180.086V179.115L264.543 179.214C263.39 179.267 262.783 179.76 262.783 180.618C262.783 181.483 263.428 182.014 264.467 182.014ZM272.743 172.56H274.018V174.79H277.357V175.891H274.033V180.534C274.033 181.429 274.663 181.915 275.824 181.915C276.287 181.915 277.114 181.892 277.334 181.869V182.962C277.129 183 276.127 183.038 275.733 183.038C273.692 183.038 272.743 182.264 272.743 180.549V175.891H270.551V174.79H272.743V172.56ZM286.733 174.768V183H285.496V181.551H285.39C284.95 182.575 284.009 183.152 282.757 183.152C280.967 183.152 279.996 182.082 279.996 180.109V174.768H281.285V179.783C281.285 181.27 281.892 181.968 283.175 181.968C284.533 181.968 285.443 181.02 285.443 179.616V174.768H286.733ZM289.585 176.991C289.585 175.564 290.799 174.608 292.612 174.608C294.327 174.608 295.488 175.466 295.639 176.839H294.395C294.243 176.118 293.553 175.678 292.589 175.678C291.542 175.678 290.867 176.164 290.867 176.915C290.867 177.545 291.292 177.901 292.324 178.129L293.484 178.394C295.085 178.759 295.814 179.457 295.814 180.648C295.814 182.165 294.547 183.152 292.597 183.152C290.73 183.152 289.493 182.279 289.349 180.868H290.662C290.852 181.627 291.58 182.067 292.642 182.067C293.765 182.067 294.478 181.558 294.478 180.769C294.478 180.117 294.076 179.768 293.029 179.533L291.808 179.252C290.321 178.91 289.585 178.159 289.585 176.991ZM302.049 181.961C303.506 181.961 304.432 181.088 304.47 179.677H305.82C305.82 181.794 304.287 183.228 302.049 183.228C299.477 183.228 297.982 181.49 297.982 178.501V176.551C297.982 173.561 299.477 171.824 302.049 171.824C304.356 171.824 305.782 173.227 305.828 175.564H304.47C304.424 174.085 303.445 173.091 302.042 173.091C300.274 173.091 299.348 174.282 299.348 176.551V178.501C299.348 180.769 300.274 181.961 302.049 181.961ZM311.016 183.152C308.838 183.152 307.45 181.733 307.45 179.51V178.265C307.45 176.042 308.838 174.623 311.016 174.623C313.194 174.623 314.582 176.042 314.582 178.265V179.51C314.582 181.733 313.194 183.152 311.016 183.152ZM311.016 175.762C309.605 175.762 308.725 176.763 308.725 178.379V179.388C308.725 181.012 309.605 182.006 311.016 182.006C312.427 182.006 313.307 181.012 313.307 179.388V178.379C313.307 176.763 312.427 175.762 311.016 175.762ZM319.717 183.137C317.813 183.137 316.568 181.763 316.568 179.646V178.114C316.568 176.004 317.813 174.631 319.717 174.631C320.909 174.631 321.789 175.139 322.145 176.042H322.282V171.535H323.594V183H322.327V181.74H322.183C321.758 182.651 320.893 183.137 319.717 183.137ZM320.097 181.961C321.447 181.961 322.32 180.989 322.32 179.464V178.281C322.32 176.763 321.447 175.792 320.097 175.792C318.738 175.792 317.866 176.763 317.866 178.281V179.464C317.866 180.982 318.738 181.961 320.097 181.961ZM331.674 180.876H332.925C332.675 182.234 331.37 183.152 329.64 183.152C327.379 183.152 326.066 181.794 326.066 179.449V178.212C326.066 176.042 327.455 174.616 329.549 174.616C331.689 174.616 332.948 176.035 332.948 178.417V179.221H327.341V179.555C327.341 181.065 328.236 182.036 329.64 182.036C330.68 182.036 331.446 181.596 331.674 180.876ZM329.541 175.724C328.168 175.724 327.341 176.664 327.341 178.243H331.674C331.674 176.672 330.869 175.724 329.541 175.724ZM357.102 183.046C356.351 183.046 355.729 182.416 355.729 181.642C355.729 180.876 356.351 180.246 357.102 180.246C357.853 180.246 358.475 180.876 358.475 181.642C358.475 182.416 357.853 183.046 357.102 183.046ZM368.542 180.876H369.794C369.544 182.234 368.239 183.152 366.509 183.152C364.248 183.152 362.935 181.794 362.935 179.449V178.212C362.935 176.042 364.324 174.616 366.418 174.616C368.558 174.616 369.817 176.035 369.817 178.417V179.221H364.21V179.555C364.21 181.065 365.105 182.036 366.509 182.036C367.548 182.036 368.315 181.596 368.542 180.876ZM366.41 175.724C365.037 175.724 364.21 176.664 364.21 178.243H368.542C368.542 176.672 367.738 175.724 366.41 175.724ZM375.021 174.631C376.197 174.631 377.054 175.117 377.486 176.027H377.623V174.768H378.898V185.777H377.585V181.725H377.441C377.084 182.628 376.212 183.137 375.021 183.137C373.116 183.137 371.872 181.763 371.872 179.654V178.121C371.872 176.004 373.116 174.631 375.021 174.631ZM375.392 175.815C374.034 175.815 373.169 176.786 373.169 178.303V179.487C373.169 181.005 374.034 181.983 375.392 181.983C376.751 181.983 377.615 181.012 377.615 179.487V178.303C377.615 176.786 376.751 175.815 375.392 175.815ZM388.123 174.768V183H386.886V181.551H386.78C386.34 182.575 385.399 183.152 384.147 183.152C382.356 183.152 381.385 182.082 381.385 180.109V174.768H382.675V179.783C382.675 181.27 383.282 181.968 384.564 181.968C385.922 181.968 386.833 181.02 386.833 179.616V174.768H388.123ZM393.136 183.144C391.566 183.144 390.519 182.158 390.519 180.663C390.519 179.206 391.566 178.341 393.44 178.243L395.701 178.129V177.385C395.701 176.353 395.071 175.784 393.925 175.784C392.977 175.784 392.309 176.186 392.097 176.892H390.83C390.981 175.572 392.256 174.669 393.941 174.669C395.875 174.669 396.983 175.655 396.983 177.37V183.008H395.754V181.771H395.625C395.23 182.651 394.335 183.144 393.136 183.144ZM393.508 182.014C394.752 182.014 395.701 181.187 395.701 180.086V179.115L393.584 179.214C392.431 179.267 391.824 179.76 391.824 180.618C391.824 181.483 392.469 182.014 393.508 182.014ZM406.785 183H399.964V181.93H402.778V172.605H399.986V171.535H404.068V181.93H406.785V183ZM409.408 176.991C409.408 175.564 410.622 174.608 412.436 174.608C414.15 174.608 415.311 175.466 415.463 176.839H414.219C414.067 176.118 413.377 175.678 412.413 175.678C411.366 175.678 410.691 176.164 410.691 176.915C410.691 177.545 411.116 177.901 412.147 178.129L413.308 178.394C414.909 178.759 415.638 179.457 415.638 180.648C415.638 182.165 414.371 183.152 412.421 183.152C410.554 183.152 409.317 182.279 409.173 180.868H410.486C410.675 181.627 411.404 182.067 412.466 182.067C413.589 182.067 414.302 181.558 414.302 180.769C414.302 180.117 413.9 179.768 412.853 179.533L411.631 179.252C410.144 178.91 409.408 178.159 409.408 176.991ZM427.35 175.132C427.35 173.205 428.776 171.824 430.772 171.824C432.782 171.824 434.163 173.068 434.163 174.897C434.163 176.035 433.647 176.945 431.902 178.85L429.322 181.657V181.786H434.338V183H427.41V182.074L431.113 177.954C432.501 176.399 432.835 175.815 432.835 174.95C432.835 173.774 432.008 173 430.734 173C429.474 173 428.639 173.842 428.639 175.132V175.177H427.35V175.132ZM89.8104 203.25C87.428 203.25 86.1154 201.217 86.1154 197.529C86.1154 193.842 87.428 191.809 89.8104 191.809C92.1853 191.809 93.5055 193.842 93.5055 197.529C93.5055 201.217 92.1853 203.25 89.8104 203.25ZM87.4432 197.529C87.4432 197.962 87.4659 198.364 87.4963 198.736L91.9122 195.048C91.5555 193.69 90.8423 192.992 89.8104 192.992C88.2626 192.992 87.4432 194.555 87.4432 197.529ZM89.8104 202.067C91.3583 202.067 92.1701 200.496 92.1701 197.529C92.1701 197.089 92.155 196.687 92.117 196.308L87.7163 200.026C88.0729 201.369 88.7785 202.067 89.8104 202.067ZM99.0276 203.25C96.6452 203.25 95.3326 201.217 95.3326 197.529C95.3326 193.842 96.6452 191.809 99.0276 191.809C101.403 191.809 102.723 193.842 102.723 197.529C102.723 201.217 101.403 203.25 99.0276 203.25ZM96.6604 197.529C96.6604 197.962 96.6831 198.364 96.7135 198.736L101.129 195.048C100.773 193.69 100.06 192.992 99.0276 192.992C97.4798 192.992 96.6604 194.555 96.6604 197.529ZM99.0276 202.067C100.575 202.067 101.387 200.496 101.387 197.529C101.387 197.089 101.372 196.687 101.334 196.308L96.9335 200.026C97.2901 201.369 97.9958 202.067 99.0276 202.067Z" fill="#00B51D"/>
<path d="M337.014 177.522C337.014 174.95 337.788 172.711 339.297 170.997H340.58C339.009 173.205 338.349 175.139 338.349 177.522C338.349 179.904 339.009 181.839 340.58 184.047H339.297C337.788 182.332 337.014 180.102 337.014 177.522ZM349.539 177.522C349.539 180.102 348.765 182.332 347.255 184.047H345.973C347.543 181.839 348.204 179.904 348.204 177.522C348.204 175.139 347.543 173.205 345.973 170.997H347.255C348.765 172.711 349.539 174.95 349.539 177.522ZM419.969 177.522C419.969 174.95 420.742 172.711 422.252 170.997H423.535C421.964 173.205 421.304 175.139 421.304 177.522C421.304 179.904 421.964 181.839 423.535 184.047H422.252C420.742 182.332 419.969 180.102 419.969 177.522ZM109.891 197.522C109.891 200.102 109.117 202.332 107.608 204.047H106.325C107.896 201.839 108.556 199.904 108.556 197.522C108.556 195.139 107.896 193.205 106.325 190.997H107.608C109.117 192.711 109.891 194.95 109.891 197.522Z" fill="#EEEEEE"/>
<path d="M73.7127 202.012V215.039H69.699V214H72.4532V203.051H69.7142V202.012H73.7127ZM50.2782 236.039V235H51.1052C52.2433 235 52.4634 234.734 52.4634 233.414V231.388C52.4634 230.326 53.26 229.621 54.8003 229.59V229.469C53.26 229.431 52.4634 228.725 52.4634 227.663V225.637C52.4634 224.317 52.2433 224.051 51.1052 224.051H50.2782V223.012H51.3101C53.1538 223.012 53.738 223.596 53.738 225.47V227.17C53.738 228.346 54.4209 229.021 56.1964 228.839V230.212C54.4209 230.03 53.738 230.713 53.738 231.882V233.581C53.738 235.455 53.1538 236.039 51.3101 236.039H50.2782ZM31.8437 256.039V255H32.6708C33.8089 255 34.0289 254.734 34.0289 253.414V251.388C34.0289 250.326 34.8256 249.621 36.3659 249.59V249.469C34.8256 249.431 34.0289 248.725 34.0289 247.663V245.637C34.0289 244.317 33.8089 244.051 32.6708 244.051H31.8437V243.012H32.8756C34.7194 243.012 35.3036 243.596 35.3036 245.47V247.17C35.3036 248.346 35.9865 249.021 37.7619 248.839V250.212C35.9865 250.03 35.3036 250.713 35.3036 251.882V253.581C35.3036 255.455 34.7194 256.039 32.8756 256.039H31.8437ZM45.6741 249.522C45.6741 252.102 44.9002 254.332 43.3903 256.047H42.108C43.6786 253.839 44.3387 251.904 44.3387 249.522C44.3387 247.139 43.6786 245.205 42.108 242.997H43.3903C44.9002 244.711 45.6741 246.95 45.6741 249.522Z" fill="#EEEEEE"/>
<path d="M80.1985 216.519H78.9769L79.9177 211.587H81.6249L80.1985 216.519Z" fill="white"/>
</svg>
